<svg xmlns="http://www.w3.org/2000/svg" xmlns:xlink="http://www.w3.org/1999/xlink" width="500" zoomAndPan="magnify" viewBox="0 0 375 374.999991" height="500" preserveAspectRatio="xMidYMid meet" version="1.0"><path fill="#545454" d="M 362.964844 192.679688 C 356.28125 163.035156 340.214844 138.804688 316.796875 119.488281 C 307.457031 111.773438 297.164062 105.5 286.0625 100.628906 C 285.25 100.269531 284.621094 99.773438 283.722656 100.722656 C 280.378906 104.371094 276.816406 107.796875 273.066406 111.054688 C 273.296875 111.234375 273.378906 111.371094 273.476562 111.414062 C 274.105469 111.6875 274.738281 111.953125 275.371094 112.226562 C 286.738281 116.832031 297.4375 122.738281 306.78125 130.726562 C 345.136719 163.582031 359.886719 205.097656 348.476562 254.242188 C 333.761719 317.371094 272.03125 356.316406 210.386719 345.574219 C 187.550781 341.558594 167.789062 331.40625 150.867188 315.75 C 130.691406 297.152344 117.878906 274.179688 111.015625 247.789062 C 110.835938 247.019531 110.613281 246.25 110.4375 245.4375 C 109.710938 242.453125 109.078125 239.53125 108.675781 236.550781 C 108.632812 236.371094 108.582031 236.191406 108.582031 235.960938 C 105.195312 215.789062 104.742188 192.773438 104.742188 192.773438 C 104.617188 192.511719 104.523438 192.238281 104.878906 192.058594 C 105.195312 187.046875 106.101562 182.125 108.128906 177.519531 C 112.324219 168.09375 118.332031 159.972656 125.820312 152.890625 C 129.929688 149 134.664062 146.660156 140.167969 145.53125 C 149.109375 143.71875 158.175781 142.914062 167.15625 141.554688 C 187.960938 138.539062 208.042969 132.890625 227.402344 124.8125 C 248.433594 116.0625 265.757812 102.25 280.0625 84.613281 C 291.386719 70.664062 300.234375 55.273438 306.328125 38.351562 C 307.003906 36.460938 306.730469 35.648438 304.652344 35.058594 C 296.214844 32.761719 287.6875 31.042969 279.019531 29.957031 C 264.988281 28.199219 250.996094 28.292969 237.007812 30.1875 C 221.71875 32.265625 207.230469 36.863281 193.199219 43.273438 C 168.78125 54.554688 150.195312 71.65625 139.175781 96.527344 C 133.628906 109.019531 130.152344 122.15625 125.957031 135.105469 C 125.820312 135.421875 125.597656 135.832031 126.050781 136.148438 L 126 136.050781 C 134.9375 124.59375 144.59375 113.761719 155.382812 104.011719 C 173.746094 87.363281 194.097656 74.046875 217.878906 66.425781 C 221.804688 65.160156 225.777344 63.988281 230.015625 63.535156 C 176.457031 88.492188 134.261719 126.171875 103.171875 175.851562 C 103.171875 175.894531 103.121094 175.441406 103.214844 175 C 105.425781 160.46875 104.835938 146.070312 101.992188 131.71875 C 97.660156 110.0625 88.453125 90.515625 75.910156 72.46875 C 70.855469 65.203125 65.355469 58.296875 59.578125 51.582031 C 62.242188 52.390625 64.269531 54.28125 66.25 56.042969 C 90.847656 77.929688 102.804688 106.089844 107.273438 138.035156 C 107.949219 143.09375 108.128906 148.144531 108.675781 153.246094 C 112.511719 144.488281 116.203125 135.695312 119.007812 126.574219 C 123.246094 112.585938 124.785156 98.371094 121.582031 83.886719 C 117.835938 66.828125 109.171875 52.296875 97.394531 39.753906 C 71.761719 12.402344 39.269531 3.25 2.800781 5.054688 C 1.496094 5.097656 0.957031 5.59375 0.820312 7.078125 C 0.1875 15.789062 0.683594 24.410156 1.726562 33.027344 C 3.75 49.136719 8.085938 64.527344 15.84375 78.835938 C 29.433594 103.832031 48.882812 123.730469 71.667969 140.523438 C 77.898438 145.078125 84.574219 149.09375 90.941406 153.511719 C 94.367188 155.90625 96.847656 159.109375 97.617188 163.445312 C 98.292969 167.144531 98.113281 170.886719 97.34375 174.546875 C 95.589844 183.03125 94.144531 191.511719 93.554688 200.175781 C 92.882812 210.148438 92.96875 220.082031 93.515625 230.046875 C 94.09375 241.515625 95.675781 252.839844 98.921875 263.898438 C 118.238281 330.054688 184.257812 371.703125 252.21875 360.464844 C 279.074219 356.042969 302.984375 344.984375 322.703125 326.125 C 361.066406 289.304688 374.648438 244.53125 362.964844 192.679688 " fill-opacity="1" fill-rule="nonzero"/><path fill="#545454" d="M 290.628906 219.945312 L 239.1875 219.164062 C 239.972656 212.21875 240.75 205.269531 241.546875 198.320312 C 242.503906 189.953125 243.453125 181.597656 244.417969 173.238281 C 245.367188 165.007812 246.339844 156.785156 247.339844 148.136719 C 246.777344 148.90625 246.433594 149.34375 246.125 149.804688 C 235.375 166.332031 224.613281 182.859375 213.882812 199.390625 C 209.445312 206.210938 205.035156 213.046875 200.617188 219.875 C 200.566406 219.945312 200.523438 220.019531 200.488281 220.097656 C 200.34375 220.269531 200.171875 220.429688 200.054688 220.617188 C 194.113281 229.738281 188.171875 238.867188 182.242188 247.992188 C 181.378906 249.316406 180.523438 250.660156 179.542969 252.1875 L 229.375 252.1875 C 230.085938 252.222656 230.792969 252.257812 231.511719 252.292969 C 228.820312 275.570312 226.128906 298.851562 223.4375 322.140625 L 290.628906 219.945312 " fill-opacity="1" fill-rule="nonzero"/></svg>