<svg xmlns="http://www.w3.org/2000/svg" xmlns:xlink="http://www.w3.org/1999/xlink" width="300" zoomAndPan="magnify" viewBox="0 0 224.87999 168.749997" height="225" preserveAspectRatio="xMidYMid meet" version="1.0"><defs><g/><clipPath id="04a4ab1dcb"><path d="M 27 104 L 72 104 L 72 129.476562 L 27 129.476562 Z M 27 104 " clip-rule="nonzero"/></clipPath><clipPath id="076a8b1bd3"><path d="M 4.738281 33.621094 L 94.605469 33.621094 L 94.605469 56 L 4.738281 56 Z M 4.738281 33.621094 " clip-rule="nonzero"/></clipPath></defs><path fill="#ef6a6a" d="M 11.273438 61.449219 L 17.183594 76.910156 L 82.15625 76.910156 L 88.070312 61.449219 Z M 11.273438 61.449219 " fill-opacity="1" fill-rule="nonzero"/><path fill="#f9954b" d="M 73.878906 98.554688 L 79.792969 83.09375 L 19.550781 83.09375 L 25.460938 98.554688 Z M 73.878906 98.554688 " fill-opacity="1" fill-rule="nonzero"/><g clip-path="url(#04a4ab1dcb)"><path fill="#f9ca48" d="M 27.828125 104.742188 L 37.285156 129.476562 L 62.058594 129.476562 L 71.515625 104.742188 Z M 27.828125 104.742188 " fill-opacity="1" fill-rule="nonzero"/></g><g clip-path="url(#076a8b1bd3)"><path fill="#66becc" d="M 4.769531 33.621094 L 4.769531 44.441406 L 8.910156 55.265625 L 90.433594 55.265625 L 94.570312 44.441406 L 94.570312 33.621094 Z M 4.769531 33.621094 " fill-opacity="1" fill-rule="nonzero"/></g><path fill="#f9954b" d="M 49.671875 115.5625 C 48.816406 115.5625 48.125 114.871094 48.125 114.015625 C 48.125 113.164062 48.816406 112.472656 49.671875 112.472656 C 50.527344 112.472656 51.21875 113.164062 51.21875 114.015625 L 54.316406 114.015625 C 54.316406 112.003906 53.015625 110.304688 51.21875 109.664062 L 51.21875 107.832031 L 48.125 107.832031 L 48.125 109.664062 C 46.324219 110.304688 45.027344 112.003906 45.027344 114.015625 C 45.027344 116.574219 47.109375 118.65625 49.671875 118.65625 C 50.527344 118.65625 51.21875 119.347656 51.21875 120.203125 C 51.21875 121.054688 50.527344 121.746094 49.671875 121.746094 C 48.816406 121.746094 48.125 121.054688 48.125 120.203125 L 45.027344 120.203125 C 45.027344 122.214844 46.324219 123.914062 48.125 124.554688 L 48.125 126.386719 L 51.21875 126.386719 L 51.21875 124.554688 C 53.015625 123.914062 54.316406 122.214844 54.316406 120.203125 C 54.316406 117.644531 52.234375 115.5625 49.671875 115.5625 Z M 49.671875 115.5625 " fill-opacity="1" fill-rule="nonzero"/><g fill="#ffc1b2" fill-opacity="0.302"><g transform="translate(101.053548, 78.408667)"><g><path d="M 19.421875 -17.671875 L 19.304688 -17.816406 C 18.972656 -18.144531 18.757812 -18.523438 18.617188 -18.949219 C 18.191406 -20.273438 17.320312 -21.359375 16.042969 -22.210938 C 15.332031 -22.65625 14.53125 -23.011719 13.632812 -23.25 C 12.734375 -23.484375 11.8125 -23.601562 10.820312 -23.601562 C 9.828125 -23.601562 8.859375 -23.460938 7.9375 -23.226562 C 7.015625 -22.988281 6.191406 -22.632812 5.457031 -22.1875 C 4.464844 -21.570312 3.734375 -20.839844 3.214844 -19.964844 C 2.695312 -19.089844 2.457031 -18.144531 2.457031 -17.105469 C 2.457031 -15.121094 3.378906 -13.421875 5.269531 -12.027344 C 5.929688 -11.507812 6.640625 -11.082031 7.417969 -10.703125 C 8.199219 -10.324219 9 -9.945312 9.804688 -9.617188 C 10.277344 -9.378906 10.796875 -9.144531 11.316406 -8.90625 C 11.835938 -8.671875 12.308594 -8.410156 12.734375 -8.175781 C 13.160156 -7.914062 13.515625 -7.65625 13.796875 -7.394531 C 14.082031 -7.113281 14.222656 -6.851562 14.222656 -6.59375 C 14.222656 -6.261719 14.105469 -5.953125 13.867188 -5.71875 C 13.632812 -5.480469 13.324219 -5.269531 12.972656 -5.128906 C 12.617188 -4.984375 12.238281 -4.867188 11.8125 -4.796875 C 11.386719 -4.703125 11.011719 -4.679688 10.632812 -4.679688 C 10.160156 -4.679688 9.6875 -4.726562 9.167969 -4.84375 C 8.648438 -4.9375 8.199219 -5.128906 7.84375 -5.386719 C 7.75 -5.457031 7.679688 -5.550781 7.679688 -5.671875 C 7.65625 -5.789062 7.679688 -5.882812 7.773438 -5.976562 L 7.796875 -6 C 7.867188 -6.121094 7.867188 -6.238281 7.820312 -6.378906 C 7.75 -6.519531 7.632812 -6.59375 7.488281 -6.59375 L 2.269531 -6.59375 C 2.101562 -6.59375 1.984375 -6.519531 1.9375 -6.378906 C 1.867188 -6.238281 1.867188 -6.121094 1.960938 -6 L 2.054688 -5.90625 C 2.386719 -5.527344 2.597656 -5.128906 2.742188 -4.726562 C 3.164062 -3.355469 4.015625 -2.269531 5.339844 -1.441406 C 6.046875 -0.96875 6.875 -0.613281 7.773438 -0.378906 C 8.671875 -0.117188 9.640625 0 10.632812 0 C 11.8125 0 12.925781 -0.164062 13.941406 -0.496094 C 14.957031 -0.828125 15.828125 -1.277344 16.5625 -1.867188 C 17.292969 -2.433594 17.863281 -3.140625 18.289062 -3.945312 C 18.6875 -4.75 18.902344 -5.625 18.902344 -6.59375 C 18.902344 -7.609375 18.664062 -8.503906 18.214844 -9.261719 C 17.765625 -10.019531 17.199219 -10.679688 16.492188 -11.246094 C 15.78125 -11.8125 15.027344 -12.285156 14.175781 -12.710938 C 13.324219 -13.136719 12.5 -13.515625 11.695312 -13.894531 C 11.152344 -14.128906 10.609375 -14.363281 10.066406 -14.625 C 9.523438 -14.859375 9.027344 -15.121094 8.601562 -15.40625 C 8.175781 -15.664062 7.820312 -15.949219 7.535156 -16.230469 C 7.253906 -16.515625 7.136719 -16.796875 7.136719 -17.105469 C 7.136719 -17.367188 7.230469 -17.601562 7.464844 -17.839844 C 7.679688 -18.074219 7.960938 -18.261719 8.316406 -18.429688 C 8.648438 -18.570312 9.050781 -18.6875 9.496094 -18.785156 C 9.921875 -18.878906 10.371094 -18.925781 10.820312 -18.925781 C 11.339844 -18.925781 11.859375 -18.855469 12.332031 -18.757812 C 12.804688 -18.640625 13.183594 -18.476562 13.515625 -18.261719 C 13.609375 -18.191406 13.679688 -18.097656 13.679688 -17.980469 C 13.679688 -17.863281 13.65625 -17.765625 13.585938 -17.695312 L 13.585938 -17.671875 C 13.492188 -17.53125 13.492188 -17.414062 13.5625 -17.292969 C 13.609375 -17.152344 13.726562 -17.105469 13.894531 -17.105469 L 19.113281 -17.105469 C 19.257812 -17.105469 19.375 -17.152344 19.445312 -17.292969 C 19.492188 -17.414062 19.492188 -17.53125 19.421875 -17.671875 Z M 19.421875 -17.671875 "/></g></g></g><g fill="#ffc1b2" fill-opacity="0.302"><g transform="translate(122.435639, 78.408667)"><g><path d="M 21.5 -0.425781 C 21.5 -0.519531 21.453125 -0.589844 21.382812 -0.636719 C 20.839844 -1.085938 20.484375 -1.652344 20.296875 -2.363281 L 14.648438 -21.878906 C 14.53125 -22.257812 14.601562 -22.609375 14.886719 -22.894531 C 14.957031 -23.011719 14.957031 -23.128906 14.910156 -23.273438 C 14.835938 -23.414062 14.71875 -23.484375 14.578125 -23.484375 L 8.339844 -23.484375 C 8.199219 -23.484375 8.082031 -23.414062 8.007812 -23.273438 C 7.9375 -23.128906 7.9375 -23.011719 8.03125 -22.894531 C 8.316406 -22.609375 8.386719 -22.257812 8.269531 -21.878906 L 2.644531 -2.339844 C 2.457031 -1.675781 2.078125 -1.109375 1.535156 -0.636719 C 1.464844 -0.566406 1.417969 -0.496094 1.417969 -0.425781 C 1.394531 -0.308594 1.417969 -0.210938 1.488281 -0.117188 C 1.558594 -0.0234375 1.652344 0 1.796875 0 L 7.277344 0 C 7.417969 0 7.535156 -0.046875 7.585938 -0.1875 C 7.632812 -0.332031 7.632812 -0.449219 7.535156 -0.566406 C 7.253906 -0.851562 7.183594 -1.203125 7.277344 -1.582031 L 8.007812 -4.039062 C 8.082031 -4.300781 8.222656 -4.511719 8.433594 -4.65625 C 8.625 -4.796875 8.859375 -4.890625 9.144531 -4.890625 L 13.796875 -4.890625 C 14.058594 -4.890625 14.292969 -4.796875 14.507812 -4.65625 C 14.695312 -4.511719 14.835938 -4.300781 14.933594 -4.039062 L 15.640625 -1.582031 C 15.734375 -1.203125 15.640625 -0.875 15.40625 -0.589844 L 15.40625 -0.566406 C 15.308594 -0.425781 15.308594 -0.308594 15.382812 -0.1875 C 15.429688 -0.046875 15.546875 0 15.710938 0 L 21.144531 0 C 21.265625 0 21.359375 -0.0234375 21.429688 -0.117188 C 21.5 -0.210938 21.523438 -0.308594 21.5 -0.425781 Z M 12.996094 -9.570312 L 9.945312 -9.570312 C 9.851562 -9.570312 9.78125 -9.59375 9.734375 -9.664062 C 9.664062 -9.734375 9.640625 -9.828125 9.6875 -9.921875 L 11.222656 -15.191406 C 11.246094 -15.308594 11.316406 -15.382812 11.460938 -15.382812 C 11.601562 -15.382812 11.671875 -15.308594 11.71875 -15.191406 L 13.230469 -9.921875 C 13.253906 -9.828125 13.230469 -9.734375 13.183594 -9.664062 C 13.136719 -9.59375 13.066406 -9.570312 12.996094 -9.570312 Z M 12.996094 -9.570312 "/></g></g></g><g fill="#ffc1b2" fill-opacity="0.302"><g transform="translate(145.377088, 78.408667)"><g><path d="M 17.175781 -5.222656 L 16.894531 -4.984375 C 16.632812 -4.75 16.351562 -4.65625 16.042969 -4.65625 L 8.71875 -4.65625 C 8.554688 -4.65625 8.410156 -4.703125 8.316406 -4.796875 C 8.199219 -4.890625 8.152344 -5.03125 8.152344 -5.222656 L 8.152344 -21.382812 C 8.152344 -21.925781 8.339844 -22.421875 8.71875 -22.847656 L 8.742188 -22.871094 C 8.8125 -22.988281 8.8125 -23.105469 8.765625 -23.25 C 8.695312 -23.367188 8.578125 -23.4375 8.433594 -23.4375 L 3.214844 -23.4375 C 3.046875 -23.4375 2.929688 -23.367188 2.882812 -23.25 C 2.8125 -23.105469 2.8125 -22.988281 2.90625 -22.871094 C 3.285156 -22.445312 3.472656 -21.949219 3.472656 -21.40625 L 3.472656 -0.519531 C 3.472656 -0.355469 3.519531 -0.210938 3.636719 -0.117188 C 3.734375 0 3.875 0.046875 4.039062 0.046875 L 16.042969 0.046875 C 16.351562 0.046875 16.632812 0.164062 16.894531 0.378906 L 17.175781 0.613281 C 17.292969 0.707031 17.414062 0.707031 17.554688 0.636719 C 17.671875 0.589844 17.742188 0.472656 17.742188 0.308594 L 17.742188 -4.914062 C 17.742188 -5.054688 17.671875 -5.175781 17.554688 -5.246094 C 17.414062 -5.292969 17.292969 -5.292969 17.175781 -5.222656 Z M 17.175781 -5.222656 "/></g></g></g><g fill="#ffc1b2" fill-opacity="0.302"><g transform="translate(164.561905, 78.408667)"><g><path d="M 17.199219 -23.652344 C 16.796875 -23.273438 16.324219 -23.105469 15.804688 -23.105469 L 3.214844 -23.105469 C 3.046875 -23.105469 2.929688 -23.035156 2.882812 -22.894531 C 2.8125 -22.753906 2.8125 -22.632812 2.90625 -22.515625 L 2.976562 -22.445312 C 3.355469 -22.019531 3.542969 -21.523438 3.542969 -20.957031 L 3.542969 -1.773438 C 3.542969 -1.488281 3.496094 -1.230469 3.402344 -0.96875 C 3.308594 -0.707031 3.164062 -0.472656 2.976562 -0.285156 L 2.90625 -0.210938 C 2.8125 -0.0703125 2.8125 0.046875 2.882812 0.1875 C 2.929688 0.332031 3.046875 0.378906 3.214844 0.378906 L 15.804688 0.378906 C 16.324219 0.378906 16.796875 0.566406 17.199219 0.921875 C 17.320312 1.039062 17.460938 1.0625 17.601562 0.992188 C 17.742188 0.945312 17.839844 0.828125 17.839844 0.636719 L 17.839844 -4.632812 C 17.839844 -4.773438 17.765625 -4.890625 17.625 -4.960938 C 17.484375 -5.007812 17.34375 -4.984375 17.246094 -4.890625 C 16.824219 -4.488281 16.324219 -4.300781 15.757812 -4.300781 L 8.8125 -4.300781 C 8.648438 -4.300781 8.503906 -4.347656 8.386719 -4.464844 C 8.269531 -4.558594 8.222656 -4.703125 8.222656 -4.890625 L 8.222656 -8.433594 C 8.222656 -8.601562 8.269531 -8.742188 8.386719 -8.859375 C 8.503906 -8.953125 8.648438 -9.027344 8.8125 -9.027344 L 10.890625 -9.027344 C 11.460938 -9.027344 11.957031 -8.8125 12.378906 -8.433594 C 12.5 -8.339844 12.617188 -8.339844 12.757812 -8.410156 C 12.898438 -8.480469 12.972656 -8.601562 12.972656 -8.742188 L 12.972656 -13.988281 C 12.972656 -14.128906 12.898438 -14.222656 12.757812 -14.292969 C 12.617188 -14.363281 12.5 -14.363281 12.378906 -14.292969 C 11.957031 -13.894531 11.460938 -13.703125 10.890625 -13.703125 L 8.8125 -13.703125 C 8.648438 -13.703125 8.503906 -13.75 8.386719 -13.867188 C 8.269531 -13.964844 8.222656 -14.105469 8.222656 -14.292969 L 8.222656 -17.839844 C 8.222656 -18.003906 8.269531 -18.144531 8.386719 -18.261719 C 8.503906 -18.359375 8.648438 -18.429688 8.8125 -18.429688 L 15.757812 -18.429688 C 16.324219 -18.429688 16.824219 -18.214844 17.246094 -17.839844 C 17.34375 -17.71875 17.484375 -17.695312 17.625 -17.765625 C 17.765625 -17.816406 17.839844 -17.933594 17.839844 -18.097656 L 17.839844 -23.390625 C 17.839844 -23.53125 17.742188 -23.652344 17.601562 -23.722656 C 17.460938 -23.769531 17.320312 -23.746094 17.199219 -23.652344 Z M 17.199219 -23.652344 "/></g></g></g><g fill="#ffc1b2" fill-opacity="0.302"><g transform="translate(185.235198, 78.408667)"><g><path d="M 19.421875 -17.671875 L 19.304688 -17.816406 C 18.972656 -18.144531 18.757812 -18.523438 18.617188 -18.949219 C 18.191406 -20.273438 17.320312 -21.359375 16.042969 -22.210938 C 15.332031 -22.65625 14.53125 -23.011719 13.632812 -23.25 C 12.734375 -23.484375 11.8125 -23.601562 10.820312 -23.601562 C 9.828125 -23.601562 8.859375 -23.460938 7.9375 -23.226562 C 7.015625 -22.988281 6.191406 -22.632812 5.457031 -22.1875 C 4.464844 -21.570312 3.734375 -20.839844 3.214844 -19.964844 C 2.695312 -19.089844 2.457031 -18.144531 2.457031 -17.105469 C 2.457031 -15.121094 3.378906 -13.421875 5.269531 -12.027344 C 5.929688 -11.507812 6.640625 -11.082031 7.417969 -10.703125 C 8.199219 -10.324219 9 -9.945312 9.804688 -9.617188 C 10.277344 -9.378906 10.796875 -9.144531 11.316406 -8.90625 C 11.835938 -8.671875 12.308594 -8.410156 12.734375 -8.175781 C 13.160156 -7.914062 13.515625 -7.65625 13.796875 -7.394531 C 14.082031 -7.113281 14.222656 -6.851562 14.222656 -6.59375 C 14.222656 -6.261719 14.105469 -5.953125 13.867188 -5.71875 C 13.632812 -5.480469 13.324219 -5.269531 12.972656 -5.128906 C 12.617188 -4.984375 12.238281 -4.867188 11.8125 -4.796875 C 11.386719 -4.703125 11.011719 -4.679688 10.632812 -4.679688 C 10.160156 -4.679688 9.6875 -4.726562 9.167969 -4.84375 C 8.648438 -4.9375 8.199219 -5.128906 7.84375 -5.386719 C 7.75 -5.457031 7.679688 -5.550781 7.679688 -5.671875 C 7.65625 -5.789062 7.679688 -5.882812 7.773438 -5.976562 L 7.796875 -6 C 7.867188 -6.121094 7.867188 -6.238281 7.820312 -6.378906 C 7.75 -6.519531 7.632812 -6.59375 7.488281 -6.59375 L 2.269531 -6.59375 C 2.101562 -6.59375 1.984375 -6.519531 1.9375 -6.378906 C 1.867188 -6.238281 1.867188 -6.121094 1.960938 -6 L 2.054688 -5.90625 C 2.386719 -5.527344 2.597656 -5.128906 2.742188 -4.726562 C 3.164062 -3.355469 4.015625 -2.269531 5.339844 -1.441406 C 6.046875 -0.96875 6.875 -0.613281 7.773438 -0.378906 C 8.671875 -0.117188 9.640625 0 10.632812 0 C 11.8125 0 12.925781 -0.164062 13.941406 -0.496094 C 14.957031 -0.828125 15.828125 -1.277344 16.5625 -1.867188 C 17.292969 -2.433594 17.863281 -3.140625 18.289062 -3.945312 C 18.6875 -4.75 18.902344 -5.625 18.902344 -6.59375 C 18.902344 -7.609375 18.664062 -8.503906 18.214844 -9.261719 C 17.765625 -10.019531 17.199219 -10.679688 16.492188 -11.246094 C 15.78125 -11.8125 15.027344 -12.285156 14.175781 -12.710938 C 13.324219 -13.136719 12.5 -13.515625 11.695312 -13.894531 C 11.152344 -14.128906 10.609375 -14.363281 10.066406 -14.625 C 9.523438 -14.859375 9.027344 -15.121094 8.601562 -15.40625 C 8.175781 -15.664062 7.820312 -15.949219 7.535156 -16.230469 C 7.253906 -16.515625 7.136719 -16.796875 7.136719 -17.105469 C 7.136719 -17.367188 7.230469 -17.601562 7.464844 -17.839844 C 7.679688 -18.074219 7.960938 -18.261719 8.316406 -18.429688 C 8.648438 -18.570312 9.050781 -18.6875 9.496094 -18.785156 C 9.921875 -18.878906 10.371094 -18.925781 10.820312 -18.925781 C 11.339844 -18.925781 11.859375 -18.855469 12.332031 -18.757812 C 12.804688 -18.640625 13.183594 -18.476562 13.515625 -18.261719 C 13.609375 -18.191406 13.679688 -18.097656 13.679688 -17.980469 C 13.679688 -17.863281 13.65625 -17.765625 13.585938 -17.695312 L 13.585938 -17.671875 C 13.492188 -17.53125 13.492188 -17.414062 13.5625 -17.292969 C 13.609375 -17.152344 13.726562 -17.105469 13.894531 -17.105469 L 19.113281 -17.105469 C 19.257812 -17.105469 19.375 -17.152344 19.445312 -17.292969 C 19.492188 -17.414062 19.492188 -17.53125 19.421875 -17.671875 Z M 19.421875 -17.671875 "/></g></g></g><g fill="#ffc1b2" fill-opacity="0.502"><g transform="translate(101.678865, 78.674096)"><g><path d="M 19.421875 -17.671875 L 19.304688 -17.816406 C 18.972656 -18.144531 18.757812 -18.523438 18.617188 -18.949219 C 18.191406 -20.273438 17.320312 -21.359375 16.042969 -22.210938 C 15.332031 -22.65625 14.53125 -23.011719 13.632812 -23.25 C 12.734375 -23.484375 11.8125 -23.601562 10.820312 -23.601562 C 9.828125 -23.601562 8.859375 -23.460938 7.9375 -23.226562 C 7.015625 -22.988281 6.191406 -22.632812 5.457031 -22.1875 C 4.464844 -21.570312 3.734375 -20.839844 3.214844 -19.964844 C 2.695312 -19.089844 2.457031 -18.144531 2.457031 -17.105469 C 2.457031 -15.121094 3.378906 -13.421875 5.269531 -12.027344 C 5.929688 -11.507812 6.640625 -11.082031 7.417969 -10.703125 C 8.199219 -10.324219 9 -9.945312 9.804688 -9.617188 C 10.277344 -9.378906 10.796875 -9.144531 11.316406 -8.90625 C 11.835938 -8.671875 12.308594 -8.410156 12.734375 -8.175781 C 13.160156 -7.914062 13.515625 -7.65625 13.796875 -7.394531 C 14.082031 -7.113281 14.222656 -6.851562 14.222656 -6.59375 C 14.222656 -6.261719 14.105469 -5.953125 13.867188 -5.71875 C 13.632812 -5.480469 13.324219 -5.269531 12.972656 -5.128906 C 12.617188 -4.984375 12.238281 -4.867188 11.8125 -4.796875 C 11.386719 -4.703125 11.011719 -4.679688 10.632812 -4.679688 C 10.160156 -4.679688 9.6875 -4.726562 9.167969 -4.84375 C 8.648438 -4.9375 8.199219 -5.128906 7.84375 -5.386719 C 7.75 -5.457031 7.679688 -5.550781 7.679688 -5.671875 C 7.65625 -5.789062 7.679688 -5.882812 7.773438 -5.976562 L 7.796875 -6 C 7.867188 -6.121094 7.867188 -6.238281 7.820312 -6.378906 C 7.75 -6.519531 7.632812 -6.59375 7.488281 -6.59375 L 2.269531 -6.59375 C 2.101562 -6.59375 1.984375 -6.519531 1.9375 -6.378906 C 1.867188 -6.238281 1.867188 -6.121094 1.960938 -6 L 2.054688 -5.90625 C 2.386719 -5.527344 2.597656 -5.128906 2.742188 -4.726562 C 3.164062 -3.355469 4.015625 -2.269531 5.339844 -1.441406 C 6.046875 -0.96875 6.875 -0.613281 7.773438 -0.378906 C 8.671875 -0.117188 9.640625 0 10.632812 0 C 11.8125 0 12.925781 -0.164062 13.941406 -0.496094 C 14.957031 -0.828125 15.828125 -1.277344 16.5625 -1.867188 C 17.292969 -2.433594 17.863281 -3.140625 18.289062 -3.945312 C 18.6875 -4.75 18.902344 -5.625 18.902344 -6.59375 C 18.902344 -7.609375 18.664062 -8.503906 18.214844 -9.261719 C 17.765625 -10.019531 17.199219 -10.679688 16.492188 -11.246094 C 15.78125 -11.8125 15.027344 -12.285156 14.175781 -12.710938 C 13.324219 -13.136719 12.5 -13.515625 11.695312 -13.894531 C 11.152344 -14.128906 10.609375 -14.363281 10.066406 -14.625 C 9.523438 -14.859375 9.027344 -15.121094 8.601562 -15.40625 C 8.175781 -15.664062 7.820312 -15.949219 7.535156 -16.230469 C 7.253906 -16.515625 7.136719 -16.796875 7.136719 -17.105469 C 7.136719 -17.367188 7.230469 -17.601562 7.464844 -17.839844 C 7.679688 -18.074219 7.960938 -18.261719 8.316406 -18.429688 C 8.648438 -18.570312 9.050781 -18.6875 9.496094 -18.785156 C 9.921875 -18.878906 10.371094 -18.925781 10.820312 -18.925781 C 11.339844 -18.925781 11.859375 -18.855469 12.332031 -18.757812 C 12.804688 -18.640625 13.183594 -18.476562 13.515625 -18.261719 C 13.609375 -18.191406 13.679688 -18.097656 13.679688 -17.980469 C 13.679688 -17.863281 13.65625 -17.765625 13.585938 -17.695312 L 13.585938 -17.671875 C 13.492188 -17.53125 13.492188 -17.414062 13.5625 -17.292969 C 13.609375 -17.152344 13.726562 -17.105469 13.894531 -17.105469 L 19.113281 -17.105469 C 19.257812 -17.105469 19.375 -17.152344 19.445312 -17.292969 C 19.492188 -17.414062 19.492188 -17.53125 19.421875 -17.671875 Z M 19.421875 -17.671875 "/></g></g></g><g fill="#ffc1b2" fill-opacity="0.502"><g transform="translate(123.060957, 78.674096)"><g><path d="M 21.5 -0.425781 C 21.5 -0.519531 21.453125 -0.589844 21.382812 -0.636719 C 20.839844 -1.085938 20.484375 -1.652344 20.296875 -2.363281 L 14.648438 -21.878906 C 14.53125 -22.257812 14.601562 -22.609375 14.886719 -22.894531 C 14.957031 -23.011719 14.957031 -23.128906 14.910156 -23.273438 C 14.835938 -23.414062 14.71875 -23.484375 14.578125 -23.484375 L 8.339844 -23.484375 C 8.199219 -23.484375 8.082031 -23.414062 8.007812 -23.273438 C 7.9375 -23.128906 7.9375 -23.011719 8.03125 -22.894531 C 8.316406 -22.609375 8.386719 -22.257812 8.269531 -21.878906 L 2.644531 -2.339844 C 2.457031 -1.675781 2.078125 -1.109375 1.535156 -0.636719 C 1.464844 -0.566406 1.417969 -0.496094 1.417969 -0.425781 C 1.394531 -0.308594 1.417969 -0.210938 1.488281 -0.117188 C 1.558594 -0.0234375 1.652344 0 1.796875 0 L 7.277344 0 C 7.417969 0 7.535156 -0.046875 7.585938 -0.1875 C 7.632812 -0.332031 7.632812 -0.449219 7.535156 -0.566406 C 7.253906 -0.851562 7.183594 -1.203125 7.277344 -1.582031 L 8.007812 -4.039062 C 8.082031 -4.300781 8.222656 -4.511719 8.433594 -4.65625 C 8.625 -4.796875 8.859375 -4.890625 9.144531 -4.890625 L 13.796875 -4.890625 C 14.058594 -4.890625 14.292969 -4.796875 14.507812 -4.65625 C 14.695312 -4.511719 14.835938 -4.300781 14.933594 -4.039062 L 15.640625 -1.582031 C 15.734375 -1.203125 15.640625 -0.875 15.40625 -0.589844 L 15.40625 -0.566406 C 15.308594 -0.425781 15.308594 -0.308594 15.382812 -0.1875 C 15.429688 -0.046875 15.546875 0 15.710938 0 L 21.144531 0 C 21.265625 0 21.359375 -0.0234375 21.429688 -0.117188 C 21.5 -0.210938 21.523438 -0.308594 21.5 -0.425781 Z M 12.996094 -9.570312 L 9.945312 -9.570312 C 9.851562 -9.570312 9.78125 -9.59375 9.734375 -9.664062 C 9.664062 -9.734375 9.640625 -9.828125 9.6875 -9.921875 L 11.222656 -15.191406 C 11.246094 -15.308594 11.316406 -15.382812 11.460938 -15.382812 C 11.601562 -15.382812 11.671875 -15.308594 11.71875 -15.191406 L 13.230469 -9.921875 C 13.253906 -9.828125 13.230469 -9.734375 13.183594 -9.664062 C 13.136719 -9.59375 13.066406 -9.570312 12.996094 -9.570312 Z M 12.996094 -9.570312 "/></g></g></g><g fill="#ffc1b2" fill-opacity="0.502"><g transform="translate(146.002405, 78.674096)"><g><path d="M 17.175781 -5.222656 L 16.894531 -4.984375 C 16.632812 -4.75 16.351562 -4.65625 16.042969 -4.65625 L 8.71875 -4.65625 C 8.554688 -4.65625 8.410156 -4.703125 8.316406 -4.796875 C 8.199219 -4.890625 8.152344 -5.03125 8.152344 -5.222656 L 8.152344 -21.382812 C 8.152344 -21.925781 8.339844 -22.421875 8.71875 -22.847656 L 8.742188 -22.871094 C 8.8125 -22.988281 8.8125 -23.105469 8.765625 -23.25 C 8.695312 -23.367188 8.578125 -23.4375 8.433594 -23.4375 L 3.214844 -23.4375 C 3.046875 -23.4375 2.929688 -23.367188 2.882812 -23.25 C 2.8125 -23.105469 2.8125 -22.988281 2.90625 -22.871094 C 3.285156 -22.445312 3.472656 -21.949219 3.472656 -21.40625 L 3.472656 -0.519531 C 3.472656 -0.355469 3.519531 -0.210938 3.636719 -0.117188 C 3.734375 0 3.875 0.046875 4.039062 0.046875 L 16.042969 0.046875 C 16.351562 0.046875 16.632812 0.164062 16.894531 0.378906 L 17.175781 0.613281 C 17.292969 0.707031 17.414062 0.707031 17.554688 0.636719 C 17.671875 0.589844 17.742188 0.472656 17.742188 0.308594 L 17.742188 -4.914062 C 17.742188 -5.054688 17.671875 -5.175781 17.554688 -5.246094 C 17.414062 -5.292969 17.292969 -5.292969 17.175781 -5.222656 Z M 17.175781 -5.222656 "/></g></g></g><g fill="#ffc1b2" fill-opacity="0.502"><g transform="translate(165.187223, 78.674096)"><g><path d="M 17.199219 -23.652344 C 16.796875 -23.273438 16.324219 -23.105469 15.804688 -23.105469 L 3.214844 -23.105469 C 3.046875 -23.105469 2.929688 -23.035156 2.882812 -22.894531 C 2.8125 -22.753906 2.8125 -22.632812 2.90625 -22.515625 L 2.976562 -22.445312 C 3.355469 -22.019531 3.542969 -21.523438 3.542969 -20.957031 L 3.542969 -1.773438 C 3.542969 -1.488281 3.496094 -1.230469 3.402344 -0.96875 C 3.308594 -0.707031 3.164062 -0.472656 2.976562 -0.285156 L 2.90625 -0.210938 C 2.8125 -0.0703125 2.8125 0.046875 2.882812 0.1875 C 2.929688 0.332031 3.046875 0.378906 3.214844 0.378906 L 15.804688 0.378906 C 16.324219 0.378906 16.796875 0.566406 17.199219 0.921875 C 17.320312 1.039062 17.460938 1.0625 17.601562 0.992188 C 17.742188 0.945312 17.839844 0.828125 17.839844 0.636719 L 17.839844 -4.632812 C 17.839844 -4.773438 17.765625 -4.890625 17.625 -4.960938 C 17.484375 -5.007812 17.34375 -4.984375 17.246094 -4.890625 C 16.824219 -4.488281 16.324219 -4.300781 15.757812 -4.300781 L 8.8125 -4.300781 C 8.648438 -4.300781 8.503906 -4.347656 8.386719 -4.464844 C 8.269531 -4.558594 8.222656 -4.703125 8.222656 -4.890625 L 8.222656 -8.433594 C 8.222656 -8.601562 8.269531 -8.742188 8.386719 -8.859375 C 8.503906 -8.953125 8.648438 -9.027344 8.8125 -9.027344 L 10.890625 -9.027344 C 11.460938 -9.027344 11.957031 -8.8125 12.378906 -8.433594 C 12.5 -8.339844 12.617188 -8.339844 12.757812 -8.410156 C 12.898438 -8.480469 12.972656 -8.601562 12.972656 -8.742188 L 12.972656 -13.988281 C 12.972656 -14.128906 12.898438 -14.222656 12.757812 -14.292969 C 12.617188 -14.363281 12.5 -14.363281 12.378906 -14.292969 C 11.957031 -13.894531 11.460938 -13.703125 10.890625 -13.703125 L 8.8125 -13.703125 C 8.648438 -13.703125 8.503906 -13.75 8.386719 -13.867188 C 8.269531 -13.964844 8.222656 -14.105469 8.222656 -14.292969 L 8.222656 -17.839844 C 8.222656 -18.003906 8.269531 -18.144531 8.386719 -18.261719 C 8.503906 -18.359375 8.648438 -18.429688 8.8125 -18.429688 L 15.757812 -18.429688 C 16.324219 -18.429688 16.824219 -18.214844 17.246094 -17.839844 C 17.34375 -17.71875 17.484375 -17.695312 17.625 -17.765625 C 17.765625 -17.816406 17.839844 -17.933594 17.839844 -18.097656 L 17.839844 -23.390625 C 17.839844 -23.53125 17.742188 -23.652344 17.601562 -23.722656 C 17.460938 -23.769531 17.320312 -23.746094 17.199219 -23.652344 Z M 17.199219 -23.652344 "/></g></g></g><g fill="#ffc1b2" fill-opacity="0.502"><g transform="translate(185.860516, 78.674096)"><g><path d="M 19.421875 -17.671875 L 19.304688 -17.816406 C 18.972656 -18.144531 18.757812 -18.523438 18.617188 -18.949219 C 18.191406 -20.273438 17.320312 -21.359375 16.042969 -22.210938 C 15.332031 -22.65625 14.53125 -23.011719 13.632812 -23.25 C 12.734375 -23.484375 11.8125 -23.601562 10.820312 -23.601562 C 9.828125 -23.601562 8.859375 -23.460938 7.9375 -23.226562 C 7.015625 -22.988281 6.191406 -22.632812 5.457031 -22.1875 C 4.464844 -21.570312 3.734375 -20.839844 3.214844 -19.964844 C 2.695312 -19.089844 2.457031 -18.144531 2.457031 -17.105469 C 2.457031 -15.121094 3.378906 -13.421875 5.269531 -12.027344 C 5.929688 -11.507812 6.640625 -11.082031 7.417969 -10.703125 C 8.199219 -10.324219 9 -9.945312 9.804688 -9.617188 C 10.277344 -9.378906 10.796875 -9.144531 11.316406 -8.90625 C 11.835938 -8.671875 12.308594 -8.410156 12.734375 -8.175781 C 13.160156 -7.914062 13.515625 -7.65625 13.796875 -7.394531 C 14.082031 -7.113281 14.222656 -6.851562 14.222656 -6.59375 C 14.222656 -6.261719 14.105469 -5.953125 13.867188 -5.71875 C 13.632812 -5.480469 13.324219 -5.269531 12.972656 -5.128906 C 12.617188 -4.984375 12.238281 -4.867188 11.8125 -4.796875 C 11.386719 -4.703125 11.011719 -4.679688 10.632812 -4.679688 C 10.160156 -4.679688 9.6875 -4.726562 9.167969 -4.84375 C 8.648438 -4.9375 8.199219 -5.128906 7.84375 -5.386719 C 7.75 -5.457031 7.679688 -5.550781 7.679688 -5.671875 C 7.65625 -5.789062 7.679688 -5.882812 7.773438 -5.976562 L 7.796875 -6 C 7.867188 -6.121094 7.867188 -6.238281 7.820312 -6.378906 C 7.75 -6.519531 7.632812 -6.59375 7.488281 -6.59375 L 2.269531 -6.59375 C 2.101562 -6.59375 1.984375 -6.519531 1.9375 -6.378906 C 1.867188 -6.238281 1.867188 -6.121094 1.960938 -6 L 2.054688 -5.90625 C 2.386719 -5.527344 2.597656 -5.128906 2.742188 -4.726562 C 3.164062 -3.355469 4.015625 -2.269531 5.339844 -1.441406 C 6.046875 -0.96875 6.875 -0.613281 7.773438 -0.378906 C 8.671875 -0.117188 9.640625 0 10.632812 0 C 11.8125 0 12.925781 -0.164062 13.941406 -0.496094 C 14.957031 -0.828125 15.828125 -1.277344 16.5625 -1.867188 C 17.292969 -2.433594 17.863281 -3.140625 18.289062 -3.945312 C 18.6875 -4.75 18.902344 -5.625 18.902344 -6.59375 C 18.902344 -7.609375 18.664062 -8.503906 18.214844 -9.261719 C 17.765625 -10.019531 17.199219 -10.679688 16.492188 -11.246094 C 15.78125 -11.8125 15.027344 -12.285156 14.175781 -12.710938 C 13.324219 -13.136719 12.5 -13.515625 11.695312 -13.894531 C 11.152344 -14.128906 10.609375 -14.363281 10.066406 -14.625 C 9.523438 -14.859375 9.027344 -15.121094 8.601562 -15.40625 C 8.175781 -15.664062 7.820312 -15.949219 7.535156 -16.230469 C 7.253906 -16.515625 7.136719 -16.796875 7.136719 -17.105469 C 7.136719 -17.367188 7.230469 -17.601562 7.464844 -17.839844 C 7.679688 -18.074219 7.960938 -18.261719 8.316406 -18.429688 C 8.648438 -18.570312 9.050781 -18.6875 9.496094 -18.785156 C 9.921875 -18.878906 10.371094 -18.925781 10.820312 -18.925781 C 11.339844 -18.925781 11.859375 -18.855469 12.332031 -18.757812 C 12.804688 -18.640625 13.183594 -18.476562 13.515625 -18.261719 C 13.609375 -18.191406 13.679688 -18.097656 13.679688 -17.980469 C 13.679688 -17.863281 13.65625 -17.765625 13.585938 -17.695312 L 13.585938 -17.671875 C 13.492188 -17.53125 13.492188 -17.414062 13.5625 -17.292969 C 13.609375 -17.152344 13.726562 -17.105469 13.894531 -17.105469 L 19.113281 -17.105469 C 19.257812 -17.105469 19.375 -17.152344 19.445312 -17.292969 C 19.492188 -17.414062 19.492188 -17.53125 19.421875 -17.671875 Z M 19.421875 -17.671875 "/></g></g></g><g fill="#737373" fill-opacity="1"><g transform="translate(102.304173, 78.939524)"><g><path d="M 19.421875 -17.671875 L 19.304688 -17.816406 C 18.972656 -18.144531 18.757812 -18.523438 18.617188 -18.949219 C 18.191406 -20.273438 17.320312 -21.359375 16.042969 -22.210938 C 15.332031 -22.65625 14.53125 -23.011719 13.632812 -23.25 C 12.734375 -23.484375 11.8125 -23.601562 10.820312 -23.601562 C 9.828125 -23.601562 8.859375 -23.460938 7.9375 -23.226562 C 7.015625 -22.988281 6.191406 -22.632812 5.457031 -22.1875 C 4.464844 -21.570312 3.734375 -20.839844 3.214844 -19.964844 C 2.695312 -19.089844 2.457031 -18.144531 2.457031 -17.105469 C 2.457031 -15.121094 3.378906 -13.421875 5.269531 -12.027344 C 5.929688 -11.507812 6.640625 -11.082031 7.417969 -10.703125 C 8.199219 -10.324219 9 -9.945312 9.804688 -9.617188 C 10.277344 -9.378906 10.796875 -9.144531 11.316406 -8.90625 C 11.835938 -8.671875 12.308594 -8.410156 12.734375 -8.175781 C 13.160156 -7.914062 13.515625 -7.65625 13.796875 -7.394531 C 14.082031 -7.113281 14.222656 -6.851562 14.222656 -6.59375 C 14.222656 -6.261719 14.105469 -5.953125 13.867188 -5.71875 C 13.632812 -5.480469 13.324219 -5.269531 12.972656 -5.128906 C 12.617188 -4.984375 12.238281 -4.867188 11.8125 -4.796875 C 11.386719 -4.703125 11.011719 -4.679688 10.632812 -4.679688 C 10.160156 -4.679688 9.6875 -4.726562 9.167969 -4.84375 C 8.648438 -4.9375 8.199219 -5.128906 7.84375 -5.386719 C 7.75 -5.457031 7.679688 -5.550781 7.679688 -5.671875 C 7.65625 -5.789062 7.679688 -5.882812 7.773438 -5.976562 L 7.796875 -6 C 7.867188 -6.121094 7.867188 -6.238281 7.820312 -6.378906 C 7.75 -6.519531 7.632812 -6.59375 7.488281 -6.59375 L 2.269531 -6.59375 C 2.101562 -6.59375 1.984375 -6.519531 1.9375 -6.378906 C 1.867188 -6.238281 1.867188 -6.121094 1.960938 -6 L 2.054688 -5.90625 C 2.386719 -5.527344 2.597656 -5.128906 2.742188 -4.726562 C 3.164062 -3.355469 4.015625 -2.269531 5.339844 -1.441406 C 6.046875 -0.96875 6.875 -0.613281 7.773438 -0.378906 C 8.671875 -0.117188 9.640625 0 10.632812 0 C 11.8125 0 12.925781 -0.164062 13.941406 -0.496094 C 14.957031 -0.828125 15.828125 -1.277344 16.5625 -1.867188 C 17.292969 -2.433594 17.863281 -3.140625 18.289062 -3.945312 C 18.6875 -4.75 18.902344 -5.625 18.902344 -6.59375 C 18.902344 -7.609375 18.664062 -8.503906 18.214844 -9.261719 C 17.765625 -10.019531 17.199219 -10.679688 16.492188 -11.246094 C 15.78125 -11.8125 15.027344 -12.285156 14.175781 -12.710938 C 13.324219 -13.136719 12.5 -13.515625 11.695312 -13.894531 C 11.152344 -14.128906 10.609375 -14.363281 10.066406 -14.625 C 9.523438 -14.859375 9.027344 -15.121094 8.601562 -15.40625 C 8.175781 -15.664062 7.820312 -15.949219 7.535156 -16.230469 C 7.253906 -16.515625 7.136719 -16.796875 7.136719 -17.105469 C 7.136719 -17.367188 7.230469 -17.601562 7.464844 -17.839844 C 7.679688 -18.074219 7.960938 -18.261719 8.316406 -18.429688 C 8.648438 -18.570312 9.050781 -18.6875 9.496094 -18.785156 C 9.921875 -18.878906 10.371094 -18.925781 10.820312 -18.925781 C 11.339844 -18.925781 11.859375 -18.855469 12.332031 -18.757812 C 12.804688 -18.640625 13.183594 -18.476562 13.515625 -18.261719 C 13.609375 -18.191406 13.679688 -18.097656 13.679688 -17.980469 C 13.679688 -17.863281 13.65625 -17.765625 13.585938 -17.695312 L 13.585938 -17.671875 C 13.492188 -17.53125 13.492188 -17.414062 13.5625 -17.292969 C 13.609375 -17.152344 13.726562 -17.105469 13.894531 -17.105469 L 19.113281 -17.105469 C 19.257812 -17.105469 19.375 -17.152344 19.445312 -17.292969 C 19.492188 -17.414062 19.492188 -17.53125 19.421875 -17.671875 Z M 19.421875 -17.671875 "/></g></g></g><g fill="#737373" fill-opacity="1"><g transform="translate(123.686265, 78.939524)"><g><path d="M 21.5 -0.425781 C 21.5 -0.519531 21.453125 -0.589844 21.382812 -0.636719 C 20.839844 -1.085938 20.484375 -1.652344 20.296875 -2.363281 L 14.648438 -21.878906 C 14.53125 -22.257812 14.601562 -22.609375 14.886719 -22.894531 C 14.957031 -23.011719 14.957031 -23.128906 14.910156 -23.273438 C 14.835938 -23.414062 14.71875 -23.484375 14.578125 -23.484375 L 8.339844 -23.484375 C 8.199219 -23.484375 8.082031 -23.414062 8.007812 -23.273438 C 7.9375 -23.128906 7.9375 -23.011719 8.03125 -22.894531 C 8.316406 -22.609375 8.386719 -22.257812 8.269531 -21.878906 L 2.644531 -2.339844 C 2.457031 -1.675781 2.078125 -1.109375 1.535156 -0.636719 C 1.464844 -0.566406 1.417969 -0.496094 1.417969 -0.425781 C 1.394531 -0.308594 1.417969 -0.210938 1.488281 -0.117188 C 1.558594 -0.0234375 1.652344 0 1.796875 0 L 7.277344 0 C 7.417969 0 7.535156 -0.046875 7.585938 -0.1875 C 7.632812 -0.332031 7.632812 -0.449219 7.535156 -0.566406 C 7.253906 -0.851562 7.183594 -1.203125 7.277344 -1.582031 L 8.007812 -4.039062 C 8.082031 -4.300781 8.222656 -4.511719 8.433594 -4.65625 C 8.625 -4.796875 8.859375 -4.890625 9.144531 -4.890625 L 13.796875 -4.890625 C 14.058594 -4.890625 14.292969 -4.796875 14.507812 -4.65625 C 14.695312 -4.511719 14.835938 -4.300781 14.933594 -4.039062 L 15.640625 -1.582031 C 15.734375 -1.203125 15.640625 -0.875 15.40625 -0.589844 L 15.40625 -0.566406 C 15.308594 -0.425781 15.308594 -0.308594 15.382812 -0.1875 C 15.429688 -0.046875 15.546875 0 15.710938 0 L 21.144531 0 C 21.265625 0 21.359375 -0.0234375 21.429688 -0.117188 C 21.5 -0.210938 21.523438 -0.308594 21.5 -0.425781 Z M 12.996094 -9.570312 L 9.945312 -9.570312 C 9.851562 -9.570312 9.78125 -9.59375 9.734375 -9.664062 C 9.664062 -9.734375 9.640625 -9.828125 9.6875 -9.921875 L 11.222656 -15.191406 C 11.246094 -15.308594 11.316406 -15.382812 11.460938 -15.382812 C 11.601562 -15.382812 11.671875 -15.308594 11.71875 -15.191406 L 13.230469 -9.921875 C 13.253906 -9.828125 13.230469 -9.734375 13.183594 -9.664062 C 13.136719 -9.59375 13.066406 -9.570312 12.996094 -9.570312 Z M 12.996094 -9.570312 "/></g></g></g><g fill="#737373" fill-opacity="1"><g transform="translate(146.627713, 78.939524)"><g><path d="M 17.175781 -5.222656 L 16.894531 -4.984375 C 16.632812 -4.75 16.351562 -4.65625 16.042969 -4.65625 L 8.71875 -4.65625 C 8.554688 -4.65625 8.410156 -4.703125 8.316406 -4.796875 C 8.199219 -4.890625 8.152344 -5.03125 8.152344 -5.222656 L 8.152344 -21.382812 C 8.152344 -21.925781 8.339844 -22.421875 8.71875 -22.847656 L 8.742188 -22.871094 C 8.8125 -22.988281 8.8125 -23.105469 8.765625 -23.25 C 8.695312 -23.367188 8.578125 -23.4375 8.433594 -23.4375 L 3.214844 -23.4375 C 3.046875 -23.4375 2.929688 -23.367188 2.882812 -23.25 C 2.8125 -23.105469 2.8125 -22.988281 2.90625 -22.871094 C 3.285156 -22.445312 3.472656 -21.949219 3.472656 -21.40625 L 3.472656 -0.519531 C 3.472656 -0.355469 3.519531 -0.210938 3.636719 -0.117188 C 3.734375 0 3.875 0.046875 4.039062 0.046875 L 16.042969 0.046875 C 16.351562 0.046875 16.632812 0.164062 16.894531 0.378906 L 17.175781 0.613281 C 17.292969 0.707031 17.414062 0.707031 17.554688 0.636719 C 17.671875 0.589844 17.742188 0.472656 17.742188 0.308594 L 17.742188 -4.914062 C 17.742188 -5.054688 17.671875 -5.175781 17.554688 -5.246094 C 17.414062 -5.292969 17.292969 -5.292969 17.175781 -5.222656 Z M 17.175781 -5.222656 "/></g></g></g><g fill="#737373" fill-opacity="1"><g transform="translate(165.812531, 78.939524)"><g><path d="M 17.199219 -23.652344 C 16.796875 -23.273438 16.324219 -23.105469 15.804688 -23.105469 L 3.214844 -23.105469 C 3.046875 -23.105469 2.929688 -23.035156 2.882812 -22.894531 C 2.8125 -22.753906 2.8125 -22.632812 2.90625 -22.515625 L 2.976562 -22.445312 C 3.355469 -22.019531 3.542969 -21.523438 3.542969 -20.957031 L 3.542969 -1.773438 C 3.542969 -1.488281 3.496094 -1.230469 3.402344 -0.96875 C 3.308594 -0.707031 3.164062 -0.472656 2.976562 -0.285156 L 2.90625 -0.210938 C 2.8125 -0.0703125 2.8125 0.046875 2.882812 0.1875 C 2.929688 0.332031 3.046875 0.378906 3.214844 0.378906 L 15.804688 0.378906 C 16.324219 0.378906 16.796875 0.566406 17.199219 0.921875 C 17.320312 1.039062 17.460938 1.0625 17.601562 0.992188 C 17.742188 0.945312 17.839844 0.828125 17.839844 0.636719 L 17.839844 -4.632812 C 17.839844 -4.773438 17.765625 -4.890625 17.625 -4.960938 C 17.484375 -5.007812 17.34375 -4.984375 17.246094 -4.890625 C 16.824219 -4.488281 16.324219 -4.300781 15.757812 -4.300781 L 8.8125 -4.300781 C 8.648438 -4.300781 8.503906 -4.347656 8.386719 -4.464844 C 8.269531 -4.558594 8.222656 -4.703125 8.222656 -4.890625 L 8.222656 -8.433594 C 8.222656 -8.601562 8.269531 -8.742188 8.386719 -8.859375 C 8.503906 -8.953125 8.648438 -9.027344 8.8125 -9.027344 L 10.890625 -9.027344 C 11.460938 -9.027344 11.957031 -8.8125 12.378906 -8.433594 C 12.5 -8.339844 12.617188 -8.339844 12.757812 -8.410156 C 12.898438 -8.480469 12.972656 -8.601562 12.972656 -8.742188 L 12.972656 -13.988281 C 12.972656 -14.128906 12.898438 -14.222656 12.757812 -14.292969 C 12.617188 -14.363281 12.5 -14.363281 12.378906 -14.292969 C 11.957031 -13.894531 11.460938 -13.703125 10.890625 -13.703125 L 8.8125 -13.703125 C 8.648438 -13.703125 8.503906 -13.75 8.386719 -13.867188 C 8.269531 -13.964844 8.222656 -14.105469 8.222656 -14.292969 L 8.222656 -17.839844 C 8.222656 -18.003906 8.269531 -18.144531 8.386719 -18.261719 C 8.503906 -18.359375 8.648438 -18.429688 8.8125 -18.429688 L 15.757812 -18.429688 C 16.324219 -18.429688 16.824219 -18.214844 17.246094 -17.839844 C 17.34375 -17.71875 17.484375 -17.695312 17.625 -17.765625 C 17.765625 -17.816406 17.839844 -17.933594 17.839844 -18.097656 L 17.839844 -23.390625 C 17.839844 -23.53125 17.742188 -23.652344 17.601562 -23.722656 C 17.460938 -23.769531 17.320312 -23.746094 17.199219 -23.652344 Z M 17.199219 -23.652344 "/></g></g></g><g fill="#737373" fill-opacity="1"><g transform="translate(186.485823, 78.939524)"><g><path d="M 19.421875 -17.671875 L 19.304688 -17.816406 C 18.972656 -18.144531 18.757812 -18.523438 18.617188 -18.949219 C 18.191406 -20.273438 17.320312 -21.359375 16.042969 -22.210938 C 15.332031 -22.65625 14.53125 -23.011719 13.632812 -23.25 C 12.734375 -23.484375 11.8125 -23.601562 10.820312 -23.601562 C 9.828125 -23.601562 8.859375 -23.460938 7.9375 -23.226562 C 7.015625 -22.988281 6.191406 -22.632812 5.457031 -22.1875 C 4.464844 -21.570312 3.734375 -20.839844 3.214844 -19.964844 C 2.695312 -19.089844 2.457031 -18.144531 2.457031 -17.105469 C 2.457031 -15.121094 3.378906 -13.421875 5.269531 -12.027344 C 5.929688 -11.507812 6.640625 -11.082031 7.417969 -10.703125 C 8.199219 -10.324219 9 -9.945312 9.804688 -9.617188 C 10.277344 -9.378906 10.796875 -9.144531 11.316406 -8.90625 C 11.835938 -8.671875 12.308594 -8.410156 12.734375 -8.175781 C 13.160156 -7.914062 13.515625 -7.65625 13.796875 -7.394531 C 14.082031 -7.113281 14.222656 -6.851562 14.222656 -6.59375 C 14.222656 -6.261719 14.105469 -5.953125 13.867188 -5.71875 C 13.632812 -5.480469 13.324219 -5.269531 12.972656 -5.128906 C 12.617188 -4.984375 12.238281 -4.867188 11.8125 -4.796875 C 11.386719 -4.703125 11.011719 -4.679688 10.632812 -4.679688 C 10.160156 -4.679688 9.6875 -4.726562 9.167969 -4.84375 C 8.648438 -4.9375 8.199219 -5.128906 7.84375 -5.386719 C 7.75 -5.457031 7.679688 -5.550781 7.679688 -5.671875 C 7.65625 -5.789062 7.679688 -5.882812 7.773438 -5.976562 L 7.796875 -6 C 7.867188 -6.121094 7.867188 -6.238281 7.820312 -6.378906 C 7.75 -6.519531 7.632812 -6.59375 7.488281 -6.59375 L 2.269531 -6.59375 C 2.101562 -6.59375 1.984375 -6.519531 1.9375 -6.378906 C 1.867188 -6.238281 1.867188 -6.121094 1.960938 -6 L 2.054688 -5.90625 C 2.386719 -5.527344 2.597656 -5.128906 2.742188 -4.726562 C 3.164062 -3.355469 4.015625 -2.269531 5.339844 -1.441406 C 6.046875 -0.96875 6.875 -0.613281 7.773438 -0.378906 C 8.671875 -0.117188 9.640625 0 10.632812 0 C 11.8125 0 12.925781 -0.164062 13.941406 -0.496094 C 14.957031 -0.828125 15.828125 -1.277344 16.5625 -1.867188 C 17.292969 -2.433594 17.863281 -3.140625 18.289062 -3.945312 C 18.6875 -4.75 18.902344 -5.625 18.902344 -6.59375 C 18.902344 -7.609375 18.664062 -8.503906 18.214844 -9.261719 C 17.765625 -10.019531 17.199219 -10.679688 16.492188 -11.246094 C 15.78125 -11.8125 15.027344 -12.285156 14.175781 -12.710938 C 13.324219 -13.136719 12.5 -13.515625 11.695312 -13.894531 C 11.152344 -14.128906 10.609375 -14.363281 10.066406 -14.625 C 9.523438 -14.859375 9.027344 -15.121094 8.601562 -15.40625 C 8.175781 -15.664062 7.820312 -15.949219 7.535156 -16.230469 C 7.253906 -16.515625 7.136719 -16.796875 7.136719 -17.105469 C 7.136719 -17.367188 7.230469 -17.601562 7.464844 -17.839844 C 7.679688 -18.074219 7.960938 -18.261719 8.316406 -18.429688 C 8.648438 -18.570312 9.050781 -18.6875 9.496094 -18.785156 C 9.921875 -18.878906 10.371094 -18.925781 10.820312 -18.925781 C 11.339844 -18.925781 11.859375 -18.855469 12.332031 -18.757812 C 12.804688 -18.640625 13.183594 -18.476562 13.515625 -18.261719 C 13.609375 -18.191406 13.679688 -18.097656 13.679688 -17.980469 C 13.679688 -17.863281 13.65625 -17.765625 13.585938 -17.695312 L 13.585938 -17.671875 C 13.492188 -17.53125 13.492188 -17.414062 13.5625 -17.292969 C 13.609375 -17.152344 13.726562 -17.105469 13.894531 -17.105469 L 19.113281 -17.105469 C 19.257812 -17.105469 19.375 -17.152344 19.445312 -17.292969 C 19.492188 -17.414062 19.492188 -17.53125 19.421875 -17.671875 Z M 19.421875 -17.671875 "/></g></g></g><g fill="#ffc1b2" fill-opacity="0.302"><g transform="translate(85.498452, 112.372972)"><g><path d="M 17.175781 -24.050781 C 16.75 -23.675781 16.277344 -23.484375 15.710938 -23.484375 L 3.214844 -23.484375 C 3.046875 -23.484375 2.929688 -23.414062 2.882812 -23.273438 C 2.8125 -23.128906 2.8125 -23.011719 2.90625 -22.894531 L 2.929688 -22.871094 C 3.308594 -22.445312 3.496094 -21.949219 3.496094 -21.40625 L 3.496094 -2.054688 C 3.496094 -1.488281 3.308594 -1.015625 2.929688 -0.589844 L 2.90625 -0.566406 C 2.8125 -0.425781 2.8125 -0.308594 2.882812 -0.1875 C 2.929688 -0.046875 3.046875 0 3.214844 0 L 8.433594 0 C 8.578125 0 8.695312 -0.046875 8.765625 -0.1875 C 8.8125 -0.308594 8.8125 -0.425781 8.742188 -0.566406 C 8.363281 -0.992188 8.175781 -1.464844 8.175781 -2.03125 L 8.175781 -8.90625 C 8.175781 -9.027344 8.222656 -9.144531 8.316406 -9.238281 C 8.410156 -9.332031 8.527344 -9.402344 8.671875 -9.402344 L 10.867188 -9.402344 C 11.433594 -9.402344 11.90625 -9.191406 12.308594 -8.8125 L 12.332031 -8.8125 C 12.453125 -8.71875 12.570312 -8.71875 12.710938 -8.789062 C 12.851562 -8.835938 12.925781 -8.953125 12.925781 -9.121094 L 12.925781 -14.339844 C 12.925781 -14.484375 12.851562 -14.601562 12.710938 -14.671875 C 12.570312 -14.742188 12.453125 -14.742188 12.332031 -14.648438 C 11.90625 -14.269531 11.433594 -14.082031 10.867188 -14.082031 L 8.671875 -14.082031 C 8.527344 -14.082031 8.410156 -14.128906 8.316406 -14.222656 C 8.222656 -14.316406 8.175781 -14.4375 8.175781 -14.578125 L 8.175781 -18.289062 C 8.175781 -18.429688 8.222656 -18.546875 8.316406 -18.640625 C 8.410156 -18.734375 8.527344 -18.785156 8.671875 -18.785156 L 15.710938 -18.785156 C 16.277344 -18.785156 16.75 -18.59375 17.175781 -18.214844 C 17.292969 -18.121094 17.414062 -18.121094 17.554688 -18.191406 C 17.695312 -18.238281 17.765625 -18.359375 17.765625 -18.523438 L 17.765625 -23.746094 C 17.765625 -23.886719 17.695312 -24.003906 17.554688 -24.074219 C 17.414062 -24.121094 17.292969 -24.121094 17.175781 -24.050781 Z M 17.175781 -24.050781 "/></g></g></g><g fill="#ffc1b2" fill-opacity="0.302"><g transform="translate(104.706894, 112.372972)"><g><path d="M 20.25 -23.460938 L 15.027344 -23.460938 C 14.859375 -23.460938 14.742188 -23.390625 14.695312 -23.273438 C 14.625 -23.128906 14.625 -23.011719 14.71875 -22.894531 C 15.097656 -22.445312 15.308594 -21.949219 15.308594 -21.40625 L 15.308594 -7.632812 C 15.308594 -6.898438 15.121094 -6.332031 14.789062 -5.953125 C 14.460938 -5.550781 14.082031 -5.269531 13.65625 -5.078125 C 13.230469 -4.890625 12.828125 -4.773438 12.453125 -4.726562 C 12.074219 -4.679688 11.835938 -4.679688 11.742188 -4.679688 C 11.648438 -4.679688 11.386719 -4.679688 11.011719 -4.726562 C 10.632812 -4.773438 10.230469 -4.890625 9.804688 -5.078125 C 9.378906 -5.269531 9 -5.550781 8.671875 -5.953125 C 8.339844 -6.332031 8.175781 -6.898438 8.175781 -7.632812 L 8.175781 -21.40625 C 8.175781 -21.972656 8.363281 -22.46875 8.742188 -22.894531 C 8.8125 -23.011719 8.8125 -23.128906 8.765625 -23.273438 C 8.695312 -23.390625 8.578125 -23.460938 8.433594 -23.460938 L 3.214844 -23.460938 C 3.046875 -23.460938 2.929688 -23.390625 2.882812 -23.273438 C 2.8125 -23.128906 2.8125 -23.011719 2.90625 -22.894531 C 3.285156 -22.46875 3.472656 -21.972656 3.472656 -21.40625 L 3.472656 -7.632812 C 3.472656 -6.449219 3.710938 -5.363281 4.183594 -4.371094 C 4.65625 -3.378906 5.316406 -2.527344 6.214844 -1.820312 C 6.96875 -1.203125 7.820312 -0.757812 8.765625 -0.449219 C 9.710938 -0.117188 10.703125 0.0234375 11.742188 0.0234375 C 12.78125 0.0234375 13.75 -0.117188 14.695312 -0.449219 C 15.640625 -0.757812 16.492188 -1.203125 17.246094 -1.820312 C 18.144531 -2.527344 18.808594 -3.378906 19.28125 -4.371094 C 19.753906 -5.363281 19.988281 -6.449219 19.988281 -7.632812 L 19.988281 -21.40625 C 19.988281 -21.925781 20.175781 -22.421875 20.554688 -22.894531 C 20.648438 -23.011719 20.648438 -23.128906 20.578125 -23.273438 C 20.507812 -23.390625 20.390625 -23.460938 20.25 -23.460938 Z M 20.25 -23.460938 "/></g></g></g><g fill="#ffc1b2" fill-opacity="0.302"><g transform="translate(128.191755, 112.372972)"><g><path d="M 22.019531 -0.589844 L 21.996094 -0.613281 C 21.617188 -0.992188 21.453125 -1.464844 21.453125 -2.03125 L 21.453125 -21.453125 C 21.453125 -21.996094 21.617188 -22.46875 21.996094 -22.871094 L 22.019531 -22.894531 C 22.089844 -23.011719 22.089844 -23.128906 22.042969 -23.273438 C 21.972656 -23.414062 21.855469 -23.484375 21.714844 -23.484375 L 16.492188 -23.484375 C 16.324219 -23.484375 16.207031 -23.414062 16.160156 -23.273438 C 16.089844 -23.128906 16.089844 -23.011719 16.183594 -22.894531 L 16.207031 -22.871094 C 16.5625 -22.46875 16.75 -21.996094 16.75 -21.453125 L 16.75 -9.710938 C 16.75 -9.617188 16.703125 -9.546875 16.609375 -9.523438 C 16.515625 -9.496094 16.445312 -9.523438 16.398438 -9.617188 L 9 -22.042969 C 8.8125 -22.328125 8.859375 -22.609375 9.097656 -22.894531 C 9.167969 -23.011719 9.167969 -23.128906 9.121094 -23.273438 C 9.050781 -23.414062 8.929688 -23.484375 8.789062 -23.484375 L 8.152344 -23.484375 L 8.152344 -23.460938 L 8.152344 -23.484375 L 3.214844 -23.484375 C 3.046875 -23.484375 2.929688 -23.414062 2.882812 -23.273438 C 2.8125 -23.128906 2.8125 -23.011719 2.90625 -22.894531 C 3.285156 -22.46875 3.472656 -21.996094 3.472656 -21.476562 L 3.472656 -2.007812 C 3.472656 -1.464844 3.285156 -0.992188 2.90625 -0.589844 C 2.8125 -0.449219 2.8125 -0.332031 2.882812 -0.1875 C 2.929688 -0.046875 3.046875 0 3.214844 0 L 8.433594 0 C 8.578125 0 8.695312 -0.046875 8.765625 -0.1875 C 8.8125 -0.332031 8.8125 -0.449219 8.742188 -0.589844 L 8.695312 -0.636719 C 8.316406 -1.015625 8.152344 -1.488281 8.152344 -2.054688 L 8.152344 -13.773438 C 8.152344 -13.867188 8.175781 -13.917969 8.269531 -13.941406 C 8.363281 -13.964844 8.433594 -13.941406 8.503906 -13.867188 L 15.925781 -1.417969 C 16.066406 -1.109375 16.042969 -0.828125 15.828125 -0.589844 C 15.734375 -0.449219 15.734375 -0.332031 15.804688 -0.1875 C 15.855469 -0.046875 15.972656 0 16.136719 0 L 21.714844 0 C 21.855469 0 21.972656 -0.046875 22.042969 -0.1875 C 22.089844 -0.332031 22.089844 -0.449219 22.019531 -0.589844 Z M 22.019531 -0.589844 "/></g></g></g><g fill="#ffc1b2" fill-opacity="0.302"><g transform="translate(153.117837, 112.372972)"><g><path d="M 22.019531 -0.589844 L 21.996094 -0.613281 C 21.617188 -0.992188 21.453125 -1.464844 21.453125 -2.03125 L 21.453125 -21.453125 C 21.453125 -21.996094 21.617188 -22.46875 21.996094 -22.871094 L 22.019531 -22.894531 C 22.089844 -23.011719 22.089844 -23.128906 22.042969 -23.273438 C 21.972656 -23.414062 21.855469 -23.484375 21.714844 -23.484375 L 16.492188 -23.484375 C 16.324219 -23.484375 16.207031 -23.414062 16.160156 -23.273438 C 16.089844 -23.128906 16.089844 -23.011719 16.183594 -22.894531 L 16.207031 -22.871094 C 16.5625 -22.46875 16.75 -21.996094 16.75 -21.453125 L 16.75 -9.710938 C 16.75 -9.617188 16.703125 -9.546875 16.609375 -9.523438 C 16.515625 -9.496094 16.445312 -9.523438 16.398438 -9.617188 L 9 -22.042969 C 8.8125 -22.328125 8.859375 -22.609375 9.097656 -22.894531 C 9.167969 -23.011719 9.167969 -23.128906 9.121094 -23.273438 C 9.050781 -23.414062 8.929688 -23.484375 8.789062 -23.484375 L 8.152344 -23.484375 L 8.152344 -23.460938 L 8.152344 -23.484375 L 3.214844 -23.484375 C 3.046875 -23.484375 2.929688 -23.414062 2.882812 -23.273438 C 2.8125 -23.128906 2.8125 -23.011719 2.90625 -22.894531 C 3.285156 -22.46875 3.472656 -21.996094 3.472656 -21.476562 L 3.472656 -2.007812 C 3.472656 -1.464844 3.285156 -0.992188 2.90625 -0.589844 C 2.8125 -0.449219 2.8125 -0.332031 2.882812 -0.1875 C 2.929688 -0.046875 3.046875 0 3.214844 0 L 8.433594 0 C 8.578125 0 8.695312 -0.046875 8.765625 -0.1875 C 8.8125 -0.332031 8.8125 -0.449219 8.742188 -0.589844 L 8.695312 -0.636719 C 8.316406 -1.015625 8.152344 -1.488281 8.152344 -2.054688 L 8.152344 -13.773438 C 8.152344 -13.867188 8.175781 -13.917969 8.269531 -13.941406 C 8.363281 -13.964844 8.433594 -13.941406 8.503906 -13.867188 L 15.925781 -1.417969 C 16.066406 -1.109375 16.042969 -0.828125 15.828125 -0.589844 C 15.734375 -0.449219 15.734375 -0.332031 15.804688 -0.1875 C 15.855469 -0.046875 15.972656 0 16.136719 0 L 21.714844 0 C 21.855469 0 21.972656 -0.046875 22.042969 -0.1875 C 22.089844 -0.332031 22.089844 -0.449219 22.019531 -0.589844 Z M 22.019531 -0.589844 "/></g></g></g><g fill="#ffc1b2" fill-opacity="0.302"><g transform="translate(178.043923, 112.372972)"><g><path d="M 17.199219 -23.652344 C 16.796875 -23.273438 16.324219 -23.105469 15.804688 -23.105469 L 3.214844 -23.105469 C 3.046875 -23.105469 2.929688 -23.035156 2.882812 -22.894531 C 2.8125 -22.753906 2.8125 -22.632812 2.90625 -22.515625 L 2.976562 -22.445312 C 3.355469 -22.019531 3.542969 -21.523438 3.542969 -20.957031 L 3.542969 -1.773438 C 3.542969 -1.488281 3.496094 -1.230469 3.402344 -0.96875 C 3.308594 -0.707031 3.164062 -0.472656 2.976562 -0.285156 L 2.90625 -0.210938 C 2.8125 -0.0703125 2.8125 0.046875 2.882812 0.1875 C 2.929688 0.332031 3.046875 0.378906 3.214844 0.378906 L 15.804688 0.378906 C 16.324219 0.378906 16.796875 0.566406 17.199219 0.921875 C 17.320312 1.039062 17.460938 1.0625 17.601562 0.992188 C 17.742188 0.945312 17.839844 0.828125 17.839844 0.636719 L 17.839844 -4.632812 C 17.839844 -4.773438 17.765625 -4.890625 17.625 -4.960938 C 17.484375 -5.007812 17.34375 -4.984375 17.246094 -4.890625 C 16.824219 -4.488281 16.324219 -4.300781 15.757812 -4.300781 L 8.8125 -4.300781 C 8.648438 -4.300781 8.503906 -4.347656 8.386719 -4.464844 C 8.269531 -4.558594 8.222656 -4.703125 8.222656 -4.890625 L 8.222656 -8.433594 C 8.222656 -8.601562 8.269531 -8.742188 8.386719 -8.859375 C 8.503906 -8.953125 8.648438 -9.027344 8.8125 -9.027344 L 10.890625 -9.027344 C 11.460938 -9.027344 11.957031 -8.8125 12.378906 -8.433594 C 12.5 -8.339844 12.617188 -8.339844 12.757812 -8.410156 C 12.898438 -8.480469 12.972656 -8.601562 12.972656 -8.742188 L 12.972656 -13.988281 C 12.972656 -14.128906 12.898438 -14.222656 12.757812 -14.292969 C 12.617188 -14.363281 12.5 -14.363281 12.378906 -14.292969 C 11.957031 -13.894531 11.460938 -13.703125 10.890625 -13.703125 L 8.8125 -13.703125 C 8.648438 -13.703125 8.503906 -13.75 8.386719 -13.867188 C 8.269531 -13.964844 8.222656 -14.105469 8.222656 -14.292969 L 8.222656 -17.839844 C 8.222656 -18.003906 8.269531 -18.144531 8.386719 -18.261719 C 8.503906 -18.359375 8.648438 -18.429688 8.8125 -18.429688 L 15.757812 -18.429688 C 16.324219 -18.429688 16.824219 -18.214844 17.246094 -17.839844 C 17.34375 -17.71875 17.484375 -17.695312 17.625 -17.765625 C 17.765625 -17.816406 17.839844 -17.933594 17.839844 -18.097656 L 17.839844 -23.390625 C 17.839844 -23.53125 17.742188 -23.652344 17.601562 -23.722656 C 17.460938 -23.769531 17.320312 -23.746094 17.199219 -23.652344 Z M 17.199219 -23.652344 "/></g></g></g><g fill="#ffc1b2" fill-opacity="0.302"><g transform="translate(198.717222, 112.372972)"><g><path d="M 17.175781 -5.222656 L 16.894531 -4.984375 C 16.632812 -4.75 16.351562 -4.65625 16.042969 -4.65625 L 8.71875 -4.65625 C 8.554688 -4.65625 8.410156 -4.703125 8.316406 -4.796875 C 8.199219 -4.890625 8.152344 -5.03125 8.152344 -5.222656 L 8.152344 -21.382812 C 8.152344 -21.925781 8.339844 -22.421875 8.71875 -22.847656 L 8.742188 -22.871094 C 8.8125 -22.988281 8.8125 -23.105469 8.765625 -23.25 C 8.695312 -23.367188 8.578125 -23.4375 8.433594 -23.4375 L 3.214844 -23.4375 C 3.046875 -23.4375 2.929688 -23.367188 2.882812 -23.25 C 2.8125 -23.105469 2.8125 -22.988281 2.90625 -22.871094 C 3.285156 -22.445312 3.472656 -21.949219 3.472656 -21.40625 L 3.472656 -0.519531 C 3.472656 -0.355469 3.519531 -0.210938 3.636719 -0.117188 C 3.734375 0 3.875 0.046875 4.039062 0.046875 L 16.042969 0.046875 C 16.351562 0.046875 16.632812 0.164062 16.894531 0.378906 L 17.175781 0.613281 C 17.292969 0.707031 17.414062 0.707031 17.554688 0.636719 C 17.671875 0.589844 17.742188 0.472656 17.742188 0.308594 L 17.742188 -4.914062 C 17.742188 -5.054688 17.671875 -5.175781 17.554688 -5.246094 C 17.414062 -5.292969 17.292969 -5.292969 17.175781 -5.222656 Z M 17.175781 -5.222656 "/></g></g></g><g fill="#ffc1b2" fill-opacity="0.502"><g transform="translate(86.123767, 112.638398)"><g><path d="M 17.175781 -24.050781 C 16.75 -23.675781 16.277344 -23.484375 15.710938 -23.484375 L 3.214844 -23.484375 C 3.046875 -23.484375 2.929688 -23.414062 2.882812 -23.273438 C 2.8125 -23.128906 2.8125 -23.011719 2.90625 -22.894531 L 2.929688 -22.871094 C 3.308594 -22.445312 3.496094 -21.949219 3.496094 -21.40625 L 3.496094 -2.054688 C 3.496094 -1.488281 3.308594 -1.015625 2.929688 -0.589844 L 2.90625 -0.566406 C 2.8125 -0.425781 2.8125 -0.308594 2.882812 -0.1875 C 2.929688 -0.046875 3.046875 0 3.214844 0 L 8.433594 0 C 8.578125 0 8.695312 -0.046875 8.765625 -0.1875 C 8.8125 -0.308594 8.8125 -0.425781 8.742188 -0.566406 C 8.363281 -0.992188 8.175781 -1.464844 8.175781 -2.03125 L 8.175781 -8.90625 C 8.175781 -9.027344 8.222656 -9.144531 8.316406 -9.238281 C 8.410156 -9.332031 8.527344 -9.402344 8.671875 -9.402344 L 10.867188 -9.402344 C 11.433594 -9.402344 11.90625 -9.191406 12.308594 -8.8125 L 12.332031 -8.8125 C 12.453125 -8.71875 12.570312 -8.71875 12.710938 -8.789062 C 12.851562 -8.835938 12.925781 -8.953125 12.925781 -9.121094 L 12.925781 -14.339844 C 12.925781 -14.484375 12.851562 -14.601562 12.710938 -14.671875 C 12.570312 -14.742188 12.453125 -14.742188 12.332031 -14.648438 C 11.90625 -14.269531 11.433594 -14.082031 10.867188 -14.082031 L 8.671875 -14.082031 C 8.527344 -14.082031 8.410156 -14.128906 8.316406 -14.222656 C 8.222656 -14.316406 8.175781 -14.4375 8.175781 -14.578125 L 8.175781 -18.289062 C 8.175781 -18.429688 8.222656 -18.546875 8.316406 -18.640625 C 8.410156 -18.734375 8.527344 -18.785156 8.671875 -18.785156 L 15.710938 -18.785156 C 16.277344 -18.785156 16.75 -18.59375 17.175781 -18.214844 C 17.292969 -18.121094 17.414062 -18.121094 17.554688 -18.191406 C 17.695312 -18.238281 17.765625 -18.359375 17.765625 -18.523438 L 17.765625 -23.746094 C 17.765625 -23.886719 17.695312 -24.003906 17.554688 -24.074219 C 17.414062 -24.121094 17.292969 -24.121094 17.175781 -24.050781 Z M 17.175781 -24.050781 "/></g></g></g><g fill="#ffc1b2" fill-opacity="0.502"><g transform="translate(105.332209, 112.638398)"><g><path d="M 20.25 -23.460938 L 15.027344 -23.460938 C 14.859375 -23.460938 14.742188 -23.390625 14.695312 -23.273438 C 14.625 -23.128906 14.625 -23.011719 14.71875 -22.894531 C 15.097656 -22.445312 15.308594 -21.949219 15.308594 -21.40625 L 15.308594 -7.632812 C 15.308594 -6.898438 15.121094 -6.332031 14.789062 -5.953125 C 14.460938 -5.550781 14.082031 -5.269531 13.65625 -5.078125 C 13.230469 -4.890625 12.828125 -4.773438 12.453125 -4.726562 C 12.074219 -4.679688 11.835938 -4.679688 11.742188 -4.679688 C 11.648438 -4.679688 11.386719 -4.679688 11.011719 -4.726562 C 10.632812 -4.773438 10.230469 -4.890625 9.804688 -5.078125 C 9.378906 -5.269531 9 -5.550781 8.671875 -5.953125 C 8.339844 -6.332031 8.175781 -6.898438 8.175781 -7.632812 L 8.175781 -21.40625 C 8.175781 -21.972656 8.363281 -22.46875 8.742188 -22.894531 C 8.8125 -23.011719 8.8125 -23.128906 8.765625 -23.273438 C 8.695312 -23.390625 8.578125 -23.460938 8.433594 -23.460938 L 3.214844 -23.460938 C 3.046875 -23.460938 2.929688 -23.390625 2.882812 -23.273438 C 2.8125 -23.128906 2.8125 -23.011719 2.90625 -22.894531 C 3.285156 -22.46875 3.472656 -21.972656 3.472656 -21.40625 L 3.472656 -7.632812 C 3.472656 -6.449219 3.710938 -5.363281 4.183594 -4.371094 C 4.65625 -3.378906 5.316406 -2.527344 6.214844 -1.820312 C 6.96875 -1.203125 7.820312 -0.757812 8.765625 -0.449219 C 9.710938 -0.117188 10.703125 0.0234375 11.742188 0.0234375 C 12.78125 0.0234375 13.75 -0.117188 14.695312 -0.449219 C 15.640625 -0.757812 16.492188 -1.203125 17.246094 -1.820312 C 18.144531 -2.527344 18.808594 -3.378906 19.28125 -4.371094 C 19.753906 -5.363281 19.988281 -6.449219 19.988281 -7.632812 L 19.988281 -21.40625 C 19.988281 -21.925781 20.175781 -22.421875 20.554688 -22.894531 C 20.648438 -23.011719 20.648438 -23.128906 20.578125 -23.273438 C 20.507812 -23.390625 20.390625 -23.460938 20.25 -23.460938 Z M 20.25 -23.460938 "/></g></g></g><g fill="#ffc1b2" fill-opacity="0.502"><g transform="translate(128.817071, 112.638398)"><g><path d="M 22.019531 -0.589844 L 21.996094 -0.613281 C 21.617188 -0.992188 21.453125 -1.464844 21.453125 -2.03125 L 21.453125 -21.453125 C 21.453125 -21.996094 21.617188 -22.46875 21.996094 -22.871094 L 22.019531 -22.894531 C 22.089844 -23.011719 22.089844 -23.128906 22.042969 -23.273438 C 21.972656 -23.414062 21.855469 -23.484375 21.714844 -23.484375 L 16.492188 -23.484375 C 16.324219 -23.484375 16.207031 -23.414062 16.160156 -23.273438 C 16.089844 -23.128906 16.089844 -23.011719 16.183594 -22.894531 L 16.207031 -22.871094 C 16.5625 -22.46875 16.75 -21.996094 16.75 -21.453125 L 16.75 -9.710938 C 16.75 -9.617188 16.703125 -9.546875 16.609375 -9.523438 C 16.515625 -9.496094 16.445312 -9.523438 16.398438 -9.617188 L 9 -22.042969 C 8.8125 -22.328125 8.859375 -22.609375 9.097656 -22.894531 C 9.167969 -23.011719 9.167969 -23.128906 9.121094 -23.273438 C 9.050781 -23.414062 8.929688 -23.484375 8.789062 -23.484375 L 8.152344 -23.484375 L 8.152344 -23.460938 L 8.152344 -23.484375 L 3.214844 -23.484375 C 3.046875 -23.484375 2.929688 -23.414062 2.882812 -23.273438 C 2.8125 -23.128906 2.8125 -23.011719 2.90625 -22.894531 C 3.285156 -22.46875 3.472656 -21.996094 3.472656 -21.476562 L 3.472656 -2.007812 C 3.472656 -1.464844 3.285156 -0.992188 2.90625 -0.589844 C 2.8125 -0.449219 2.8125 -0.332031 2.882812 -0.1875 C 2.929688 -0.046875 3.046875 0 3.214844 0 L 8.433594 0 C 8.578125 0 8.695312 -0.046875 8.765625 -0.1875 C 8.8125 -0.332031 8.8125 -0.449219 8.742188 -0.589844 L 8.695312 -0.636719 C 8.316406 -1.015625 8.152344 -1.488281 8.152344 -2.054688 L 8.152344 -13.773438 C 8.152344 -13.867188 8.175781 -13.917969 8.269531 -13.941406 C 8.363281 -13.964844 8.433594 -13.941406 8.503906 -13.867188 L 15.925781 -1.417969 C 16.066406 -1.109375 16.042969 -0.828125 15.828125 -0.589844 C 15.734375 -0.449219 15.734375 -0.332031 15.804688 -0.1875 C 15.855469 -0.046875 15.972656 0 16.136719 0 L 21.714844 0 C 21.855469 0 21.972656 -0.046875 22.042969 -0.1875 C 22.089844 -0.332031 22.089844 -0.449219 22.019531 -0.589844 Z M 22.019531 -0.589844 "/></g></g></g><g fill="#ffc1b2" fill-opacity="0.502"><g transform="translate(153.743152, 112.638398)"><g><path d="M 22.019531 -0.589844 L 21.996094 -0.613281 C 21.617188 -0.992188 21.453125 -1.464844 21.453125 -2.03125 L 21.453125 -21.453125 C 21.453125 -21.996094 21.617188 -22.46875 21.996094 -22.871094 L 22.019531 -22.894531 C 22.089844 -23.011719 22.089844 -23.128906 22.042969 -23.273438 C 21.972656 -23.414062 21.855469 -23.484375 21.714844 -23.484375 L 16.492188 -23.484375 C 16.324219 -23.484375 16.207031 -23.414062 16.160156 -23.273438 C 16.089844 -23.128906 16.089844 -23.011719 16.183594 -22.894531 L 16.207031 -22.871094 C 16.5625 -22.46875 16.75 -21.996094 16.75 -21.453125 L 16.75 -9.710938 C 16.75 -9.617188 16.703125 -9.546875 16.609375 -9.523438 C 16.515625 -9.496094 16.445312 -9.523438 16.398438 -9.617188 L 9 -22.042969 C 8.8125 -22.328125 8.859375 -22.609375 9.097656 -22.894531 C 9.167969 -23.011719 9.167969 -23.128906 9.121094 -23.273438 C 9.050781 -23.414062 8.929688 -23.484375 8.789062 -23.484375 L 8.152344 -23.484375 L 8.152344 -23.460938 L 8.152344 -23.484375 L 3.214844 -23.484375 C 3.046875 -23.484375 2.929688 -23.414062 2.882812 -23.273438 C 2.8125 -23.128906 2.8125 -23.011719 2.90625 -22.894531 C 3.285156 -22.46875 3.472656 -21.996094 3.472656 -21.476562 L 3.472656 -2.007812 C 3.472656 -1.464844 3.285156 -0.992188 2.90625 -0.589844 C 2.8125 -0.449219 2.8125 -0.332031 2.882812 -0.1875 C 2.929688 -0.046875 3.046875 0 3.214844 0 L 8.433594 0 C 8.578125 0 8.695312 -0.046875 8.765625 -0.1875 C 8.8125 -0.332031 8.8125 -0.449219 8.742188 -0.589844 L 8.695312 -0.636719 C 8.316406 -1.015625 8.152344 -1.488281 8.152344 -2.054688 L 8.152344 -13.773438 C 8.152344 -13.867188 8.175781 -13.917969 8.269531 -13.941406 C 8.363281 -13.964844 8.433594 -13.941406 8.503906 -13.867188 L 15.925781 -1.417969 C 16.066406 -1.109375 16.042969 -0.828125 15.828125 -0.589844 C 15.734375 -0.449219 15.734375 -0.332031 15.804688 -0.1875 C 15.855469 -0.046875 15.972656 0 16.136719 0 L 21.714844 0 C 21.855469 0 21.972656 -0.046875 22.042969 -0.1875 C 22.089844 -0.332031 22.089844 -0.449219 22.019531 -0.589844 Z M 22.019531 -0.589844 "/></g></g></g><g fill="#ffc1b2" fill-opacity="0.502"><g transform="translate(178.669239, 112.638398)"><g><path d="M 17.199219 -23.652344 C 16.796875 -23.273438 16.324219 -23.105469 15.804688 -23.105469 L 3.214844 -23.105469 C 3.046875 -23.105469 2.929688 -23.035156 2.882812 -22.894531 C 2.8125 -22.753906 2.8125 -22.632812 2.90625 -22.515625 L 2.976562 -22.445312 C 3.355469 -22.019531 3.542969 -21.523438 3.542969 -20.957031 L 3.542969 -1.773438 C 3.542969 -1.488281 3.496094 -1.230469 3.402344 -0.96875 C 3.308594 -0.707031 3.164062 -0.472656 2.976562 -0.285156 L 2.90625 -0.210938 C 2.8125 -0.0703125 2.8125 0.046875 2.882812 0.1875 C 2.929688 0.332031 3.046875 0.378906 3.214844 0.378906 L 15.804688 0.378906 C 16.324219 0.378906 16.796875 0.566406 17.199219 0.921875 C 17.320312 1.039062 17.460938 1.0625 17.601562 0.992188 C 17.742188 0.945312 17.839844 0.828125 17.839844 0.636719 L 17.839844 -4.632812 C 17.839844 -4.773438 17.765625 -4.890625 17.625 -4.960938 C 17.484375 -5.007812 17.34375 -4.984375 17.246094 -4.890625 C 16.824219 -4.488281 16.324219 -4.300781 15.757812 -4.300781 L 8.8125 -4.300781 C 8.648438 -4.300781 8.503906 -4.347656 8.386719 -4.464844 C 8.269531 -4.558594 8.222656 -4.703125 8.222656 -4.890625 L 8.222656 -8.433594 C 8.222656 -8.601562 8.269531 -8.742188 8.386719 -8.859375 C 8.503906 -8.953125 8.648438 -9.027344 8.8125 -9.027344 L 10.890625 -9.027344 C 11.460938 -9.027344 11.957031 -8.8125 12.378906 -8.433594 C 12.5 -8.339844 12.617188 -8.339844 12.757812 -8.410156 C 12.898438 -8.480469 12.972656 -8.601562 12.972656 -8.742188 L 12.972656 -13.988281 C 12.972656 -14.128906 12.898438 -14.222656 12.757812 -14.292969 C 12.617188 -14.363281 12.5 -14.363281 12.378906 -14.292969 C 11.957031 -13.894531 11.460938 -13.703125 10.890625 -13.703125 L 8.8125 -13.703125 C 8.648438 -13.703125 8.503906 -13.75 8.386719 -13.867188 C 8.269531 -13.964844 8.222656 -14.105469 8.222656 -14.292969 L 8.222656 -17.839844 C 8.222656 -18.003906 8.269531 -18.144531 8.386719 -18.261719 C 8.503906 -18.359375 8.648438 -18.429688 8.8125 -18.429688 L 15.757812 -18.429688 C 16.324219 -18.429688 16.824219 -18.214844 17.246094 -17.839844 C 17.34375 -17.71875 17.484375 -17.695312 17.625 -17.765625 C 17.765625 -17.816406 17.839844 -17.933594 17.839844 -18.097656 L 17.839844 -23.390625 C 17.839844 -23.53125 17.742188 -23.652344 17.601562 -23.722656 C 17.460938 -23.769531 17.320312 -23.746094 17.199219 -23.652344 Z M 17.199219 -23.652344 "/></g></g></g><g fill="#ffc1b2" fill-opacity="0.502"><g transform="translate(199.342537, 112.638398)"><g><path d="M 17.175781 -5.222656 L 16.894531 -4.984375 C 16.632812 -4.75 16.351562 -4.65625 16.042969 -4.65625 L 8.71875 -4.65625 C 8.554688 -4.65625 8.410156 -4.703125 8.316406 -4.796875 C 8.199219 -4.890625 8.152344 -5.03125 8.152344 -5.222656 L 8.152344 -21.382812 C 8.152344 -21.925781 8.339844 -22.421875 8.71875 -22.847656 L 8.742188 -22.871094 C 8.8125 -22.988281 8.8125 -23.105469 8.765625 -23.25 C 8.695312 -23.367188 8.578125 -23.4375 8.433594 -23.4375 L 3.214844 -23.4375 C 3.046875 -23.4375 2.929688 -23.367188 2.882812 -23.25 C 2.8125 -23.105469 2.8125 -22.988281 2.90625 -22.871094 C 3.285156 -22.445312 3.472656 -21.949219 3.472656 -21.40625 L 3.472656 -0.519531 C 3.472656 -0.355469 3.519531 -0.210938 3.636719 -0.117188 C 3.734375 0 3.875 0.046875 4.039062 0.046875 L 16.042969 0.046875 C 16.351562 0.046875 16.632812 0.164062 16.894531 0.378906 L 17.175781 0.613281 C 17.292969 0.707031 17.414062 0.707031 17.554688 0.636719 C 17.671875 0.589844 17.742188 0.472656 17.742188 0.308594 L 17.742188 -4.914062 C 17.742188 -5.054688 17.671875 -5.175781 17.554688 -5.246094 C 17.414062 -5.292969 17.292969 -5.292969 17.175781 -5.222656 Z M 17.175781 -5.222656 "/></g></g></g><g fill="#737373" fill-opacity="1"><g transform="translate(86.749078, 112.903828)"><g><path d="M 17.175781 -24.050781 C 16.75 -23.675781 16.277344 -23.484375 15.710938 -23.484375 L 3.214844 -23.484375 C 3.046875 -23.484375 2.929688 -23.414062 2.882812 -23.273438 C 2.8125 -23.128906 2.8125 -23.011719 2.90625 -22.894531 L 2.929688 -22.871094 C 3.308594 -22.445312 3.496094 -21.949219 3.496094 -21.40625 L 3.496094 -2.054688 C 3.496094 -1.488281 3.308594 -1.015625 2.929688 -0.589844 L 2.90625 -0.566406 C 2.8125 -0.425781 2.8125 -0.308594 2.882812 -0.1875 C 2.929688 -0.046875 3.046875 0 3.214844 0 L 8.433594 0 C 8.578125 0 8.695312 -0.046875 8.765625 -0.1875 C 8.8125 -0.308594 8.8125 -0.425781 8.742188 -0.566406 C 8.363281 -0.992188 8.175781 -1.464844 8.175781 -2.03125 L 8.175781 -8.90625 C 8.175781 -9.027344 8.222656 -9.144531 8.316406 -9.238281 C 8.410156 -9.332031 8.527344 -9.402344 8.671875 -9.402344 L 10.867188 -9.402344 C 11.433594 -9.402344 11.90625 -9.191406 12.308594 -8.8125 L 12.332031 -8.8125 C 12.453125 -8.71875 12.570312 -8.71875 12.710938 -8.789062 C 12.851562 -8.835938 12.925781 -8.953125 12.925781 -9.121094 L 12.925781 -14.339844 C 12.925781 -14.484375 12.851562 -14.601562 12.710938 -14.671875 C 12.570312 -14.742188 12.453125 -14.742188 12.332031 -14.648438 C 11.90625 -14.269531 11.433594 -14.082031 10.867188 -14.082031 L 8.671875 -14.082031 C 8.527344 -14.082031 8.410156 -14.128906 8.316406 -14.222656 C 8.222656 -14.316406 8.175781 -14.4375 8.175781 -14.578125 L 8.175781 -18.289062 C 8.175781 -18.429688 8.222656 -18.546875 8.316406 -18.640625 C 8.410156 -18.734375 8.527344 -18.785156 8.671875 -18.785156 L 15.710938 -18.785156 C 16.277344 -18.785156 16.75 -18.59375 17.175781 -18.214844 C 17.292969 -18.121094 17.414062 -18.121094 17.554688 -18.191406 C 17.695312 -18.238281 17.765625 -18.359375 17.765625 -18.523438 L 17.765625 -23.746094 C 17.765625 -23.886719 17.695312 -24.003906 17.554688 -24.074219 C 17.414062 -24.121094 17.292969 -24.121094 17.175781 -24.050781 Z M 17.175781 -24.050781 "/></g></g></g><g fill="#737373" fill-opacity="1"><g transform="translate(105.95752, 112.903828)"><g><path d="M 20.25 -23.460938 L 15.027344 -23.460938 C 14.859375 -23.460938 14.742188 -23.390625 14.695312 -23.273438 C 14.625 -23.128906 14.625 -23.011719 14.71875 -22.894531 C 15.097656 -22.445312 15.308594 -21.949219 15.308594 -21.40625 L 15.308594 -7.632812 C 15.308594 -6.898438 15.121094 -6.332031 14.789062 -5.953125 C 14.460938 -5.550781 14.082031 -5.269531 13.65625 -5.078125 C 13.230469 -4.890625 12.828125 -4.773438 12.453125 -4.726562 C 12.074219 -4.679688 11.835938 -4.679688 11.742188 -4.679688 C 11.648438 -4.679688 11.386719 -4.679688 11.011719 -4.726562 C 10.632812 -4.773438 10.230469 -4.890625 9.804688 -5.078125 C 9.378906 -5.269531 9 -5.550781 8.671875 -5.953125 C 8.339844 -6.332031 8.175781 -6.898438 8.175781 -7.632812 L 8.175781 -21.40625 C 8.175781 -21.972656 8.363281 -22.46875 8.742188 -22.894531 C 8.8125 -23.011719 8.8125 -23.128906 8.765625 -23.273438 C 8.695312 -23.390625 8.578125 -23.460938 8.433594 -23.460938 L 3.214844 -23.460938 C 3.046875 -23.460938 2.929688 -23.390625 2.882812 -23.273438 C 2.8125 -23.128906 2.8125 -23.011719 2.90625 -22.894531 C 3.285156 -22.46875 3.472656 -21.972656 3.472656 -21.40625 L 3.472656 -7.632812 C 3.472656 -6.449219 3.710938 -5.363281 4.183594 -4.371094 C 4.65625 -3.378906 5.316406 -2.527344 6.214844 -1.820312 C 6.96875 -1.203125 7.820312 -0.757812 8.765625 -0.449219 C 9.710938 -0.117188 10.703125 0.0234375 11.742188 0.0234375 C 12.78125 0.0234375 13.75 -0.117188 14.695312 -0.449219 C 15.640625 -0.757812 16.492188 -1.203125 17.246094 -1.820312 C 18.144531 -2.527344 18.808594 -3.378906 19.28125 -4.371094 C 19.753906 -5.363281 19.988281 -6.449219 19.988281 -7.632812 L 19.988281 -21.40625 C 19.988281 -21.925781 20.175781 -22.421875 20.554688 -22.894531 C 20.648438 -23.011719 20.648438 -23.128906 20.578125 -23.273438 C 20.507812 -23.390625 20.390625 -23.460938 20.25 -23.460938 Z M 20.25 -23.460938 "/></g></g></g><g fill="#737373" fill-opacity="1"><g transform="translate(129.442381, 112.903828)"><g><path d="M 22.019531 -0.589844 L 21.996094 -0.613281 C 21.617188 -0.992188 21.453125 -1.464844 21.453125 -2.03125 L 21.453125 -21.453125 C 21.453125 -21.996094 21.617188 -22.46875 21.996094 -22.871094 L 22.019531 -22.894531 C 22.089844 -23.011719 22.089844 -23.128906 22.042969 -23.273438 C 21.972656 -23.414062 21.855469 -23.484375 21.714844 -23.484375 L 16.492188 -23.484375 C 16.324219 -23.484375 16.207031 -23.414062 16.160156 -23.273438 C 16.089844 -23.128906 16.089844 -23.011719 16.183594 -22.894531 L 16.207031 -22.871094 C 16.5625 -22.46875 16.75 -21.996094 16.75 -21.453125 L 16.75 -9.710938 C 16.75 -9.617188 16.703125 -9.546875 16.609375 -9.523438 C 16.515625 -9.496094 16.445312 -9.523438 16.398438 -9.617188 L 9 -22.042969 C 8.8125 -22.328125 8.859375 -22.609375 9.097656 -22.894531 C 9.167969 -23.011719 9.167969 -23.128906 9.121094 -23.273438 C 9.050781 -23.414062 8.929688 -23.484375 8.789062 -23.484375 L 8.152344 -23.484375 L 8.152344 -23.460938 L 8.152344 -23.484375 L 3.214844 -23.484375 C 3.046875 -23.484375 2.929688 -23.414062 2.882812 -23.273438 C 2.8125 -23.128906 2.8125 -23.011719 2.90625 -22.894531 C 3.285156 -22.46875 3.472656 -21.996094 3.472656 -21.476562 L 3.472656 -2.007812 C 3.472656 -1.464844 3.285156 -0.992188 2.90625 -0.589844 C 2.8125 -0.449219 2.8125 -0.332031 2.882812 -0.1875 C 2.929688 -0.046875 3.046875 0 3.214844 0 L 8.433594 0 C 8.578125 0 8.695312 -0.046875 8.765625 -0.1875 C 8.8125 -0.332031 8.8125 -0.449219 8.742188 -0.589844 L 8.695312 -0.636719 C 8.316406 -1.015625 8.152344 -1.488281 8.152344 -2.054688 L 8.152344 -13.773438 C 8.152344 -13.867188 8.175781 -13.917969 8.269531 -13.941406 C 8.363281 -13.964844 8.433594 -13.941406 8.503906 -13.867188 L 15.925781 -1.417969 C 16.066406 -1.109375 16.042969 -0.828125 15.828125 -0.589844 C 15.734375 -0.449219 15.734375 -0.332031 15.804688 -0.1875 C 15.855469 -0.046875 15.972656 0 16.136719 0 L 21.714844 0 C 21.855469 0 21.972656 -0.046875 22.042969 -0.1875 C 22.089844 -0.332031 22.089844 -0.449219 22.019531 -0.589844 Z M 22.019531 -0.589844 "/></g></g></g><g fill="#737373" fill-opacity="1"><g transform="translate(154.368462, 112.903828)"><g><path d="M 22.019531 -0.589844 L 21.996094 -0.613281 C 21.617188 -0.992188 21.453125 -1.464844 21.453125 -2.03125 L 21.453125 -21.453125 C 21.453125 -21.996094 21.617188 -22.46875 21.996094 -22.871094 L 22.019531 -22.894531 C 22.089844 -23.011719 22.089844 -23.128906 22.042969 -23.273438 C 21.972656 -23.414062 21.855469 -23.484375 21.714844 -23.484375 L 16.492188 -23.484375 C 16.324219 -23.484375 16.207031 -23.414062 16.160156 -23.273438 C 16.089844 -23.128906 16.089844 -23.011719 16.183594 -22.894531 L 16.207031 -22.871094 C 16.5625 -22.46875 16.75 -21.996094 16.75 -21.453125 L 16.75 -9.710938 C 16.75 -9.617188 16.703125 -9.546875 16.609375 -9.523438 C 16.515625 -9.496094 16.445312 -9.523438 16.398438 -9.617188 L 9 -22.042969 C 8.8125 -22.328125 8.859375 -22.609375 9.097656 -22.894531 C 9.167969 -23.011719 9.167969 -23.128906 9.121094 -23.273438 C 9.050781 -23.414062 8.929688 -23.484375 8.789062 -23.484375 L 8.152344 -23.484375 L 8.152344 -23.460938 L 8.152344 -23.484375 L 3.214844 -23.484375 C 3.046875 -23.484375 2.929688 -23.414062 2.882812 -23.273438 C 2.8125 -23.128906 2.8125 -23.011719 2.90625 -22.894531 C 3.285156 -22.46875 3.472656 -21.996094 3.472656 -21.476562 L 3.472656 -2.007812 C 3.472656 -1.464844 3.285156 -0.992188 2.90625 -0.589844 C 2.8125 -0.449219 2.8125 -0.332031 2.882812 -0.1875 C 2.929688 -0.046875 3.046875 0 3.214844 0 L 8.433594 0 C 8.578125 0 8.695312 -0.046875 8.765625 -0.1875 C 8.8125 -0.332031 8.8125 -0.449219 8.742188 -0.589844 L 8.695312 -0.636719 C 8.316406 -1.015625 8.152344 -1.488281 8.152344 -2.054688 L 8.152344 -13.773438 C 8.152344 -13.867188 8.175781 -13.917969 8.269531 -13.941406 C 8.363281 -13.964844 8.433594 -13.941406 8.503906 -13.867188 L 15.925781 -1.417969 C 16.066406 -1.109375 16.042969 -0.828125 15.828125 -0.589844 C 15.734375 -0.449219 15.734375 -0.332031 15.804688 -0.1875 C 15.855469 -0.046875 15.972656 0 16.136719 0 L 21.714844 0 C 21.855469 0 21.972656 -0.046875 22.042969 -0.1875 C 22.089844 -0.332031 22.089844 -0.449219 22.019531 -0.589844 Z M 22.019531 -0.589844 "/></g></g></g><g fill="#737373" fill-opacity="1"><g transform="translate(179.294549, 112.903828)"><g><path d="M 17.199219 -23.652344 C 16.796875 -23.273438 16.324219 -23.105469 15.804688 -23.105469 L 3.214844 -23.105469 C 3.046875 -23.105469 2.929688 -23.035156 2.882812 -22.894531 C 2.8125 -22.753906 2.8125 -22.632812 2.90625 -22.515625 L 2.976562 -22.445312 C 3.355469 -22.019531 3.542969 -21.523438 3.542969 -20.957031 L 3.542969 -1.773438 C 3.542969 -1.488281 3.496094 -1.230469 3.402344 -0.96875 C 3.308594 -0.707031 3.164062 -0.472656 2.976562 -0.285156 L 2.90625 -0.210938 C 2.8125 -0.0703125 2.8125 0.046875 2.882812 0.1875 C 2.929688 0.332031 3.046875 0.378906 3.214844 0.378906 L 15.804688 0.378906 C 16.324219 0.378906 16.796875 0.566406 17.199219 0.921875 C 17.320312 1.039062 17.460938 1.0625 17.601562 0.992188 C 17.742188 0.945312 17.839844 0.828125 17.839844 0.636719 L 17.839844 -4.632812 C 17.839844 -4.773438 17.765625 -4.890625 17.625 -4.960938 C 17.484375 -5.007812 17.34375 -4.984375 17.246094 -4.890625 C 16.824219 -4.488281 16.324219 -4.300781 15.757812 -4.300781 L 8.8125 -4.300781 C 8.648438 -4.300781 8.503906 -4.347656 8.386719 -4.464844 C 8.269531 -4.558594 8.222656 -4.703125 8.222656 -4.890625 L 8.222656 -8.433594 C 8.222656 -8.601562 8.269531 -8.742188 8.386719 -8.859375 C 8.503906 -8.953125 8.648438 -9.027344 8.8125 -9.027344 L 10.890625 -9.027344 C 11.460938 -9.027344 11.957031 -8.8125 12.378906 -8.433594 C 12.5 -8.339844 12.617188 -8.339844 12.757812 -8.410156 C 12.898438 -8.480469 12.972656 -8.601562 12.972656 -8.742188 L 12.972656 -13.988281 C 12.972656 -14.128906 12.898438 -14.222656 12.757812 -14.292969 C 12.617188 -14.363281 12.5 -14.363281 12.378906 -14.292969 C 11.957031 -13.894531 11.460938 -13.703125 10.890625 -13.703125 L 8.8125 -13.703125 C 8.648438 -13.703125 8.503906 -13.75 8.386719 -13.867188 C 8.269531 -13.964844 8.222656 -14.105469 8.222656 -14.292969 L 8.222656 -17.839844 C 8.222656 -18.003906 8.269531 -18.144531 8.386719 -18.261719 C 8.503906 -18.359375 8.648438 -18.429688 8.8125 -18.429688 L 15.757812 -18.429688 C 16.324219 -18.429688 16.824219 -18.214844 17.246094 -17.839844 C 17.34375 -17.71875 17.484375 -17.695312 17.625 -17.765625 C 17.765625 -17.816406 17.839844 -17.933594 17.839844 -18.097656 L 17.839844 -23.390625 C 17.839844 -23.53125 17.742188 -23.652344 17.601562 -23.722656 C 17.460938 -23.769531 17.320312 -23.746094 17.199219 -23.652344 Z M 17.199219 -23.652344 "/></g></g></g><g fill="#737373" fill-opacity="1"><g transform="translate(199.967848, 112.903828)"><g><path d="M 17.175781 -5.222656 L 16.894531 -4.984375 C 16.632812 -4.75 16.351562 -4.65625 16.042969 -4.65625 L 8.71875 -4.65625 C 8.554688 -4.65625 8.410156 -4.703125 8.316406 -4.796875 C 8.199219 -4.890625 8.152344 -5.03125 8.152344 -5.222656 L 8.152344 -21.382812 C 8.152344 -21.925781 8.339844 -22.421875 8.71875 -22.847656 L 8.742188 -22.871094 C 8.8125 -22.988281 8.8125 -23.105469 8.765625 -23.25 C 8.695312 -23.367188 8.578125 -23.4375 8.433594 -23.4375 L 3.214844 -23.4375 C 3.046875 -23.4375 2.929688 -23.367188 2.882812 -23.25 C 2.8125 -23.105469 2.8125 -22.988281 2.90625 -22.871094 C 3.285156 -22.445312 3.472656 -21.949219 3.472656 -21.40625 L 3.472656 -0.519531 C 3.472656 -0.355469 3.519531 -0.210938 3.636719 -0.117188 C 3.734375 0 3.875 0.046875 4.039062 0.046875 L 16.042969 0.046875 C 16.351562 0.046875 16.632812 0.164062 16.894531 0.378906 L 17.175781 0.613281 C 17.292969 0.707031 17.414062 0.707031 17.554688 0.636719 C 17.671875 0.589844 17.742188 0.472656 17.742188 0.308594 L 17.742188 -4.914062 C 17.742188 -5.054688 17.671875 -5.175781 17.554688 -5.246094 C 17.414062 -5.292969 17.292969 -5.292969 17.175781 -5.222656 Z M 17.175781 -5.222656 "/></g></g></g></svg>