<svg xmlns="http://www.w3.org/2000/svg" xmlns:xlink="http://www.w3.org/1999/xlink" width="300" zoomAndPan="magnify" viewBox="0 0 224.87999 168.749997" height="225" preserveAspectRatio="xMidYMid meet" version="1.0"><defs><g/><clipPath id="f6b701ad3e"><path d="M 21 31.476562 L 66 31.476562 L 66 48 L 21 48 Z M 21 31.476562 " clip-rule="nonzero"/></clipPath><clipPath id="7eb0bd2c6f"><path d="M 58 75 L 91.570312 75 L 91.570312 109 L 58 109 Z M 58 75 " clip-rule="nonzero"/></clipPath><clipPath id="708047d35c"><path d="M 9.191406 37 L 78 37 L 78 132.574219 L 9.191406 132.574219 Z M 9.191406 37 " clip-rule="nonzero"/></clipPath></defs><g clip-path="url(#f6b701ad3e)"><path fill="#ff914d" d="M 57.085938 37.007812 C 57.007812 32.03125 53.609375 31.476562 52.183594 31.476562 L 34.167969 31.476562 C 32.742188 31.476562 29.34375 32.03125 29.265625 37.007812 L 22.628906 37.007812 C 21.757812 37.007812 21.046875 37.71875 21.046875 38.589844 L 21.046875 42.304688 C 21.046875 45.070312 23.023438 47.28125 25.394531 47.28125 L 61.035156 47.28125 C 63.40625 47.28125 65.382812 45.070312 65.382812 42.304688 L 65.382812 38.589844 C 65.382812 37.71875 64.671875 37.007812 63.800781 37.007812 Z M 62.144531 42.304688 C 62.144531 43.332031 61.511719 44.121094 60.957031 44.121094 L 25.394531 44.121094 C 24.839844 44.121094 24.207031 43.410156 24.207031 42.304688 L 24.207031 40.167969 L 30.847656 40.167969 C 31.714844 40.167969 32.425781 39.457031 32.425781 38.589844 L 32.425781 37.246094 C 32.425781 34.636719 33.375 34.636719 34.167969 34.636719 L 52.183594 34.636719 C 52.976562 34.636719 53.921875 34.636719 53.921875 37.246094 L 53.921875 38.589844 C 53.921875 39.457031 54.636719 40.167969 55.503906 40.167969 L 62.144531 40.167969 Z M 62.144531 42.304688 " fill-opacity="1" fill-rule="nonzero"/></g><g clip-path="url(#7eb0bd2c6f)"><path fill="#ff914d" d="M 58.191406 92.328125 C 58.191406 101.496094 65.621094 108.925781 74.789062 108.925781 C 83.953125 108.925781 91.382812 101.496094 91.382812 92.328125 C 91.382812 83.160156 83.953125 75.734375 74.789062 75.734375 C 65.621094 75.734375 58.191406 83.160156 58.191406 92.328125 Z M 88.222656 92.328125 C 88.222656 99.757812 82.214844 105.765625 74.789062 105.765625 C 67.359375 105.765625 61.351562 99.757812 61.351562 92.328125 C 61.351562 84.898438 67.359375 78.894531 74.789062 78.894531 C 82.214844 78.894531 88.222656 84.898438 88.222656 92.328125 Z M 88.222656 92.328125 " fill-opacity="1" fill-rule="nonzero"/></g><path fill="#ff914d" d="M 70.441406 91.378906 C 69.808594 90.75 68.859375 90.75 68.226562 91.300781 C 67.597656 91.933594 67.597656 92.882812 68.148438 93.515625 C 68.148438 93.515625 71.707031 97.308594 71.707031 97.308594 C 72.179688 97.859375 73.128906 97.941406 73.761719 97.546875 L 82.847656 91.222656 C 83.558594 90.75 83.71875 89.722656 83.242188 89.007812 C 82.769531 88.296875 81.742188 88.140625 81.03125 88.613281 L 73.128906 94.148438 Z M 70.441406 91.378906 " fill-opacity="1" fill-rule="nonzero"/><path fill="#ff914d" d="M 44.757812 39.378906 C 44.757812 39.589844 44.714844 39.789062 44.636719 39.984375 C 44.554688 40.175781 44.441406 40.347656 44.292969 40.496094 C 44.144531 40.644531 43.972656 40.757812 43.78125 40.839844 C 43.585938 40.917969 43.386719 40.960938 43.175781 40.960938 C 42.964844 40.960938 42.765625 40.917969 42.570312 40.839844 C 42.378906 40.757812 42.207031 40.644531 42.058594 40.496094 C 41.910156 40.347656 41.796875 40.175781 41.714844 39.984375 C 41.636719 39.789062 41.59375 39.589844 41.59375 39.378906 C 41.59375 39.167969 41.636719 38.96875 41.714844 38.773438 C 41.796875 38.582031 41.910156 38.410156 42.058594 38.261719 C 42.207031 38.113281 42.378906 38 42.570312 37.917969 C 42.765625 37.839844 42.964844 37.796875 43.175781 37.796875 C 43.386719 37.796875 43.585938 37.839844 43.78125 37.917969 C 43.972656 38 44.144531 38.113281 44.292969 38.261719 C 44.441406 38.410156 44.554688 38.582031 44.636719 38.773438 C 44.714844 38.96875 44.757812 39.167969 44.757812 39.378906 Z M 44.757812 39.378906 " fill-opacity="1" fill-rule="nonzero"/><g clip-path="url(#708047d35c)"><path fill="#ff914d" d="M 9.191406 43.332031 L 9.191406 126.3125 C 9.191406 129.789062 12.039062 132.632812 15.515625 132.632812 L 70.835938 132.632812 C 74.3125 132.632812 77.160156 129.789062 77.160156 126.3125 L 77.160156 111.929688 C 76.367188 112.007812 75.578125 112.085938 74.789062 112.085938 C 72.023438 112.085938 69.414062 111.53125 67.042969 110.503906 L 34.484375 110.503906 C 33.613281 110.503906 32.902344 109.792969 32.902344 108.925781 C 32.902344 108.054688 33.613281 107.34375 34.484375 107.34375 L 61.984375 107.34375 C 58.347656 104.183594 55.820312 99.757812 55.1875 94.699219 L 34.484375 94.699219 C 33.613281 94.699219 32.902344 93.988281 32.902344 93.121094 C 32.902344 92.25 33.613281 91.539062 34.484375 91.539062 L 55.03125 91.539062 C 55.1875 86.640625 57.164062 82.214844 60.324219 78.894531 L 34.484375 78.894531 C 33.613281 78.894531 32.902344 78.183594 32.902344 77.3125 C 32.902344 76.445312 33.613281 75.734375 34.484375 75.734375 L 64.117188 75.734375 C 67.199219 73.757812 70.914062 72.570312 74.789062 72.570312 C 75.578125 72.570312 76.367188 72.652344 77.160156 72.730469 L 77.160156 43.332031 C 77.160156 39.851562 74.3125 37.007812 70.835938 37.007812 L 68.148438 37.007812 C 68.226562 37.246094 68.308594 37.484375 68.386719 37.796875 C 68.464844 38.035156 68.464844 38.273438 68.464844 38.589844 L 68.464844 42.304688 C 68.464844 46.808594 65.144531 50.441406 60.957031 50.441406 L 25.394531 50.441406 C 21.285156 50.441406 17.886719 46.808594 17.886719 42.304688 L 17.886719 38.589844 C 17.886719 38.273438 17.886719 38.035156 17.964844 37.796875 C 18.042969 37.5625 18.042969 37.324219 18.203125 37.007812 L 15.515625 37.007812 C 12.039062 37.007812 9.191406 39.851562 9.191406 43.332031 Z M 34.484375 59.925781 L 67.675781 59.925781 C 68.542969 59.925781 69.253906 60.636719 69.253906 61.507812 C 69.253906 62.375 68.542969 63.089844 67.675781 63.089844 L 34.484375 63.089844 C 33.613281 63.089844 32.902344 62.375 32.902344 61.507812 C 32.902344 60.636719 33.613281 59.925781 34.484375 59.925781 Z M 34.484375 66.25 L 51.867188 66.25 C 52.738281 66.25 53.449219 66.960938 53.449219 67.828125 C 53.449219 68.699219 52.738281 69.410156 51.867188 69.410156 L 34.484375 69.410156 C 33.613281 69.410156 32.902344 68.699219 32.902344 67.828125 C 32.902344 66.960938 33.613281 66.25 34.484375 66.25 Z M 34.484375 82.054688 L 51.867188 82.054688 C 52.738281 82.054688 53.449219 82.765625 53.449219 83.636719 C 53.449219 84.503906 52.738281 85.214844 51.867188 85.214844 L 34.484375 85.214844 C 33.613281 85.214844 32.902344 84.503906 32.902344 83.636719 C 32.902344 82.765625 33.613281 82.054688 34.484375 82.054688 Z M 34.484375 97.859375 L 51.867188 97.859375 C 52.738281 97.859375 53.449219 98.574219 53.449219 99.441406 C 53.449219 100.3125 52.738281 101.023438 51.867188 101.023438 L 34.484375 101.023438 C 33.613281 101.023438 32.902344 100.3125 32.902344 99.441406 C 32.902344 98.574219 33.613281 97.859375 34.484375 97.859375 Z M 34.484375 113.667969 L 51.867188 113.667969 C 52.738281 113.667969 53.449219 114.378906 53.449219 115.246094 C 53.449219 116.117188 52.738281 116.828125 51.867188 116.828125 L 34.484375 116.828125 C 33.613281 116.828125 32.902344 116.117188 32.902344 115.246094 C 32.902344 114.378906 33.613281 113.667969 34.484375 113.667969 Z M 18.675781 62.296875 C 18.675781 61.429688 19.386719 60.71875 20.257812 60.71875 L 25 60.71875 C 25.867188 60.71875 26.578125 61.429688 26.578125 62.296875 L 26.578125 67.039062 C 26.578125 67.910156 25.867188 68.621094 25 68.621094 L 20.257812 68.621094 C 19.386719 68.621094 18.675781 67.910156 18.675781 67.039062 Z M 18.675781 78.105469 C 18.675781 77.234375 19.386719 76.523438 20.257812 76.523438 L 25 76.523438 C 25.867188 76.523438 26.578125 77.234375 26.578125 78.105469 L 26.578125 82.84375 C 26.578125 83.714844 25.867188 84.425781 25 84.425781 L 20.257812 84.425781 C 19.386719 84.425781 18.675781 83.714844 18.675781 82.84375 Z M 18.675781 93.910156 C 18.675781 93.039062 19.386719 92.328125 20.257812 92.328125 L 25 92.328125 C 25.867188 92.328125 26.578125 93.039062 26.578125 93.910156 L 26.578125 98.652344 C 26.578125 99.519531 25.867188 100.230469 25 100.230469 L 20.257812 100.230469 C 19.386719 100.230469 18.675781 99.519531 18.675781 98.652344 Z M 18.675781 109.714844 C 18.675781 108.847656 19.386719 108.136719 20.257812 108.136719 L 25 108.136719 C 25.867188 108.136719 26.578125 108.847656 26.578125 109.714844 L 26.578125 114.457031 C 26.578125 115.328125 25.867188 116.039062 25 116.039062 L 20.257812 116.039062 C 19.386719 116.039062 18.675781 115.328125 18.675781 114.457031 Z M 18.675781 109.714844 " fill-opacity="1" fill-rule="nonzero"/></g><g fill="#ffc1b2" fill-opacity="0.302"><g transform="translate(86.639695, 73.042118)"><g><path d="M 19.421875 -17.671875 L 19.304688 -17.816406 C 18.972656 -18.144531 18.757812 -18.523438 18.617188 -18.949219 C 18.191406 -20.273438 17.320312 -21.359375 16.042969 -22.210938 C 15.332031 -22.65625 14.53125 -23.011719 13.632812 -23.25 C 12.734375 -23.484375 11.8125 -23.601562 10.820312 -23.601562 C 9.828125 -23.601562 8.859375 -23.460938 7.9375 -23.226562 C 7.015625 -22.988281 6.191406 -22.632812 5.457031 -22.1875 C 4.464844 -21.570312 3.734375 -20.839844 3.214844 -19.964844 C 2.695312 -19.089844 2.457031 -18.144531 2.457031 -17.105469 C 2.457031 -15.121094 3.378906 -13.421875 5.269531 -12.027344 C 5.929688 -11.507812 6.640625 -11.082031 7.417969 -10.703125 C 8.199219 -10.324219 9 -9.945312 9.804688 -9.617188 C 10.277344 -9.378906 10.796875 -9.144531 11.316406 -8.90625 C 11.835938 -8.671875 12.308594 -8.410156 12.734375 -8.175781 C 13.160156 -7.914062 13.515625 -7.65625 13.796875 -7.394531 C 14.082031 -7.113281 14.222656 -6.851562 14.222656 -6.59375 C 14.222656 -6.261719 14.105469 -5.953125 13.867188 -5.71875 C 13.632812 -5.480469 13.324219 -5.269531 12.972656 -5.128906 C 12.617188 -4.984375 12.238281 -4.867188 11.8125 -4.796875 C 11.386719 -4.703125 11.011719 -4.679688 10.632812 -4.679688 C 10.160156 -4.679688 9.6875 -4.726562 9.167969 -4.84375 C 8.648438 -4.9375 8.199219 -5.128906 7.84375 -5.386719 C 7.75 -5.457031 7.679688 -5.550781 7.679688 -5.671875 C 7.65625 -5.789062 7.679688 -5.882812 7.773438 -5.976562 L 7.796875 -6 C 7.867188 -6.121094 7.867188 -6.238281 7.820312 -6.378906 C 7.75 -6.519531 7.632812 -6.59375 7.488281 -6.59375 L 2.269531 -6.59375 C 2.101562 -6.59375 1.984375 -6.519531 1.9375 -6.378906 C 1.867188 -6.238281 1.867188 -6.121094 1.960938 -6 L 2.054688 -5.90625 C 2.386719 -5.527344 2.597656 -5.128906 2.742188 -4.726562 C 3.164062 -3.355469 4.015625 -2.269531 5.339844 -1.441406 C 6.046875 -0.96875 6.875 -0.613281 7.773438 -0.378906 C 8.671875 -0.117188 9.640625 0 10.632812 0 C 11.8125 0 12.925781 -0.164062 13.941406 -0.496094 C 14.957031 -0.828125 15.828125 -1.277344 16.5625 -1.867188 C 17.292969 -2.433594 17.863281 -3.140625 18.289062 -3.945312 C 18.6875 -4.75 18.902344 -5.625 18.902344 -6.59375 C 18.902344 -7.609375 18.664062 -8.503906 18.214844 -9.261719 C 17.765625 -10.019531 17.199219 -10.679688 16.492188 -11.246094 C 15.78125 -11.8125 15.027344 -12.285156 14.175781 -12.710938 C 13.324219 -13.136719 12.5 -13.515625 11.695312 -13.894531 C 11.152344 -14.128906 10.609375 -14.363281 10.066406 -14.625 C 9.523438 -14.859375 9.027344 -15.121094 8.601562 -15.40625 C 8.175781 -15.664062 7.820312 -15.949219 7.535156 -16.230469 C 7.253906 -16.515625 7.136719 -16.796875 7.136719 -17.105469 C 7.136719 -17.367188 7.230469 -17.601562 7.464844 -17.839844 C 7.679688 -18.074219 7.960938 -18.261719 8.316406 -18.429688 C 8.648438 -18.570312 9.050781 -18.6875 9.496094 -18.785156 C 9.921875 -18.878906 10.371094 -18.925781 10.820312 -18.925781 C 11.339844 -18.925781 11.859375 -18.855469 12.332031 -18.757812 C 12.804688 -18.640625 13.183594 -18.476562 13.515625 -18.261719 C 13.609375 -18.191406 13.679688 -18.097656 13.679688 -17.980469 C 13.679688 -17.863281 13.65625 -17.765625 13.585938 -17.695312 L 13.585938 -17.671875 C 13.492188 -17.53125 13.492188 -17.414062 13.5625 -17.292969 C 13.609375 -17.152344 13.726562 -17.105469 13.894531 -17.105469 L 19.113281 -17.105469 C 19.257812 -17.105469 19.375 -17.152344 19.445312 -17.292969 C 19.492188 -17.414062 19.492188 -17.53125 19.421875 -17.671875 Z M 19.421875 -17.671875 "/></g></g></g><g fill="#ffc1b2" fill-opacity="0.302"><g transform="translate(108.021787, 73.042118)"><g><path d="M 20.695312 -23.25 C 20.625 -23.390625 20.53125 -23.460938 20.414062 -23.460938 L 20.414062 -23.484375 L 14.484375 -23.484375 C 14.316406 -23.484375 14.199219 -23.414062 14.152344 -23.273438 C 14.082031 -23.128906 14.105469 -22.988281 14.222656 -22.894531 C 14.414062 -22.65625 14.4375 -22.421875 14.292969 -22.1875 L 11.292969 -16.871094 C 11.246094 -16.773438 11.152344 -16.75 11.058594 -16.75 C 10.960938 -16.75 10.890625 -16.773438 10.84375 -16.871094 L 7.84375 -22.1875 C 7.703125 -22.445312 7.726562 -22.683594 7.9375 -22.894531 C 8.03125 -22.988281 8.03125 -23.128906 7.984375 -23.273438 C 7.9375 -23.414062 7.820312 -23.484375 7.679688 -23.484375 L 1.726562 -23.484375 L 1.75 -23.460938 C 1.605469 -23.460938 1.488281 -23.390625 1.441406 -23.25 C 1.394531 -23.15625 1.394531 -23.082031 1.417969 -23.011719 C 1.441406 -22.917969 1.488281 -22.871094 1.558594 -22.824219 L 1.582031 -22.800781 C 1.890625 -22.5625 2.171875 -22.304688 2.410156 -22.019531 C 2.644531 -21.738281 2.882812 -21.429688 3.070312 -21.097656 L 7.960938 -12.476562 C 8.480469 -11.578125 8.742188 -10.609375 8.742188 -9.570312 L 8.742188 -2.007812 C 8.742188 -1.488281 8.554688 -1.015625 8.199219 -0.613281 C 8.058594 -0.472656 8.03125 -0.355469 8.105469 -0.210938 C 8.152344 -0.0703125 8.269531 0 8.457031 0 L 13.75 0 C 13.894531 0 14.011719 -0.046875 14.058594 -0.1875 C 14.105469 -0.332031 14.105469 -0.449219 14.011719 -0.566406 C 13.609375 -0.992188 13.421875 -1.488281 13.421875 -2.054688 L 13.421875 -9.570312 C 13.421875 -10.585938 13.65625 -11.554688 14.175781 -12.476562 L 19.066406 -21.097656 C 19.445312 -21.761719 19.941406 -22.328125 20.578125 -22.824219 C 20.722656 -22.917969 20.769531 -23.058594 20.695312 -23.25 Z M 20.695312 -23.25 "/></g></g></g><g fill="#ffc1b2" fill-opacity="0.302"><g transform="translate(130.183559, 73.042118)"><g><path d="M 19.421875 -17.671875 L 19.304688 -17.816406 C 18.972656 -18.144531 18.757812 -18.523438 18.617188 -18.949219 C 18.191406 -20.273438 17.320312 -21.359375 16.042969 -22.210938 C 15.332031 -22.65625 14.53125 -23.011719 13.632812 -23.25 C 12.734375 -23.484375 11.8125 -23.601562 10.820312 -23.601562 C 9.828125 -23.601562 8.859375 -23.460938 7.9375 -23.226562 C 7.015625 -22.988281 6.191406 -22.632812 5.457031 -22.1875 C 4.464844 -21.570312 3.734375 -20.839844 3.214844 -19.964844 C 2.695312 -19.089844 2.457031 -18.144531 2.457031 -17.105469 C 2.457031 -15.121094 3.378906 -13.421875 5.269531 -12.027344 C 5.929688 -11.507812 6.640625 -11.082031 7.417969 -10.703125 C 8.199219 -10.324219 9 -9.945312 9.804688 -9.617188 C 10.277344 -9.378906 10.796875 -9.144531 11.316406 -8.90625 C 11.835938 -8.671875 12.308594 -8.410156 12.734375 -8.175781 C 13.160156 -7.914062 13.515625 -7.65625 13.796875 -7.394531 C 14.082031 -7.113281 14.222656 -6.851562 14.222656 -6.59375 C 14.222656 -6.261719 14.105469 -5.953125 13.867188 -5.71875 C 13.632812 -5.480469 13.324219 -5.269531 12.972656 -5.128906 C 12.617188 -4.984375 12.238281 -4.867188 11.8125 -4.796875 C 11.386719 -4.703125 11.011719 -4.679688 10.632812 -4.679688 C 10.160156 -4.679688 9.6875 -4.726562 9.167969 -4.84375 C 8.648438 -4.9375 8.199219 -5.128906 7.84375 -5.386719 C 7.75 -5.457031 7.679688 -5.550781 7.679688 -5.671875 C 7.65625 -5.789062 7.679688 -5.882812 7.773438 -5.976562 L 7.796875 -6 C 7.867188 -6.121094 7.867188 -6.238281 7.820312 -6.378906 C 7.75 -6.519531 7.632812 -6.59375 7.488281 -6.59375 L 2.269531 -6.59375 C 2.101562 -6.59375 1.984375 -6.519531 1.9375 -6.378906 C 1.867188 -6.238281 1.867188 -6.121094 1.960938 -6 L 2.054688 -5.90625 C 2.386719 -5.527344 2.597656 -5.128906 2.742188 -4.726562 C 3.164062 -3.355469 4.015625 -2.269531 5.339844 -1.441406 C 6.046875 -0.96875 6.875 -0.613281 7.773438 -0.378906 C 8.671875 -0.117188 9.640625 0 10.632812 0 C 11.8125 0 12.925781 -0.164062 13.941406 -0.496094 C 14.957031 -0.828125 15.828125 -1.277344 16.5625 -1.867188 C 17.292969 -2.433594 17.863281 -3.140625 18.289062 -3.945312 C 18.6875 -4.75 18.902344 -5.625 18.902344 -6.59375 C 18.902344 -7.609375 18.664062 -8.503906 18.214844 -9.261719 C 17.765625 -10.019531 17.199219 -10.679688 16.492188 -11.246094 C 15.78125 -11.8125 15.027344 -12.285156 14.175781 -12.710938 C 13.324219 -13.136719 12.5 -13.515625 11.695312 -13.894531 C 11.152344 -14.128906 10.609375 -14.363281 10.066406 -14.625 C 9.523438 -14.859375 9.027344 -15.121094 8.601562 -15.40625 C 8.175781 -15.664062 7.820312 -15.949219 7.535156 -16.230469 C 7.253906 -16.515625 7.136719 -16.796875 7.136719 -17.105469 C 7.136719 -17.367188 7.230469 -17.601562 7.464844 -17.839844 C 7.679688 -18.074219 7.960938 -18.261719 8.316406 -18.429688 C 8.648438 -18.570312 9.050781 -18.6875 9.496094 -18.785156 C 9.921875 -18.878906 10.371094 -18.925781 10.820312 -18.925781 C 11.339844 -18.925781 11.859375 -18.855469 12.332031 -18.757812 C 12.804688 -18.640625 13.183594 -18.476562 13.515625 -18.261719 C 13.609375 -18.191406 13.679688 -18.097656 13.679688 -17.980469 C 13.679688 -17.863281 13.65625 -17.765625 13.585938 -17.695312 L 13.585938 -17.671875 C 13.492188 -17.53125 13.492188 -17.414062 13.5625 -17.292969 C 13.609375 -17.152344 13.726562 -17.105469 13.894531 -17.105469 L 19.113281 -17.105469 C 19.257812 -17.105469 19.375 -17.152344 19.445312 -17.292969 C 19.492188 -17.414062 19.492188 -17.53125 19.421875 -17.671875 Z M 19.421875 -17.671875 "/></g></g></g><g fill="#ffc1b2" fill-opacity="0.302"><g transform="translate(151.565651, 73.042118)"><g><path d="M 18.5 -24.074219 L 18.476562 -24.050781 C 18.050781 -23.675781 17.578125 -23.484375 17.035156 -23.484375 L 4.890625 -23.484375 C 4.324219 -23.484375 3.851562 -23.675781 3.425781 -24.050781 L 3.425781 -24.074219 C 3.285156 -24.148438 3.164062 -24.148438 3.023438 -24.074219 C 2.882812 -24.003906 2.835938 -23.910156 2.835938 -23.769531 L 2.835938 -18.523438 C 2.835938 -18.359375 2.882812 -18.238281 3.023438 -18.191406 C 3.164062 -18.121094 3.285156 -18.121094 3.425781 -18.214844 C 3.851562 -18.59375 4.324219 -18.808594 4.890625 -18.808594 L 8.152344 -18.808594 C 8.269531 -18.808594 8.386719 -18.757812 8.480469 -18.664062 C 8.578125 -18.570312 8.625 -18.453125 8.625 -18.335938 L 8.625 -2.078125 C 8.625 -1.511719 8.433594 -1.015625 8.058594 -0.613281 L 8.03125 -0.589844 C 7.9375 -0.449219 7.9375 -0.332031 8.007812 -0.1875 C 8.058594 -0.046875 8.175781 0 8.339844 0 L 13.585938 0 C 13.726562 0 13.820312 -0.046875 13.894531 -0.1875 C 13.964844 -0.332031 13.964844 -0.449219 13.894531 -0.589844 C 13.492188 -1.015625 13.300781 -1.488281 13.300781 -2.054688 L 13.300781 -18.335938 C 13.300781 -18.453125 13.347656 -18.570312 13.445312 -18.664062 C 13.539062 -18.757812 13.632812 -18.808594 13.773438 -18.808594 L 17.035156 -18.808594 C 17.601562 -18.808594 18.074219 -18.59375 18.476562 -18.214844 L 18.5 -18.214844 C 18.617188 -18.121094 18.734375 -18.121094 18.878906 -18.191406 C 19.019531 -18.238281 19.089844 -18.359375 19.089844 -18.523438 L 19.089844 -23.769531 C 19.089844 -23.910156 19.019531 -24.003906 18.878906 -24.074219 C 18.734375 -24.148438 18.617188 -24.148438 18.5 -24.074219 Z M 18.5 -24.074219 "/></g></g></g><g fill="#ffc1b2" fill-opacity="0.302"><g transform="translate(173.491155, 73.042118)"><g><path d="M 17.199219 -23.652344 C 16.796875 -23.273438 16.324219 -23.105469 15.804688 -23.105469 L 3.214844 -23.105469 C 3.046875 -23.105469 2.929688 -23.035156 2.882812 -22.894531 C 2.8125 -22.753906 2.8125 -22.632812 2.90625 -22.515625 L 2.976562 -22.445312 C 3.355469 -22.019531 3.542969 -21.523438 3.542969 -20.957031 L 3.542969 -1.773438 C 3.542969 -1.488281 3.496094 -1.230469 3.402344 -0.96875 C 3.308594 -0.707031 3.164062 -0.472656 2.976562 -0.285156 L 2.90625 -0.210938 C 2.8125 -0.0703125 2.8125 0.046875 2.882812 0.1875 C 2.929688 0.332031 3.046875 0.378906 3.214844 0.378906 L 15.804688 0.378906 C 16.324219 0.378906 16.796875 0.566406 17.199219 0.921875 C 17.320312 1.039062 17.460938 1.0625 17.601562 0.992188 C 17.742188 0.945312 17.839844 0.828125 17.839844 0.636719 L 17.839844 -4.632812 C 17.839844 -4.773438 17.765625 -4.890625 17.625 -4.960938 C 17.484375 -5.007812 17.34375 -4.984375 17.246094 -4.890625 C 16.824219 -4.488281 16.324219 -4.300781 15.757812 -4.300781 L 8.8125 -4.300781 C 8.648438 -4.300781 8.503906 -4.347656 8.386719 -4.464844 C 8.269531 -4.558594 8.222656 -4.703125 8.222656 -4.890625 L 8.222656 -8.433594 C 8.222656 -8.601562 8.269531 -8.742188 8.386719 -8.859375 C 8.503906 -8.953125 8.648438 -9.027344 8.8125 -9.027344 L 10.890625 -9.027344 C 11.460938 -9.027344 11.957031 -8.8125 12.378906 -8.433594 C 12.5 -8.339844 12.617188 -8.339844 12.757812 -8.410156 C 12.898438 -8.480469 12.972656 -8.601562 12.972656 -8.742188 L 12.972656 -13.988281 C 12.972656 -14.128906 12.898438 -14.222656 12.757812 -14.292969 C 12.617188 -14.363281 12.5 -14.363281 12.378906 -14.292969 C 11.957031 -13.894531 11.460938 -13.703125 10.890625 -13.703125 L 8.8125 -13.703125 C 8.648438 -13.703125 8.503906 -13.75 8.386719 -13.867188 C 8.269531 -13.964844 8.222656 -14.105469 8.222656 -14.292969 L 8.222656 -17.839844 C 8.222656 -18.003906 8.269531 -18.144531 8.386719 -18.261719 C 8.503906 -18.359375 8.648438 -18.429688 8.8125 -18.429688 L 15.757812 -18.429688 C 16.324219 -18.429688 16.824219 -18.214844 17.246094 -17.839844 C 17.34375 -17.71875 17.484375 -17.695312 17.625 -17.765625 C 17.765625 -17.816406 17.839844 -17.933594 17.839844 -18.097656 L 17.839844 -23.390625 C 17.839844 -23.53125 17.742188 -23.652344 17.601562 -23.722656 C 17.460938 -23.769531 17.320312 -23.746094 17.199219 -23.652344 Z M 17.199219 -23.652344 "/></g></g></g><g fill="#ffc1b2" fill-opacity="0.302"><g transform="translate(194.164454, 73.042118)"><g><path d="M 25.585938 -1.984375 L 25.585938 -21.5 C 25.585938 -22.019531 25.753906 -22.492188 26.132812 -22.894531 C 26.226562 -23.011719 26.25 -23.128906 26.203125 -23.273438 C 26.132812 -23.414062 26.035156 -23.484375 25.894531 -23.484375 L 20.910156 -23.484375 L 20.886719 -23.460938 L 20.886719 -23.484375 L 20.25 -23.484375 C 20.082031 -23.484375 19.964844 -23.414062 19.917969 -23.273438 C 19.847656 -23.128906 19.847656 -23.011719 19.941406 -22.894531 C 20.035156 -22.753906 20.011719 -22.65625 19.917969 -22.585938 L 15.050781 -18.097656 C 14.886719 -17.957031 14.695312 -17.910156 14.507812 -17.910156 C 14.316406 -17.910156 14.152344 -17.957031 14.011719 -18.097656 L 9.074219 -22.632812 C 8.976562 -22.707031 8.976562 -22.777344 9.074219 -22.871094 C 9.167969 -22.988281 9.191406 -23.128906 9.144531 -23.273438 C 9.074219 -23.414062 8.953125 -23.484375 8.789062 -23.484375 L 3.214844 -23.484375 C 3.046875 -23.484375 2.929688 -23.414062 2.882812 -23.273438 C 2.8125 -23.128906 2.8125 -23.011719 2.90625 -22.894531 L 2.929688 -22.871094 C 3.285156 -22.46875 3.472656 -21.996094 3.472656 -21.476562 L 3.472656 -2.007812 C 3.472656 -1.464844 3.285156 -0.992188 2.929688 -0.613281 L 2.90625 -0.589844 C 2.8125 -0.449219 2.8125 -0.332031 2.882812 -0.1875 C 2.929688 -0.046875 3.046875 0 3.214844 0 L 8.433594 0 C 8.578125 0 8.695312 -0.046875 8.765625 -0.1875 C 8.8125 -0.332031 8.8125 -0.449219 8.742188 -0.589844 L 8.695312 -0.636719 C 8.316406 -1.015625 8.152344 -1.488281 8.152344 -2.03125 L 8.152344 -16.351562 C 8.152344 -16.492188 8.199219 -16.585938 8.339844 -16.632812 C 8.480469 -16.679688 8.601562 -16.679688 8.71875 -16.585938 L 14.011719 -11.671875 C 14.152344 -11.53125 14.316406 -11.460938 14.53125 -11.460938 C 14.71875 -11.460938 14.910156 -11.53125 15.050781 -11.671875 L 20.34375 -16.585938 C 20.4375 -16.679688 20.554688 -16.679688 20.695312 -16.632812 C 20.839844 -16.585938 20.910156 -16.492188 20.910156 -16.351562 L 20.910156 -2.054688 C 20.910156 -1.535156 20.722656 -1.0625 20.34375 -0.660156 L 20.296875 -0.589844 C 20.199219 -0.449219 20.199219 -0.332031 20.273438 -0.1875 C 20.320312 -0.046875 20.4375 0 20.601562 0 L 25.894531 0 C 26.035156 0 26.132812 -0.046875 26.203125 -0.1875 C 26.25 -0.332031 26.226562 -0.449219 26.132812 -0.589844 C 25.753906 -0.96875 25.585938 -1.441406 25.585938 -1.984375 Z M 25.585938 -1.984375 "/></g></g></g><g fill="#ffc1b2" fill-opacity="0.502"><g transform="translate(87.265013, 73.307546)"><g><path d="M 19.421875 -17.671875 L 19.304688 -17.816406 C 18.972656 -18.144531 18.757812 -18.523438 18.617188 -18.949219 C 18.191406 -20.273438 17.320312 -21.359375 16.042969 -22.210938 C 15.332031 -22.65625 14.53125 -23.011719 13.632812 -23.25 C 12.734375 -23.484375 11.8125 -23.601562 10.820312 -23.601562 C 9.828125 -23.601562 8.859375 -23.460938 7.9375 -23.226562 C 7.015625 -22.988281 6.191406 -22.632812 5.457031 -22.1875 C 4.464844 -21.570312 3.734375 -20.839844 3.214844 -19.964844 C 2.695312 -19.089844 2.457031 -18.144531 2.457031 -17.105469 C 2.457031 -15.121094 3.378906 -13.421875 5.269531 -12.027344 C 5.929688 -11.507812 6.640625 -11.082031 7.417969 -10.703125 C 8.199219 -10.324219 9 -9.945312 9.804688 -9.617188 C 10.277344 -9.378906 10.796875 -9.144531 11.316406 -8.90625 C 11.835938 -8.671875 12.308594 -8.410156 12.734375 -8.175781 C 13.160156 -7.914062 13.515625 -7.65625 13.796875 -7.394531 C 14.082031 -7.113281 14.222656 -6.851562 14.222656 -6.59375 C 14.222656 -6.261719 14.105469 -5.953125 13.867188 -5.71875 C 13.632812 -5.480469 13.324219 -5.269531 12.972656 -5.128906 C 12.617188 -4.984375 12.238281 -4.867188 11.8125 -4.796875 C 11.386719 -4.703125 11.011719 -4.679688 10.632812 -4.679688 C 10.160156 -4.679688 9.6875 -4.726562 9.167969 -4.84375 C 8.648438 -4.9375 8.199219 -5.128906 7.84375 -5.386719 C 7.75 -5.457031 7.679688 -5.550781 7.679688 -5.671875 C 7.65625 -5.789062 7.679688 -5.882812 7.773438 -5.976562 L 7.796875 -6 C 7.867188 -6.121094 7.867188 -6.238281 7.820312 -6.378906 C 7.75 -6.519531 7.632812 -6.59375 7.488281 -6.59375 L 2.269531 -6.59375 C 2.101562 -6.59375 1.984375 -6.519531 1.9375 -6.378906 C 1.867188 -6.238281 1.867188 -6.121094 1.960938 -6 L 2.054688 -5.90625 C 2.386719 -5.527344 2.597656 -5.128906 2.742188 -4.726562 C 3.164062 -3.355469 4.015625 -2.269531 5.339844 -1.441406 C 6.046875 -0.96875 6.875 -0.613281 7.773438 -0.378906 C 8.671875 -0.117188 9.640625 0 10.632812 0 C 11.8125 0 12.925781 -0.164062 13.941406 -0.496094 C 14.957031 -0.828125 15.828125 -1.277344 16.5625 -1.867188 C 17.292969 -2.433594 17.863281 -3.140625 18.289062 -3.945312 C 18.6875 -4.75 18.902344 -5.625 18.902344 -6.59375 C 18.902344 -7.609375 18.664062 -8.503906 18.214844 -9.261719 C 17.765625 -10.019531 17.199219 -10.679688 16.492188 -11.246094 C 15.78125 -11.8125 15.027344 -12.285156 14.175781 -12.710938 C 13.324219 -13.136719 12.5 -13.515625 11.695312 -13.894531 C 11.152344 -14.128906 10.609375 -14.363281 10.066406 -14.625 C 9.523438 -14.859375 9.027344 -15.121094 8.601562 -15.40625 C 8.175781 -15.664062 7.820312 -15.949219 7.535156 -16.230469 C 7.253906 -16.515625 7.136719 -16.796875 7.136719 -17.105469 C 7.136719 -17.367188 7.230469 -17.601562 7.464844 -17.839844 C 7.679688 -18.074219 7.960938 -18.261719 8.316406 -18.429688 C 8.648438 -18.570312 9.050781 -18.6875 9.496094 -18.785156 C 9.921875 -18.878906 10.371094 -18.925781 10.820312 -18.925781 C 11.339844 -18.925781 11.859375 -18.855469 12.332031 -18.757812 C 12.804688 -18.640625 13.183594 -18.476562 13.515625 -18.261719 C 13.609375 -18.191406 13.679688 -18.097656 13.679688 -17.980469 C 13.679688 -17.863281 13.65625 -17.765625 13.585938 -17.695312 L 13.585938 -17.671875 C 13.492188 -17.53125 13.492188 -17.414062 13.5625 -17.292969 C 13.609375 -17.152344 13.726562 -17.105469 13.894531 -17.105469 L 19.113281 -17.105469 C 19.257812 -17.105469 19.375 -17.152344 19.445312 -17.292969 C 19.492188 -17.414062 19.492188 -17.53125 19.421875 -17.671875 Z M 19.421875 -17.671875 "/></g></g></g><g fill="#ffc1b2" fill-opacity="0.502"><g transform="translate(108.647105, 73.307546)"><g><path d="M 20.695312 -23.25 C 20.625 -23.390625 20.53125 -23.460938 20.414062 -23.460938 L 20.414062 -23.484375 L 14.484375 -23.484375 C 14.316406 -23.484375 14.199219 -23.414062 14.152344 -23.273438 C 14.082031 -23.128906 14.105469 -22.988281 14.222656 -22.894531 C 14.414062 -22.65625 14.4375 -22.421875 14.292969 -22.1875 L 11.292969 -16.871094 C 11.246094 -16.773438 11.152344 -16.75 11.058594 -16.75 C 10.960938 -16.75 10.890625 -16.773438 10.84375 -16.871094 L 7.84375 -22.1875 C 7.703125 -22.445312 7.726562 -22.683594 7.9375 -22.894531 C 8.03125 -22.988281 8.03125 -23.128906 7.984375 -23.273438 C 7.9375 -23.414062 7.820312 -23.484375 7.679688 -23.484375 L 1.726562 -23.484375 L 1.75 -23.460938 C 1.605469 -23.460938 1.488281 -23.390625 1.441406 -23.25 C 1.394531 -23.15625 1.394531 -23.082031 1.417969 -23.011719 C 1.441406 -22.917969 1.488281 -22.871094 1.558594 -22.824219 L 1.582031 -22.800781 C 1.890625 -22.5625 2.171875 -22.304688 2.410156 -22.019531 C 2.644531 -21.738281 2.882812 -21.429688 3.070312 -21.097656 L 7.960938 -12.476562 C 8.480469 -11.578125 8.742188 -10.609375 8.742188 -9.570312 L 8.742188 -2.007812 C 8.742188 -1.488281 8.554688 -1.015625 8.199219 -0.613281 C 8.058594 -0.472656 8.03125 -0.355469 8.105469 -0.210938 C 8.152344 -0.0703125 8.269531 0 8.457031 0 L 13.75 0 C 13.894531 0 14.011719 -0.046875 14.058594 -0.1875 C 14.105469 -0.332031 14.105469 -0.449219 14.011719 -0.566406 C 13.609375 -0.992188 13.421875 -1.488281 13.421875 -2.054688 L 13.421875 -9.570312 C 13.421875 -10.585938 13.65625 -11.554688 14.175781 -12.476562 L 19.066406 -21.097656 C 19.445312 -21.761719 19.941406 -22.328125 20.578125 -22.824219 C 20.722656 -22.917969 20.769531 -23.058594 20.695312 -23.25 Z M 20.695312 -23.25 "/></g></g></g><g fill="#ffc1b2" fill-opacity="0.502"><g transform="translate(130.808876, 73.307546)"><g><path d="M 19.421875 -17.671875 L 19.304688 -17.816406 C 18.972656 -18.144531 18.757812 -18.523438 18.617188 -18.949219 C 18.191406 -20.273438 17.320312 -21.359375 16.042969 -22.210938 C 15.332031 -22.65625 14.53125 -23.011719 13.632812 -23.25 C 12.734375 -23.484375 11.8125 -23.601562 10.820312 -23.601562 C 9.828125 -23.601562 8.859375 -23.460938 7.9375 -23.226562 C 7.015625 -22.988281 6.191406 -22.632812 5.457031 -22.1875 C 4.464844 -21.570312 3.734375 -20.839844 3.214844 -19.964844 C 2.695312 -19.089844 2.457031 -18.144531 2.457031 -17.105469 C 2.457031 -15.121094 3.378906 -13.421875 5.269531 -12.027344 C 5.929688 -11.507812 6.640625 -11.082031 7.417969 -10.703125 C 8.199219 -10.324219 9 -9.945312 9.804688 -9.617188 C 10.277344 -9.378906 10.796875 -9.144531 11.316406 -8.90625 C 11.835938 -8.671875 12.308594 -8.410156 12.734375 -8.175781 C 13.160156 -7.914062 13.515625 -7.65625 13.796875 -7.394531 C 14.082031 -7.113281 14.222656 -6.851562 14.222656 -6.59375 C 14.222656 -6.261719 14.105469 -5.953125 13.867188 -5.71875 C 13.632812 -5.480469 13.324219 -5.269531 12.972656 -5.128906 C 12.617188 -4.984375 12.238281 -4.867188 11.8125 -4.796875 C 11.386719 -4.703125 11.011719 -4.679688 10.632812 -4.679688 C 10.160156 -4.679688 9.6875 -4.726562 9.167969 -4.84375 C 8.648438 -4.9375 8.199219 -5.128906 7.84375 -5.386719 C 7.75 -5.457031 7.679688 -5.550781 7.679688 -5.671875 C 7.65625 -5.789062 7.679688 -5.882812 7.773438 -5.976562 L 7.796875 -6 C 7.867188 -6.121094 7.867188 -6.238281 7.820312 -6.378906 C 7.75 -6.519531 7.632812 -6.59375 7.488281 -6.59375 L 2.269531 -6.59375 C 2.101562 -6.59375 1.984375 -6.519531 1.9375 -6.378906 C 1.867188 -6.238281 1.867188 -6.121094 1.960938 -6 L 2.054688 -5.90625 C 2.386719 -5.527344 2.597656 -5.128906 2.742188 -4.726562 C 3.164062 -3.355469 4.015625 -2.269531 5.339844 -1.441406 C 6.046875 -0.96875 6.875 -0.613281 7.773438 -0.378906 C 8.671875 -0.117188 9.640625 0 10.632812 0 C 11.8125 0 12.925781 -0.164062 13.941406 -0.496094 C 14.957031 -0.828125 15.828125 -1.277344 16.5625 -1.867188 C 17.292969 -2.433594 17.863281 -3.140625 18.289062 -3.945312 C 18.6875 -4.75 18.902344 -5.625 18.902344 -6.59375 C 18.902344 -7.609375 18.664062 -8.503906 18.214844 -9.261719 C 17.765625 -10.019531 17.199219 -10.679688 16.492188 -11.246094 C 15.78125 -11.8125 15.027344 -12.285156 14.175781 -12.710938 C 13.324219 -13.136719 12.5 -13.515625 11.695312 -13.894531 C 11.152344 -14.128906 10.609375 -14.363281 10.066406 -14.625 C 9.523438 -14.859375 9.027344 -15.121094 8.601562 -15.40625 C 8.175781 -15.664062 7.820312 -15.949219 7.535156 -16.230469 C 7.253906 -16.515625 7.136719 -16.796875 7.136719 -17.105469 C 7.136719 -17.367188 7.230469 -17.601562 7.464844 -17.839844 C 7.679688 -18.074219 7.960938 -18.261719 8.316406 -18.429688 C 8.648438 -18.570312 9.050781 -18.6875 9.496094 -18.785156 C 9.921875 -18.878906 10.371094 -18.925781 10.820312 -18.925781 C 11.339844 -18.925781 11.859375 -18.855469 12.332031 -18.757812 C 12.804688 -18.640625 13.183594 -18.476562 13.515625 -18.261719 C 13.609375 -18.191406 13.679688 -18.097656 13.679688 -17.980469 C 13.679688 -17.863281 13.65625 -17.765625 13.585938 -17.695312 L 13.585938 -17.671875 C 13.492188 -17.53125 13.492188 -17.414062 13.5625 -17.292969 C 13.609375 -17.152344 13.726562 -17.105469 13.894531 -17.105469 L 19.113281 -17.105469 C 19.257812 -17.105469 19.375 -17.152344 19.445312 -17.292969 C 19.492188 -17.414062 19.492188 -17.53125 19.421875 -17.671875 Z M 19.421875 -17.671875 "/></g></g></g><g fill="#ffc1b2" fill-opacity="0.502"><g transform="translate(152.190968, 73.307546)"><g><path d="M 18.5 -24.074219 L 18.476562 -24.050781 C 18.050781 -23.675781 17.578125 -23.484375 17.035156 -23.484375 L 4.890625 -23.484375 C 4.324219 -23.484375 3.851562 -23.675781 3.425781 -24.050781 L 3.425781 -24.074219 C 3.285156 -24.148438 3.164062 -24.148438 3.023438 -24.074219 C 2.882812 -24.003906 2.835938 -23.910156 2.835938 -23.769531 L 2.835938 -18.523438 C 2.835938 -18.359375 2.882812 -18.238281 3.023438 -18.191406 C 3.164062 -18.121094 3.285156 -18.121094 3.425781 -18.214844 C 3.851562 -18.59375 4.324219 -18.808594 4.890625 -18.808594 L 8.152344 -18.808594 C 8.269531 -18.808594 8.386719 -18.757812 8.480469 -18.664062 C 8.578125 -18.570312 8.625 -18.453125 8.625 -18.335938 L 8.625 -2.078125 C 8.625 -1.511719 8.433594 -1.015625 8.058594 -0.613281 L 8.03125 -0.589844 C 7.9375 -0.449219 7.9375 -0.332031 8.007812 -0.1875 C 8.058594 -0.046875 8.175781 0 8.339844 0 L 13.585938 0 C 13.726562 0 13.820312 -0.046875 13.894531 -0.1875 C 13.964844 -0.332031 13.964844 -0.449219 13.894531 -0.589844 C 13.492188 -1.015625 13.300781 -1.488281 13.300781 -2.054688 L 13.300781 -18.335938 C 13.300781 -18.453125 13.347656 -18.570312 13.445312 -18.664062 C 13.539062 -18.757812 13.632812 -18.808594 13.773438 -18.808594 L 17.035156 -18.808594 C 17.601562 -18.808594 18.074219 -18.59375 18.476562 -18.214844 L 18.5 -18.214844 C 18.617188 -18.121094 18.734375 -18.121094 18.878906 -18.191406 C 19.019531 -18.238281 19.089844 -18.359375 19.089844 -18.523438 L 19.089844 -23.769531 C 19.089844 -23.910156 19.019531 -24.003906 18.878906 -24.074219 C 18.734375 -24.148438 18.617188 -24.148438 18.5 -24.074219 Z M 18.5 -24.074219 "/></g></g></g><g fill="#ffc1b2" fill-opacity="0.502"><g transform="translate(174.116473, 73.307546)"><g><path d="M 17.199219 -23.652344 C 16.796875 -23.273438 16.324219 -23.105469 15.804688 -23.105469 L 3.214844 -23.105469 C 3.046875 -23.105469 2.929688 -23.035156 2.882812 -22.894531 C 2.8125 -22.753906 2.8125 -22.632812 2.90625 -22.515625 L 2.976562 -22.445312 C 3.355469 -22.019531 3.542969 -21.523438 3.542969 -20.957031 L 3.542969 -1.773438 C 3.542969 -1.488281 3.496094 -1.230469 3.402344 -0.96875 C 3.308594 -0.707031 3.164062 -0.472656 2.976562 -0.285156 L 2.90625 -0.210938 C 2.8125 -0.0703125 2.8125 0.046875 2.882812 0.1875 C 2.929688 0.332031 3.046875 0.378906 3.214844 0.378906 L 15.804688 0.378906 C 16.324219 0.378906 16.796875 0.566406 17.199219 0.921875 C 17.320312 1.039062 17.460938 1.0625 17.601562 0.992188 C 17.742188 0.945312 17.839844 0.828125 17.839844 0.636719 L 17.839844 -4.632812 C 17.839844 -4.773438 17.765625 -4.890625 17.625 -4.960938 C 17.484375 -5.007812 17.34375 -4.984375 17.246094 -4.890625 C 16.824219 -4.488281 16.324219 -4.300781 15.757812 -4.300781 L 8.8125 -4.300781 C 8.648438 -4.300781 8.503906 -4.347656 8.386719 -4.464844 C 8.269531 -4.558594 8.222656 -4.703125 8.222656 -4.890625 L 8.222656 -8.433594 C 8.222656 -8.601562 8.269531 -8.742188 8.386719 -8.859375 C 8.503906 -8.953125 8.648438 -9.027344 8.8125 -9.027344 L 10.890625 -9.027344 C 11.460938 -9.027344 11.957031 -8.8125 12.378906 -8.433594 C 12.5 -8.339844 12.617188 -8.339844 12.757812 -8.410156 C 12.898438 -8.480469 12.972656 -8.601562 12.972656 -8.742188 L 12.972656 -13.988281 C 12.972656 -14.128906 12.898438 -14.222656 12.757812 -14.292969 C 12.617188 -14.363281 12.5 -14.363281 12.378906 -14.292969 C 11.957031 -13.894531 11.460938 -13.703125 10.890625 -13.703125 L 8.8125 -13.703125 C 8.648438 -13.703125 8.503906 -13.75 8.386719 -13.867188 C 8.269531 -13.964844 8.222656 -14.105469 8.222656 -14.292969 L 8.222656 -17.839844 C 8.222656 -18.003906 8.269531 -18.144531 8.386719 -18.261719 C 8.503906 -18.359375 8.648438 -18.429688 8.8125 -18.429688 L 15.757812 -18.429688 C 16.324219 -18.429688 16.824219 -18.214844 17.246094 -17.839844 C 17.34375 -17.71875 17.484375 -17.695312 17.625 -17.765625 C 17.765625 -17.816406 17.839844 -17.933594 17.839844 -18.097656 L 17.839844 -23.390625 C 17.839844 -23.53125 17.742188 -23.652344 17.601562 -23.722656 C 17.460938 -23.769531 17.320312 -23.746094 17.199219 -23.652344 Z M 17.199219 -23.652344 "/></g></g></g><g fill="#ffc1b2" fill-opacity="0.502"><g transform="translate(194.789771, 73.307546)"><g><path d="M 25.585938 -1.984375 L 25.585938 -21.5 C 25.585938 -22.019531 25.753906 -22.492188 26.132812 -22.894531 C 26.226562 -23.011719 26.25 -23.128906 26.203125 -23.273438 C 26.132812 -23.414062 26.035156 -23.484375 25.894531 -23.484375 L 20.910156 -23.484375 L 20.886719 -23.460938 L 20.886719 -23.484375 L 20.25 -23.484375 C 20.082031 -23.484375 19.964844 -23.414062 19.917969 -23.273438 C 19.847656 -23.128906 19.847656 -23.011719 19.941406 -22.894531 C 20.035156 -22.753906 20.011719 -22.65625 19.917969 -22.585938 L 15.050781 -18.097656 C 14.886719 -17.957031 14.695312 -17.910156 14.507812 -17.910156 C 14.316406 -17.910156 14.152344 -17.957031 14.011719 -18.097656 L 9.074219 -22.632812 C 8.976562 -22.707031 8.976562 -22.777344 9.074219 -22.871094 C 9.167969 -22.988281 9.191406 -23.128906 9.144531 -23.273438 C 9.074219 -23.414062 8.953125 -23.484375 8.789062 -23.484375 L 3.214844 -23.484375 C 3.046875 -23.484375 2.929688 -23.414062 2.882812 -23.273438 C 2.8125 -23.128906 2.8125 -23.011719 2.90625 -22.894531 L 2.929688 -22.871094 C 3.285156 -22.46875 3.472656 -21.996094 3.472656 -21.476562 L 3.472656 -2.007812 C 3.472656 -1.464844 3.285156 -0.992188 2.929688 -0.613281 L 2.90625 -0.589844 C 2.8125 -0.449219 2.8125 -0.332031 2.882812 -0.1875 C 2.929688 -0.046875 3.046875 0 3.214844 0 L 8.433594 0 C 8.578125 0 8.695312 -0.046875 8.765625 -0.1875 C 8.8125 -0.332031 8.8125 -0.449219 8.742188 -0.589844 L 8.695312 -0.636719 C 8.316406 -1.015625 8.152344 -1.488281 8.152344 -2.03125 L 8.152344 -16.351562 C 8.152344 -16.492188 8.199219 -16.585938 8.339844 -16.632812 C 8.480469 -16.679688 8.601562 -16.679688 8.71875 -16.585938 L 14.011719 -11.671875 C 14.152344 -11.53125 14.316406 -11.460938 14.53125 -11.460938 C 14.71875 -11.460938 14.910156 -11.53125 15.050781 -11.671875 L 20.34375 -16.585938 C 20.4375 -16.679688 20.554688 -16.679688 20.695312 -16.632812 C 20.839844 -16.585938 20.910156 -16.492188 20.910156 -16.351562 L 20.910156 -2.054688 C 20.910156 -1.535156 20.722656 -1.0625 20.34375 -0.660156 L 20.296875 -0.589844 C 20.199219 -0.449219 20.199219 -0.332031 20.273438 -0.1875 C 20.320312 -0.046875 20.4375 0 20.601562 0 L 25.894531 0 C 26.035156 0 26.132812 -0.046875 26.203125 -0.1875 C 26.25 -0.332031 26.226562 -0.449219 26.132812 -0.589844 C 25.753906 -0.96875 25.585938 -1.441406 25.585938 -1.984375 Z M 25.585938 -1.984375 "/></g></g></g><g fill="#737373" fill-opacity="1"><g transform="translate(87.890321, 73.572975)"><g><path d="M 19.421875 -17.671875 L 19.304688 -17.816406 C 18.972656 -18.144531 18.757812 -18.523438 18.617188 -18.949219 C 18.191406 -20.273438 17.320312 -21.359375 16.042969 -22.210938 C 15.332031 -22.65625 14.53125 -23.011719 13.632812 -23.25 C 12.734375 -23.484375 11.8125 -23.601562 10.820312 -23.601562 C 9.828125 -23.601562 8.859375 -23.460938 7.9375 -23.226562 C 7.015625 -22.988281 6.191406 -22.632812 5.457031 -22.1875 C 4.464844 -21.570312 3.734375 -20.839844 3.214844 -19.964844 C 2.695312 -19.089844 2.457031 -18.144531 2.457031 -17.105469 C 2.457031 -15.121094 3.378906 -13.421875 5.269531 -12.027344 C 5.929688 -11.507812 6.640625 -11.082031 7.417969 -10.703125 C 8.199219 -10.324219 9 -9.945312 9.804688 -9.617188 C 10.277344 -9.378906 10.796875 -9.144531 11.316406 -8.90625 C 11.835938 -8.671875 12.308594 -8.410156 12.734375 -8.175781 C 13.160156 -7.914062 13.515625 -7.65625 13.796875 -7.394531 C 14.082031 -7.113281 14.222656 -6.851562 14.222656 -6.59375 C 14.222656 -6.261719 14.105469 -5.953125 13.867188 -5.71875 C 13.632812 -5.480469 13.324219 -5.269531 12.972656 -5.128906 C 12.617188 -4.984375 12.238281 -4.867188 11.8125 -4.796875 C 11.386719 -4.703125 11.011719 -4.679688 10.632812 -4.679688 C 10.160156 -4.679688 9.6875 -4.726562 9.167969 -4.84375 C 8.648438 -4.9375 8.199219 -5.128906 7.84375 -5.386719 C 7.75 -5.457031 7.679688 -5.550781 7.679688 -5.671875 C 7.65625 -5.789062 7.679688 -5.882812 7.773438 -5.976562 L 7.796875 -6 C 7.867188 -6.121094 7.867188 -6.238281 7.820312 -6.378906 C 7.75 -6.519531 7.632812 -6.59375 7.488281 -6.59375 L 2.269531 -6.59375 C 2.101562 -6.59375 1.984375 -6.519531 1.9375 -6.378906 C 1.867188 -6.238281 1.867188 -6.121094 1.960938 -6 L 2.054688 -5.90625 C 2.386719 -5.527344 2.597656 -5.128906 2.742188 -4.726562 C 3.164062 -3.355469 4.015625 -2.269531 5.339844 -1.441406 C 6.046875 -0.96875 6.875 -0.613281 7.773438 -0.378906 C 8.671875 -0.117188 9.640625 0 10.632812 0 C 11.8125 0 12.925781 -0.164062 13.941406 -0.496094 C 14.957031 -0.828125 15.828125 -1.277344 16.5625 -1.867188 C 17.292969 -2.433594 17.863281 -3.140625 18.289062 -3.945312 C 18.6875 -4.75 18.902344 -5.625 18.902344 -6.59375 C 18.902344 -7.609375 18.664062 -8.503906 18.214844 -9.261719 C 17.765625 -10.019531 17.199219 -10.679688 16.492188 -11.246094 C 15.78125 -11.8125 15.027344 -12.285156 14.175781 -12.710938 C 13.324219 -13.136719 12.5 -13.515625 11.695312 -13.894531 C 11.152344 -14.128906 10.609375 -14.363281 10.066406 -14.625 C 9.523438 -14.859375 9.027344 -15.121094 8.601562 -15.40625 C 8.175781 -15.664062 7.820312 -15.949219 7.535156 -16.230469 C 7.253906 -16.515625 7.136719 -16.796875 7.136719 -17.105469 C 7.136719 -17.367188 7.230469 -17.601562 7.464844 -17.839844 C 7.679688 -18.074219 7.960938 -18.261719 8.316406 -18.429688 C 8.648438 -18.570312 9.050781 -18.6875 9.496094 -18.785156 C 9.921875 -18.878906 10.371094 -18.925781 10.820312 -18.925781 C 11.339844 -18.925781 11.859375 -18.855469 12.332031 -18.757812 C 12.804688 -18.640625 13.183594 -18.476562 13.515625 -18.261719 C 13.609375 -18.191406 13.679688 -18.097656 13.679688 -17.980469 C 13.679688 -17.863281 13.65625 -17.765625 13.585938 -17.695312 L 13.585938 -17.671875 C 13.492188 -17.53125 13.492188 -17.414062 13.5625 -17.292969 C 13.609375 -17.152344 13.726562 -17.105469 13.894531 -17.105469 L 19.113281 -17.105469 C 19.257812 -17.105469 19.375 -17.152344 19.445312 -17.292969 C 19.492188 -17.414062 19.492188 -17.53125 19.421875 -17.671875 Z M 19.421875 -17.671875 "/></g></g></g><g fill="#737373" fill-opacity="1"><g transform="translate(109.272413, 73.572975)"><g><path d="M 20.695312 -23.25 C 20.625 -23.390625 20.53125 -23.460938 20.414062 -23.460938 L 20.414062 -23.484375 L 14.484375 -23.484375 C 14.316406 -23.484375 14.199219 -23.414062 14.152344 -23.273438 C 14.082031 -23.128906 14.105469 -22.988281 14.222656 -22.894531 C 14.414062 -22.65625 14.4375 -22.421875 14.292969 -22.1875 L 11.292969 -16.871094 C 11.246094 -16.773438 11.152344 -16.75 11.058594 -16.75 C 10.960938 -16.75 10.890625 -16.773438 10.84375 -16.871094 L 7.84375 -22.1875 C 7.703125 -22.445312 7.726562 -22.683594 7.9375 -22.894531 C 8.03125 -22.988281 8.03125 -23.128906 7.984375 -23.273438 C 7.9375 -23.414062 7.820312 -23.484375 7.679688 -23.484375 L 1.726562 -23.484375 L 1.75 -23.460938 C 1.605469 -23.460938 1.488281 -23.390625 1.441406 -23.25 C 1.394531 -23.15625 1.394531 -23.082031 1.417969 -23.011719 C 1.441406 -22.917969 1.488281 -22.871094 1.558594 -22.824219 L 1.582031 -22.800781 C 1.890625 -22.5625 2.171875 -22.304688 2.410156 -22.019531 C 2.644531 -21.738281 2.882812 -21.429688 3.070312 -21.097656 L 7.960938 -12.476562 C 8.480469 -11.578125 8.742188 -10.609375 8.742188 -9.570312 L 8.742188 -2.007812 C 8.742188 -1.488281 8.554688 -1.015625 8.199219 -0.613281 C 8.058594 -0.472656 8.03125 -0.355469 8.105469 -0.210938 C 8.152344 -0.0703125 8.269531 0 8.457031 0 L 13.75 0 C 13.894531 0 14.011719 -0.046875 14.058594 -0.1875 C 14.105469 -0.332031 14.105469 -0.449219 14.011719 -0.566406 C 13.609375 -0.992188 13.421875 -1.488281 13.421875 -2.054688 L 13.421875 -9.570312 C 13.421875 -10.585938 13.65625 -11.554688 14.175781 -12.476562 L 19.066406 -21.097656 C 19.445312 -21.761719 19.941406 -22.328125 20.578125 -22.824219 C 20.722656 -22.917969 20.769531 -23.058594 20.695312 -23.25 Z M 20.695312 -23.25 "/></g></g></g><g fill="#737373" fill-opacity="1"><g transform="translate(131.434184, 73.572975)"><g><path d="M 19.421875 -17.671875 L 19.304688 -17.816406 C 18.972656 -18.144531 18.757812 -18.523438 18.617188 -18.949219 C 18.191406 -20.273438 17.320312 -21.359375 16.042969 -22.210938 C 15.332031 -22.65625 14.53125 -23.011719 13.632812 -23.25 C 12.734375 -23.484375 11.8125 -23.601562 10.820312 -23.601562 C 9.828125 -23.601562 8.859375 -23.460938 7.9375 -23.226562 C 7.015625 -22.988281 6.191406 -22.632812 5.457031 -22.1875 C 4.464844 -21.570312 3.734375 -20.839844 3.214844 -19.964844 C 2.695312 -19.089844 2.457031 -18.144531 2.457031 -17.105469 C 2.457031 -15.121094 3.378906 -13.421875 5.269531 -12.027344 C 5.929688 -11.507812 6.640625 -11.082031 7.417969 -10.703125 C 8.199219 -10.324219 9 -9.945312 9.804688 -9.617188 C 10.277344 -9.378906 10.796875 -9.144531 11.316406 -8.90625 C 11.835938 -8.671875 12.308594 -8.410156 12.734375 -8.175781 C 13.160156 -7.914062 13.515625 -7.65625 13.796875 -7.394531 C 14.082031 -7.113281 14.222656 -6.851562 14.222656 -6.59375 C 14.222656 -6.261719 14.105469 -5.953125 13.867188 -5.71875 C 13.632812 -5.480469 13.324219 -5.269531 12.972656 -5.128906 C 12.617188 -4.984375 12.238281 -4.867188 11.8125 -4.796875 C 11.386719 -4.703125 11.011719 -4.679688 10.632812 -4.679688 C 10.160156 -4.679688 9.6875 -4.726562 9.167969 -4.84375 C 8.648438 -4.9375 8.199219 -5.128906 7.84375 -5.386719 C 7.75 -5.457031 7.679688 -5.550781 7.679688 -5.671875 C 7.65625 -5.789062 7.679688 -5.882812 7.773438 -5.976562 L 7.796875 -6 C 7.867188 -6.121094 7.867188 -6.238281 7.820312 -6.378906 C 7.75 -6.519531 7.632812 -6.59375 7.488281 -6.59375 L 2.269531 -6.59375 C 2.101562 -6.59375 1.984375 -6.519531 1.9375 -6.378906 C 1.867188 -6.238281 1.867188 -6.121094 1.960938 -6 L 2.054688 -5.90625 C 2.386719 -5.527344 2.597656 -5.128906 2.742188 -4.726562 C 3.164062 -3.355469 4.015625 -2.269531 5.339844 -1.441406 C 6.046875 -0.96875 6.875 -0.613281 7.773438 -0.378906 C 8.671875 -0.117188 9.640625 0 10.632812 0 C 11.8125 0 12.925781 -0.164062 13.941406 -0.496094 C 14.957031 -0.828125 15.828125 -1.277344 16.5625 -1.867188 C 17.292969 -2.433594 17.863281 -3.140625 18.289062 -3.945312 C 18.6875 -4.75 18.902344 -5.625 18.902344 -6.59375 C 18.902344 -7.609375 18.664062 -8.503906 18.214844 -9.261719 C 17.765625 -10.019531 17.199219 -10.679688 16.492188 -11.246094 C 15.78125 -11.8125 15.027344 -12.285156 14.175781 -12.710938 C 13.324219 -13.136719 12.5 -13.515625 11.695312 -13.894531 C 11.152344 -14.128906 10.609375 -14.363281 10.066406 -14.625 C 9.523438 -14.859375 9.027344 -15.121094 8.601562 -15.40625 C 8.175781 -15.664062 7.820312 -15.949219 7.535156 -16.230469 C 7.253906 -16.515625 7.136719 -16.796875 7.136719 -17.105469 C 7.136719 -17.367188 7.230469 -17.601562 7.464844 -17.839844 C 7.679688 -18.074219 7.960938 -18.261719 8.316406 -18.429688 C 8.648438 -18.570312 9.050781 -18.6875 9.496094 -18.785156 C 9.921875 -18.878906 10.371094 -18.925781 10.820312 -18.925781 C 11.339844 -18.925781 11.859375 -18.855469 12.332031 -18.757812 C 12.804688 -18.640625 13.183594 -18.476562 13.515625 -18.261719 C 13.609375 -18.191406 13.679688 -18.097656 13.679688 -17.980469 C 13.679688 -17.863281 13.65625 -17.765625 13.585938 -17.695312 L 13.585938 -17.671875 C 13.492188 -17.53125 13.492188 -17.414062 13.5625 -17.292969 C 13.609375 -17.152344 13.726562 -17.105469 13.894531 -17.105469 L 19.113281 -17.105469 C 19.257812 -17.105469 19.375 -17.152344 19.445312 -17.292969 C 19.492188 -17.414062 19.492188 -17.53125 19.421875 -17.671875 Z M 19.421875 -17.671875 "/></g></g></g><g fill="#737373" fill-opacity="1"><g transform="translate(152.816276, 73.572975)"><g><path d="M 18.5 -24.074219 L 18.476562 -24.050781 C 18.050781 -23.675781 17.578125 -23.484375 17.035156 -23.484375 L 4.890625 -23.484375 C 4.324219 -23.484375 3.851562 -23.675781 3.425781 -24.050781 L 3.425781 -24.074219 C 3.285156 -24.148438 3.164062 -24.148438 3.023438 -24.074219 C 2.882812 -24.003906 2.835938 -23.910156 2.835938 -23.769531 L 2.835938 -18.523438 C 2.835938 -18.359375 2.882812 -18.238281 3.023438 -18.191406 C 3.164062 -18.121094 3.285156 -18.121094 3.425781 -18.214844 C 3.851562 -18.59375 4.324219 -18.808594 4.890625 -18.808594 L 8.152344 -18.808594 C 8.269531 -18.808594 8.386719 -18.757812 8.480469 -18.664062 C 8.578125 -18.570312 8.625 -18.453125 8.625 -18.335938 L 8.625 -2.078125 C 8.625 -1.511719 8.433594 -1.015625 8.058594 -0.613281 L 8.03125 -0.589844 C 7.9375 -0.449219 7.9375 -0.332031 8.007812 -0.1875 C 8.058594 -0.046875 8.175781 0 8.339844 0 L 13.585938 0 C 13.726562 0 13.820312 -0.046875 13.894531 -0.1875 C 13.964844 -0.332031 13.964844 -0.449219 13.894531 -0.589844 C 13.492188 -1.015625 13.300781 -1.488281 13.300781 -2.054688 L 13.300781 -18.335938 C 13.300781 -18.453125 13.347656 -18.570312 13.445312 -18.664062 C 13.539062 -18.757812 13.632812 -18.808594 13.773438 -18.808594 L 17.035156 -18.808594 C 17.601562 -18.808594 18.074219 -18.59375 18.476562 -18.214844 L 18.5 -18.214844 C 18.617188 -18.121094 18.734375 -18.121094 18.878906 -18.191406 C 19.019531 -18.238281 19.089844 -18.359375 19.089844 -18.523438 L 19.089844 -23.769531 C 19.089844 -23.910156 19.019531 -24.003906 18.878906 -24.074219 C 18.734375 -24.148438 18.617188 -24.148438 18.5 -24.074219 Z M 18.5 -24.074219 "/></g></g></g><g fill="#737373" fill-opacity="1"><g transform="translate(174.741781, 73.572975)"><g><path d="M 17.199219 -23.652344 C 16.796875 -23.273438 16.324219 -23.105469 15.804688 -23.105469 L 3.214844 -23.105469 C 3.046875 -23.105469 2.929688 -23.035156 2.882812 -22.894531 C 2.8125 -22.753906 2.8125 -22.632812 2.90625 -22.515625 L 2.976562 -22.445312 C 3.355469 -22.019531 3.542969 -21.523438 3.542969 -20.957031 L 3.542969 -1.773438 C 3.542969 -1.488281 3.496094 -1.230469 3.402344 -0.96875 C 3.308594 -0.707031 3.164062 -0.472656 2.976562 -0.285156 L 2.90625 -0.210938 C 2.8125 -0.0703125 2.8125 0.046875 2.882812 0.1875 C 2.929688 0.332031 3.046875 0.378906 3.214844 0.378906 L 15.804688 0.378906 C 16.324219 0.378906 16.796875 0.566406 17.199219 0.921875 C 17.320312 1.039062 17.460938 1.0625 17.601562 0.992188 C 17.742188 0.945312 17.839844 0.828125 17.839844 0.636719 L 17.839844 -4.632812 C 17.839844 -4.773438 17.765625 -4.890625 17.625 -4.960938 C 17.484375 -5.007812 17.34375 -4.984375 17.246094 -4.890625 C 16.824219 -4.488281 16.324219 -4.300781 15.757812 -4.300781 L 8.8125 -4.300781 C 8.648438 -4.300781 8.503906 -4.347656 8.386719 -4.464844 C 8.269531 -4.558594 8.222656 -4.703125 8.222656 -4.890625 L 8.222656 -8.433594 C 8.222656 -8.601562 8.269531 -8.742188 8.386719 -8.859375 C 8.503906 -8.953125 8.648438 -9.027344 8.8125 -9.027344 L 10.890625 -9.027344 C 11.460938 -9.027344 11.957031 -8.8125 12.378906 -8.433594 C 12.5 -8.339844 12.617188 -8.339844 12.757812 -8.410156 C 12.898438 -8.480469 12.972656 -8.601562 12.972656 -8.742188 L 12.972656 -13.988281 C 12.972656 -14.128906 12.898438 -14.222656 12.757812 -14.292969 C 12.617188 -14.363281 12.5 -14.363281 12.378906 -14.292969 C 11.957031 -13.894531 11.460938 -13.703125 10.890625 -13.703125 L 8.8125 -13.703125 C 8.648438 -13.703125 8.503906 -13.75 8.386719 -13.867188 C 8.269531 -13.964844 8.222656 -14.105469 8.222656 -14.292969 L 8.222656 -17.839844 C 8.222656 -18.003906 8.269531 -18.144531 8.386719 -18.261719 C 8.503906 -18.359375 8.648438 -18.429688 8.8125 -18.429688 L 15.757812 -18.429688 C 16.324219 -18.429688 16.824219 -18.214844 17.246094 -17.839844 C 17.34375 -17.71875 17.484375 -17.695312 17.625 -17.765625 C 17.765625 -17.816406 17.839844 -17.933594 17.839844 -18.097656 L 17.839844 -23.390625 C 17.839844 -23.53125 17.742188 -23.652344 17.601562 -23.722656 C 17.460938 -23.769531 17.320312 -23.746094 17.199219 -23.652344 Z M 17.199219 -23.652344 "/></g></g></g><g fill="#737373" fill-opacity="1"><g transform="translate(195.415079, 73.572975)"><g><path d="M 25.585938 -1.984375 L 25.585938 -21.5 C 25.585938 -22.019531 25.753906 -22.492188 26.132812 -22.894531 C 26.226562 -23.011719 26.25 -23.128906 26.203125 -23.273438 C 26.132812 -23.414062 26.035156 -23.484375 25.894531 -23.484375 L 20.910156 -23.484375 L 20.886719 -23.460938 L 20.886719 -23.484375 L 20.25 -23.484375 C 20.082031 -23.484375 19.964844 -23.414062 19.917969 -23.273438 C 19.847656 -23.128906 19.847656 -23.011719 19.941406 -22.894531 C 20.035156 -22.753906 20.011719 -22.65625 19.917969 -22.585938 L 15.050781 -18.097656 C 14.886719 -17.957031 14.695312 -17.910156 14.507812 -17.910156 C 14.316406 -17.910156 14.152344 -17.957031 14.011719 -18.097656 L 9.074219 -22.632812 C 8.976562 -22.707031 8.976562 -22.777344 9.074219 -22.871094 C 9.167969 -22.988281 9.191406 -23.128906 9.144531 -23.273438 C 9.074219 -23.414062 8.953125 -23.484375 8.789062 -23.484375 L 3.214844 -23.484375 C 3.046875 -23.484375 2.929688 -23.414062 2.882812 -23.273438 C 2.8125 -23.128906 2.8125 -23.011719 2.90625 -22.894531 L 2.929688 -22.871094 C 3.285156 -22.46875 3.472656 -21.996094 3.472656 -21.476562 L 3.472656 -2.007812 C 3.472656 -1.464844 3.285156 -0.992188 2.929688 -0.613281 L 2.90625 -0.589844 C 2.8125 -0.449219 2.8125 -0.332031 2.882812 -0.1875 C 2.929688 -0.046875 3.046875 0 3.214844 0 L 8.433594 0 C 8.578125 0 8.695312 -0.046875 8.765625 -0.1875 C 8.8125 -0.332031 8.8125 -0.449219 8.742188 -0.589844 L 8.695312 -0.636719 C 8.316406 -1.015625 8.152344 -1.488281 8.152344 -2.03125 L 8.152344 -16.351562 C 8.152344 -16.492188 8.199219 -16.585938 8.339844 -16.632812 C 8.480469 -16.679688 8.601562 -16.679688 8.71875 -16.585938 L 14.011719 -11.671875 C 14.152344 -11.53125 14.316406 -11.460938 14.53125 -11.460938 C 14.71875 -11.460938 14.910156 -11.53125 15.050781 -11.671875 L 20.34375 -16.585938 C 20.4375 -16.679688 20.554688 -16.679688 20.695312 -16.632812 C 20.839844 -16.585938 20.910156 -16.492188 20.910156 -16.351562 L 20.910156 -2.054688 C 20.910156 -1.535156 20.722656 -1.0625 20.34375 -0.660156 L 20.296875 -0.589844 C 20.199219 -0.449219 20.199219 -0.332031 20.273438 -0.1875 C 20.320312 -0.046875 20.4375 0 20.601562 0 L 25.894531 0 C 26.035156 0 26.132812 -0.046875 26.203125 -0.1875 C 26.25 -0.332031 26.226562 -0.449219 26.132812 -0.589844 C 25.753906 -0.96875 25.585938 -1.441406 25.585938 -1.984375 Z M 25.585938 -1.984375 "/></g></g></g><g fill="#ffc1b2" fill-opacity="0.302"><g transform="translate(98.620321, 110.179813)"><g><path d="M 25.585938 -1.984375 L 25.585938 -21.5 C 25.585938 -22.019531 25.753906 -22.492188 26.132812 -22.894531 C 26.226562 -23.011719 26.25 -23.128906 26.203125 -23.273438 C 26.132812 -23.414062 26.035156 -23.484375 25.894531 -23.484375 L 20.910156 -23.484375 L 20.886719 -23.460938 L 20.886719 -23.484375 L 20.25 -23.484375 C 20.082031 -23.484375 19.964844 -23.414062 19.917969 -23.273438 C 19.847656 -23.128906 19.847656 -23.011719 19.941406 -22.894531 C 20.035156 -22.753906 20.011719 -22.65625 19.917969 -22.585938 L 15.050781 -18.097656 C 14.886719 -17.957031 14.695312 -17.910156 14.507812 -17.910156 C 14.316406 -17.910156 14.152344 -17.957031 14.011719 -18.097656 L 9.074219 -22.632812 C 8.976562 -22.707031 8.976562 -22.777344 9.074219 -22.871094 C 9.167969 -22.988281 9.191406 -23.128906 9.144531 -23.273438 C 9.074219 -23.414062 8.953125 -23.484375 8.789062 -23.484375 L 3.214844 -23.484375 C 3.046875 -23.484375 2.929688 -23.414062 2.882812 -23.273438 C 2.8125 -23.128906 2.8125 -23.011719 2.90625 -22.894531 L 2.929688 -22.871094 C 3.285156 -22.46875 3.472656 -21.996094 3.472656 -21.476562 L 3.472656 -2.007812 C 3.472656 -1.464844 3.285156 -0.992188 2.929688 -0.613281 L 2.90625 -0.589844 C 2.8125 -0.449219 2.8125 -0.332031 2.882812 -0.1875 C 2.929688 -0.046875 3.046875 0 3.214844 0 L 8.433594 0 C 8.578125 0 8.695312 -0.046875 8.765625 -0.1875 C 8.8125 -0.332031 8.8125 -0.449219 8.742188 -0.589844 L 8.695312 -0.636719 C 8.316406 -1.015625 8.152344 -1.488281 8.152344 -2.03125 L 8.152344 -16.351562 C 8.152344 -16.492188 8.199219 -16.585938 8.339844 -16.632812 C 8.480469 -16.679688 8.601562 -16.679688 8.71875 -16.585938 L 14.011719 -11.671875 C 14.152344 -11.53125 14.316406 -11.460938 14.53125 -11.460938 C 14.71875 -11.460938 14.910156 -11.53125 15.050781 -11.671875 L 20.34375 -16.585938 C 20.4375 -16.679688 20.554688 -16.679688 20.695312 -16.632812 C 20.839844 -16.585938 20.910156 -16.492188 20.910156 -16.351562 L 20.910156 -2.054688 C 20.910156 -1.535156 20.722656 -1.0625 20.34375 -0.660156 L 20.296875 -0.589844 C 20.199219 -0.449219 20.199219 -0.332031 20.273438 -0.1875 C 20.320312 -0.046875 20.4375 0 20.601562 0 L 25.894531 0 C 26.035156 0 26.132812 -0.046875 26.203125 -0.1875 C 26.25 -0.332031 26.226562 -0.449219 26.132812 -0.589844 C 25.753906 -0.96875 25.585938 -1.441406 25.585938 -1.984375 Z M 25.585938 -1.984375 "/></g></g></g><g fill="#ffc1b2" fill-opacity="0.302"><g transform="translate(127.681066, 110.179813)"><g><path d="M 17.863281 -19.800781 C 16.964844 -20.980469 15.902344 -21.878906 14.71875 -22.515625 C 13.515625 -23.128906 12.261719 -23.460938 10.9375 -23.460938 C 9.617188 -23.460938 8.339844 -23.128906 7.136719 -22.515625 C 5.929688 -21.878906 4.890625 -20.980469 3.992188 -19.800781 C 3.140625 -18.6875 2.503906 -17.4375 2.078125 -16.066406 C 1.628906 -14.695312 1.417969 -13.230469 1.417969 -11.71875 C 1.417969 -10.207031 1.628906 -8.742188 2.078125 -7.371094 C 2.503906 -5.976562 3.140625 -4.75 3.992188 -3.664062 C 4.890625 -2.480469 5.929688 -1.558594 7.136719 -0.945312 C 8.339844 -0.308594 9.617188 0 10.9375 0 C 12.261719 0 13.515625 -0.308594 14.71875 -0.945312 C 15.902344 -1.558594 16.964844 -2.480469 17.863281 -3.664062 C 18.710938 -4.75 19.351562 -5.976562 19.800781 -7.371094 C 20.222656 -8.742188 20.460938 -10.207031 20.460938 -11.71875 C 20.460938 -13.230469 20.222656 -14.695312 19.800781 -16.066406 C 19.351562 -17.4375 18.710938 -18.6875 17.863281 -19.800781 Z M 10.9375 -4.679688 C 10.277344 -4.679688 9.640625 -4.867188 9.074219 -5.246094 C 8.480469 -5.625 7.960938 -6.121094 7.535156 -6.757812 C 7.089844 -7.394531 6.734375 -8.152344 6.472656 -9 C 6.214844 -9.851562 6.097656 -10.75 6.097656 -11.71875 C 6.097656 -12.664062 6.214844 -13.585938 6.472656 -14.4375 C 6.734375 -15.285156 7.089844 -16.019531 7.535156 -16.679688 C 7.960938 -17.320312 8.480469 -17.839844 9.074219 -18.214844 C 9.640625 -18.59375 10.277344 -18.785156 10.9375 -18.785156 C 11.601562 -18.785156 12.214844 -18.59375 12.804688 -18.214844 C 13.371094 -17.839844 13.894531 -17.320312 14.316406 -16.679688 C 14.742188 -16.019531 15.097656 -15.285156 15.359375 -14.4375 C 15.617188 -13.585938 15.757812 -12.664062 15.757812 -11.71875 C 15.757812 -10.75 15.617188 -9.851562 15.359375 -9 C 15.097656 -8.152344 14.742188 -7.394531 14.316406 -6.757812 C 13.894531 -6.121094 13.371094 -5.625 12.804688 -5.246094 C 12.214844 -4.867188 11.601562 -4.679688 10.9375 -4.679688 Z M 10.9375 -4.679688 "/></g></g></g><g fill="#ffc1b2" fill-opacity="0.302"><g transform="translate(149.559314, 110.179813)"><g><path d="M 18.191406 -19.304688 C 17.4375 -20.648438 16.515625 -21.6875 15.429688 -22.398438 C 14.339844 -23.105469 13.113281 -23.484375 11.789062 -23.484375 L 3.191406 -23.484375 C 3.023438 -23.484375 2.90625 -23.414062 2.859375 -23.273438 C 2.789062 -23.128906 2.8125 -22.988281 2.929688 -22.894531 C 3.355469 -22.421875 3.589844 -21.855469 3.589844 -21.21875 L 3.589844 -2.246094 C 3.589844 -1.605469 3.355469 -1.039062 2.929688 -0.566406 C 2.8125 -0.449219 2.789062 -0.332031 2.859375 -0.1875 C 2.90625 -0.046875 3.023438 0 3.191406 0 L 11.789062 0 C 13.113281 0 14.339844 -0.355469 15.429688 -1.0625 C 16.515625 -1.773438 17.4375 -2.789062 18.191406 -4.132812 C 18.734375 -5.152344 19.160156 -6.308594 19.46875 -7.609375 C 19.777344 -8.90625 19.941406 -10.277344 19.941406 -11.71875 C 19.941406 -13.136719 19.777344 -14.507812 19.46875 -15.804688 C 19.160156 -17.105469 18.734375 -18.261719 18.191406 -19.304688 Z M 14.082031 -6.402344 C 13.84375 -5.976562 13.609375 -5.648438 13.371094 -5.410156 C 13.136719 -5.175781 12.898438 -4.984375 12.710938 -4.890625 C 12.5 -4.773438 12.308594 -4.703125 12.144531 -4.703125 C 11.980469 -4.679688 11.859375 -4.679688 11.789062 -4.679688 L 9.144531 -4.679688 C 8.90625 -4.679688 8.695312 -4.75 8.527344 -4.9375 C 8.339844 -5.101562 8.269531 -5.316406 8.269531 -5.550781 L 8.269531 -17.625 C 8.269531 -17.933594 8.363281 -18.191406 8.601562 -18.429688 C 8.835938 -18.664062 9.121094 -18.785156 9.449219 -18.785156 L 11.789062 -18.785156 C 12.308594 -18.785156 12.804688 -18.570312 13.230469 -18.167969 C 13.65625 -17.742188 14.035156 -17.199219 14.339844 -16.539062 C 14.625 -15.878906 14.859375 -15.121094 15.027344 -14.269531 C 15.167969 -13.421875 15.261719 -12.570312 15.261719 -11.71875 C 15.261719 -10.679688 15.144531 -9.6875 14.957031 -8.765625 C 14.742188 -7.84375 14.460938 -7.0625 14.082031 -6.402344 Z M 14.082031 -6.402344 "/></g></g></g><g fill="#ffc1b2" fill-opacity="0.302"><g transform="translate(171.390313, 110.179813)"><g><path d="M 17.199219 -23.652344 C 16.796875 -23.273438 16.324219 -23.105469 15.804688 -23.105469 L 3.214844 -23.105469 C 3.046875 -23.105469 2.929688 -23.035156 2.882812 -22.894531 C 2.8125 -22.753906 2.8125 -22.632812 2.90625 -22.515625 L 2.976562 -22.445312 C 3.355469 -22.019531 3.542969 -21.523438 3.542969 -20.957031 L 3.542969 -1.773438 C 3.542969 -1.488281 3.496094 -1.230469 3.402344 -0.96875 C 3.308594 -0.707031 3.164062 -0.472656 2.976562 -0.285156 L 2.90625 -0.210938 C 2.8125 -0.0703125 2.8125 0.046875 2.882812 0.1875 C 2.929688 0.332031 3.046875 0.378906 3.214844 0.378906 L 15.804688 0.378906 C 16.324219 0.378906 16.796875 0.566406 17.199219 0.921875 C 17.320312 1.039062 17.460938 1.0625 17.601562 0.992188 C 17.742188 0.945312 17.839844 0.828125 17.839844 0.636719 L 17.839844 -4.632812 C 17.839844 -4.773438 17.765625 -4.890625 17.625 -4.960938 C 17.484375 -5.007812 17.34375 -4.984375 17.246094 -4.890625 C 16.824219 -4.488281 16.324219 -4.300781 15.757812 -4.300781 L 8.8125 -4.300781 C 8.648438 -4.300781 8.503906 -4.347656 8.386719 -4.464844 C 8.269531 -4.558594 8.222656 -4.703125 8.222656 -4.890625 L 8.222656 -8.433594 C 8.222656 -8.601562 8.269531 -8.742188 8.386719 -8.859375 C 8.503906 -8.953125 8.648438 -9.027344 8.8125 -9.027344 L 10.890625 -9.027344 C 11.460938 -9.027344 11.957031 -8.8125 12.378906 -8.433594 C 12.5 -8.339844 12.617188 -8.339844 12.757812 -8.410156 C 12.898438 -8.480469 12.972656 -8.601562 12.972656 -8.742188 L 12.972656 -13.988281 C 12.972656 -14.128906 12.898438 -14.222656 12.757812 -14.292969 C 12.617188 -14.363281 12.5 -14.363281 12.378906 -14.292969 C 11.957031 -13.894531 11.460938 -13.703125 10.890625 -13.703125 L 8.8125 -13.703125 C 8.648438 -13.703125 8.503906 -13.75 8.386719 -13.867188 C 8.269531 -13.964844 8.222656 -14.105469 8.222656 -14.292969 L 8.222656 -17.839844 C 8.222656 -18.003906 8.269531 -18.144531 8.386719 -18.261719 C 8.503906 -18.359375 8.648438 -18.429688 8.8125 -18.429688 L 15.757812 -18.429688 C 16.324219 -18.429688 16.824219 -18.214844 17.246094 -17.839844 C 17.34375 -17.71875 17.484375 -17.695312 17.625 -17.765625 C 17.765625 -17.816406 17.839844 -17.933594 17.839844 -18.097656 L 17.839844 -23.390625 C 17.839844 -23.53125 17.742188 -23.652344 17.601562 -23.722656 C 17.460938 -23.769531 17.320312 -23.746094 17.199219 -23.652344 Z M 17.199219 -23.652344 "/></g></g></g><g fill="#ffc1b2" fill-opacity="0.302"><g transform="translate(192.063606, 110.179813)"><g><path d="M 17.175781 -5.222656 L 16.894531 -4.984375 C 16.632812 -4.75 16.351562 -4.65625 16.042969 -4.65625 L 8.71875 -4.65625 C 8.554688 -4.65625 8.410156 -4.703125 8.316406 -4.796875 C 8.199219 -4.890625 8.152344 -5.03125 8.152344 -5.222656 L 8.152344 -21.382812 C 8.152344 -21.925781 8.339844 -22.421875 8.71875 -22.847656 L 8.742188 -22.871094 C 8.8125 -22.988281 8.8125 -23.105469 8.765625 -23.25 C 8.695312 -23.367188 8.578125 -23.4375 8.433594 -23.4375 L 3.214844 -23.4375 C 3.046875 -23.4375 2.929688 -23.367188 2.882812 -23.25 C 2.8125 -23.105469 2.8125 -22.988281 2.90625 -22.871094 C 3.285156 -22.445312 3.472656 -21.949219 3.472656 -21.40625 L 3.472656 -0.519531 C 3.472656 -0.355469 3.519531 -0.210938 3.636719 -0.117188 C 3.734375 0 3.875 0.046875 4.039062 0.046875 L 16.042969 0.046875 C 16.351562 0.046875 16.632812 0.164062 16.894531 0.378906 L 17.175781 0.613281 C 17.292969 0.707031 17.414062 0.707031 17.554688 0.636719 C 17.671875 0.589844 17.742188 0.472656 17.742188 0.308594 L 17.742188 -4.914062 C 17.742188 -5.054688 17.671875 -5.175781 17.554688 -5.246094 C 17.414062 -5.292969 17.292969 -5.292969 17.175781 -5.222656 Z M 17.175781 -5.222656 "/></g></g></g><g fill="#ffc1b2" fill-opacity="0.502"><g transform="translate(99.245639, 110.445237)"><g><path d="M 25.585938 -1.984375 L 25.585938 -21.5 C 25.585938 -22.019531 25.753906 -22.492188 26.132812 -22.894531 C 26.226562 -23.011719 26.25 -23.128906 26.203125 -23.273438 C 26.132812 -23.414062 26.035156 -23.484375 25.894531 -23.484375 L 20.910156 -23.484375 L 20.886719 -23.460938 L 20.886719 -23.484375 L 20.25 -23.484375 C 20.082031 -23.484375 19.964844 -23.414062 19.917969 -23.273438 C 19.847656 -23.128906 19.847656 -23.011719 19.941406 -22.894531 C 20.035156 -22.753906 20.011719 -22.65625 19.917969 -22.585938 L 15.050781 -18.097656 C 14.886719 -17.957031 14.695312 -17.910156 14.507812 -17.910156 C 14.316406 -17.910156 14.152344 -17.957031 14.011719 -18.097656 L 9.074219 -22.632812 C 8.976562 -22.707031 8.976562 -22.777344 9.074219 -22.871094 C 9.167969 -22.988281 9.191406 -23.128906 9.144531 -23.273438 C 9.074219 -23.414062 8.953125 -23.484375 8.789062 -23.484375 L 3.214844 -23.484375 C 3.046875 -23.484375 2.929688 -23.414062 2.882812 -23.273438 C 2.8125 -23.128906 2.8125 -23.011719 2.90625 -22.894531 L 2.929688 -22.871094 C 3.285156 -22.46875 3.472656 -21.996094 3.472656 -21.476562 L 3.472656 -2.007812 C 3.472656 -1.464844 3.285156 -0.992188 2.929688 -0.613281 L 2.90625 -0.589844 C 2.8125 -0.449219 2.8125 -0.332031 2.882812 -0.1875 C 2.929688 -0.046875 3.046875 0 3.214844 0 L 8.433594 0 C 8.578125 0 8.695312 -0.046875 8.765625 -0.1875 C 8.8125 -0.332031 8.8125 -0.449219 8.742188 -0.589844 L 8.695312 -0.636719 C 8.316406 -1.015625 8.152344 -1.488281 8.152344 -2.03125 L 8.152344 -16.351562 C 8.152344 -16.492188 8.199219 -16.585938 8.339844 -16.632812 C 8.480469 -16.679688 8.601562 -16.679688 8.71875 -16.585938 L 14.011719 -11.671875 C 14.152344 -11.53125 14.316406 -11.460938 14.53125 -11.460938 C 14.71875 -11.460938 14.910156 -11.53125 15.050781 -11.671875 L 20.34375 -16.585938 C 20.4375 -16.679688 20.554688 -16.679688 20.695312 -16.632812 C 20.839844 -16.585938 20.910156 -16.492188 20.910156 -16.351562 L 20.910156 -2.054688 C 20.910156 -1.535156 20.722656 -1.0625 20.34375 -0.660156 L 20.296875 -0.589844 C 20.199219 -0.449219 20.199219 -0.332031 20.273438 -0.1875 C 20.320312 -0.046875 20.4375 0 20.601562 0 L 25.894531 0 C 26.035156 0 26.132812 -0.046875 26.203125 -0.1875 C 26.25 -0.332031 26.226562 -0.449219 26.132812 -0.589844 C 25.753906 -0.96875 25.585938 -1.441406 25.585938 -1.984375 Z M 25.585938 -1.984375 "/></g></g></g><g fill="#ffc1b2" fill-opacity="0.502"><g transform="translate(128.306383, 110.445237)"><g><path d="M 17.863281 -19.800781 C 16.964844 -20.980469 15.902344 -21.878906 14.71875 -22.515625 C 13.515625 -23.128906 12.261719 -23.460938 10.9375 -23.460938 C 9.617188 -23.460938 8.339844 -23.128906 7.136719 -22.515625 C 5.929688 -21.878906 4.890625 -20.980469 3.992188 -19.800781 C 3.140625 -18.6875 2.503906 -17.4375 2.078125 -16.066406 C 1.628906 -14.695312 1.417969 -13.230469 1.417969 -11.71875 C 1.417969 -10.207031 1.628906 -8.742188 2.078125 -7.371094 C 2.503906 -5.976562 3.140625 -4.75 3.992188 -3.664062 C 4.890625 -2.480469 5.929688 -1.558594 7.136719 -0.945312 C 8.339844 -0.308594 9.617188 0 10.9375 0 C 12.261719 0 13.515625 -0.308594 14.71875 -0.945312 C 15.902344 -1.558594 16.964844 -2.480469 17.863281 -3.664062 C 18.710938 -4.75 19.351562 -5.976562 19.800781 -7.371094 C 20.222656 -8.742188 20.460938 -10.207031 20.460938 -11.71875 C 20.460938 -13.230469 20.222656 -14.695312 19.800781 -16.066406 C 19.351562 -17.4375 18.710938 -18.6875 17.863281 -19.800781 Z M 10.9375 -4.679688 C 10.277344 -4.679688 9.640625 -4.867188 9.074219 -5.246094 C 8.480469 -5.625 7.960938 -6.121094 7.535156 -6.757812 C 7.089844 -7.394531 6.734375 -8.152344 6.472656 -9 C 6.214844 -9.851562 6.097656 -10.75 6.097656 -11.71875 C 6.097656 -12.664062 6.214844 -13.585938 6.472656 -14.4375 C 6.734375 -15.285156 7.089844 -16.019531 7.535156 -16.679688 C 7.960938 -17.320312 8.480469 -17.839844 9.074219 -18.214844 C 9.640625 -18.59375 10.277344 -18.785156 10.9375 -18.785156 C 11.601562 -18.785156 12.214844 -18.59375 12.804688 -18.214844 C 13.371094 -17.839844 13.894531 -17.320312 14.316406 -16.679688 C 14.742188 -16.019531 15.097656 -15.285156 15.359375 -14.4375 C 15.617188 -13.585938 15.757812 -12.664062 15.757812 -11.71875 C 15.757812 -10.75 15.617188 -9.851562 15.359375 -9 C 15.097656 -8.152344 14.742188 -7.394531 14.316406 -6.757812 C 13.894531 -6.121094 13.371094 -5.625 12.804688 -5.246094 C 12.214844 -4.867188 11.601562 -4.679688 10.9375 -4.679688 Z M 10.9375 -4.679688 "/></g></g></g><g fill="#ffc1b2" fill-opacity="0.502"><g transform="translate(150.184632, 110.445237)"><g><path d="M 18.191406 -19.304688 C 17.4375 -20.648438 16.515625 -21.6875 15.429688 -22.398438 C 14.339844 -23.105469 13.113281 -23.484375 11.789062 -23.484375 L 3.191406 -23.484375 C 3.023438 -23.484375 2.90625 -23.414062 2.859375 -23.273438 C 2.789062 -23.128906 2.8125 -22.988281 2.929688 -22.894531 C 3.355469 -22.421875 3.589844 -21.855469 3.589844 -21.21875 L 3.589844 -2.246094 C 3.589844 -1.605469 3.355469 -1.039062 2.929688 -0.566406 C 2.8125 -0.449219 2.789062 -0.332031 2.859375 -0.1875 C 2.90625 -0.046875 3.023438 0 3.191406 0 L 11.789062 0 C 13.113281 0 14.339844 -0.355469 15.429688 -1.0625 C 16.515625 -1.773438 17.4375 -2.789062 18.191406 -4.132812 C 18.734375 -5.152344 19.160156 -6.308594 19.46875 -7.609375 C 19.777344 -8.90625 19.941406 -10.277344 19.941406 -11.71875 C 19.941406 -13.136719 19.777344 -14.507812 19.46875 -15.804688 C 19.160156 -17.105469 18.734375 -18.261719 18.191406 -19.304688 Z M 14.082031 -6.402344 C 13.84375 -5.976562 13.609375 -5.648438 13.371094 -5.410156 C 13.136719 -5.175781 12.898438 -4.984375 12.710938 -4.890625 C 12.5 -4.773438 12.308594 -4.703125 12.144531 -4.703125 C 11.980469 -4.679688 11.859375 -4.679688 11.789062 -4.679688 L 9.144531 -4.679688 C 8.90625 -4.679688 8.695312 -4.75 8.527344 -4.9375 C 8.339844 -5.101562 8.269531 -5.316406 8.269531 -5.550781 L 8.269531 -17.625 C 8.269531 -17.933594 8.363281 -18.191406 8.601562 -18.429688 C 8.835938 -18.664062 9.121094 -18.785156 9.449219 -18.785156 L 11.789062 -18.785156 C 12.308594 -18.785156 12.804688 -18.570312 13.230469 -18.167969 C 13.65625 -17.742188 14.035156 -17.199219 14.339844 -16.539062 C 14.625 -15.878906 14.859375 -15.121094 15.027344 -14.269531 C 15.167969 -13.421875 15.261719 -12.570312 15.261719 -11.71875 C 15.261719 -10.679688 15.144531 -9.6875 14.957031 -8.765625 C 14.742188 -7.84375 14.460938 -7.0625 14.082031 -6.402344 Z M 14.082031 -6.402344 "/></g></g></g><g fill="#ffc1b2" fill-opacity="0.502"><g transform="translate(172.01563, 110.445237)"><g><path d="M 17.199219 -23.652344 C 16.796875 -23.273438 16.324219 -23.105469 15.804688 -23.105469 L 3.214844 -23.105469 C 3.046875 -23.105469 2.929688 -23.035156 2.882812 -22.894531 C 2.8125 -22.753906 2.8125 -22.632812 2.90625 -22.515625 L 2.976562 -22.445312 C 3.355469 -22.019531 3.542969 -21.523438 3.542969 -20.957031 L 3.542969 -1.773438 C 3.542969 -1.488281 3.496094 -1.230469 3.402344 -0.96875 C 3.308594 -0.707031 3.164062 -0.472656 2.976562 -0.285156 L 2.90625 -0.210938 C 2.8125 -0.0703125 2.8125 0.046875 2.882812 0.1875 C 2.929688 0.332031 3.046875 0.378906 3.214844 0.378906 L 15.804688 0.378906 C 16.324219 0.378906 16.796875 0.566406 17.199219 0.921875 C 17.320312 1.039062 17.460938 1.0625 17.601562 0.992188 C 17.742188 0.945312 17.839844 0.828125 17.839844 0.636719 L 17.839844 -4.632812 C 17.839844 -4.773438 17.765625 -4.890625 17.625 -4.960938 C 17.484375 -5.007812 17.34375 -4.984375 17.246094 -4.890625 C 16.824219 -4.488281 16.324219 -4.300781 15.757812 -4.300781 L 8.8125 -4.300781 C 8.648438 -4.300781 8.503906 -4.347656 8.386719 -4.464844 C 8.269531 -4.558594 8.222656 -4.703125 8.222656 -4.890625 L 8.222656 -8.433594 C 8.222656 -8.601562 8.269531 -8.742188 8.386719 -8.859375 C 8.503906 -8.953125 8.648438 -9.027344 8.8125 -9.027344 L 10.890625 -9.027344 C 11.460938 -9.027344 11.957031 -8.8125 12.378906 -8.433594 C 12.5 -8.339844 12.617188 -8.339844 12.757812 -8.410156 C 12.898438 -8.480469 12.972656 -8.601562 12.972656 -8.742188 L 12.972656 -13.988281 C 12.972656 -14.128906 12.898438 -14.222656 12.757812 -14.292969 C 12.617188 -14.363281 12.5 -14.363281 12.378906 -14.292969 C 11.957031 -13.894531 11.460938 -13.703125 10.890625 -13.703125 L 8.8125 -13.703125 C 8.648438 -13.703125 8.503906 -13.75 8.386719 -13.867188 C 8.269531 -13.964844 8.222656 -14.105469 8.222656 -14.292969 L 8.222656 -17.839844 C 8.222656 -18.003906 8.269531 -18.144531 8.386719 -18.261719 C 8.503906 -18.359375 8.648438 -18.429688 8.8125 -18.429688 L 15.757812 -18.429688 C 16.324219 -18.429688 16.824219 -18.214844 17.246094 -17.839844 C 17.34375 -17.71875 17.484375 -17.695312 17.625 -17.765625 C 17.765625 -17.816406 17.839844 -17.933594 17.839844 -18.097656 L 17.839844 -23.390625 C 17.839844 -23.53125 17.742188 -23.652344 17.601562 -23.722656 C 17.460938 -23.769531 17.320312 -23.746094 17.199219 -23.652344 Z M 17.199219 -23.652344 "/></g></g></g><g fill="#ffc1b2" fill-opacity="0.502"><g transform="translate(192.688923, 110.445237)"><g><path d="M 17.175781 -5.222656 L 16.894531 -4.984375 C 16.632812 -4.75 16.351562 -4.65625 16.042969 -4.65625 L 8.71875 -4.65625 C 8.554688 -4.65625 8.410156 -4.703125 8.316406 -4.796875 C 8.199219 -4.890625 8.152344 -5.03125 8.152344 -5.222656 L 8.152344 -21.382812 C 8.152344 -21.925781 8.339844 -22.421875 8.71875 -22.847656 L 8.742188 -22.871094 C 8.8125 -22.988281 8.8125 -23.105469 8.765625 -23.25 C 8.695312 -23.367188 8.578125 -23.4375 8.433594 -23.4375 L 3.214844 -23.4375 C 3.046875 -23.4375 2.929688 -23.367188 2.882812 -23.25 C 2.8125 -23.105469 2.8125 -22.988281 2.90625 -22.871094 C 3.285156 -22.445312 3.472656 -21.949219 3.472656 -21.40625 L 3.472656 -0.519531 C 3.472656 -0.355469 3.519531 -0.210938 3.636719 -0.117188 C 3.734375 0 3.875 0.046875 4.039062 0.046875 L 16.042969 0.046875 C 16.351562 0.046875 16.632812 0.164062 16.894531 0.378906 L 17.175781 0.613281 C 17.292969 0.707031 17.414062 0.707031 17.554688 0.636719 C 17.671875 0.589844 17.742188 0.472656 17.742188 0.308594 L 17.742188 -4.914062 C 17.742188 -5.054688 17.671875 -5.175781 17.554688 -5.246094 C 17.414062 -5.292969 17.292969 -5.292969 17.175781 -5.222656 Z M 17.175781 -5.222656 "/></g></g></g><g fill="#737373" fill-opacity="1"><g transform="translate(99.870947, 110.71067)"><g><path d="M 25.585938 -1.984375 L 25.585938 -21.5 C 25.585938 -22.019531 25.753906 -22.492188 26.132812 -22.894531 C 26.226562 -23.011719 26.25 -23.128906 26.203125 -23.273438 C 26.132812 -23.414062 26.035156 -23.484375 25.894531 -23.484375 L 20.910156 -23.484375 L 20.886719 -23.460938 L 20.886719 -23.484375 L 20.25 -23.484375 C 20.082031 -23.484375 19.964844 -23.414062 19.917969 -23.273438 C 19.847656 -23.128906 19.847656 -23.011719 19.941406 -22.894531 C 20.035156 -22.753906 20.011719 -22.65625 19.917969 -22.585938 L 15.050781 -18.097656 C 14.886719 -17.957031 14.695312 -17.910156 14.507812 -17.910156 C 14.316406 -17.910156 14.152344 -17.957031 14.011719 -18.097656 L 9.074219 -22.632812 C 8.976562 -22.707031 8.976562 -22.777344 9.074219 -22.871094 C 9.167969 -22.988281 9.191406 -23.128906 9.144531 -23.273438 C 9.074219 -23.414062 8.953125 -23.484375 8.789062 -23.484375 L 3.214844 -23.484375 C 3.046875 -23.484375 2.929688 -23.414062 2.882812 -23.273438 C 2.8125 -23.128906 2.8125 -23.011719 2.90625 -22.894531 L 2.929688 -22.871094 C 3.285156 -22.46875 3.472656 -21.996094 3.472656 -21.476562 L 3.472656 -2.007812 C 3.472656 -1.464844 3.285156 -0.992188 2.929688 -0.613281 L 2.90625 -0.589844 C 2.8125 -0.449219 2.8125 -0.332031 2.882812 -0.1875 C 2.929688 -0.046875 3.046875 0 3.214844 0 L 8.433594 0 C 8.578125 0 8.695312 -0.046875 8.765625 -0.1875 C 8.8125 -0.332031 8.8125 -0.449219 8.742188 -0.589844 L 8.695312 -0.636719 C 8.316406 -1.015625 8.152344 -1.488281 8.152344 -2.03125 L 8.152344 -16.351562 C 8.152344 -16.492188 8.199219 -16.585938 8.339844 -16.632812 C 8.480469 -16.679688 8.601562 -16.679688 8.71875 -16.585938 L 14.011719 -11.671875 C 14.152344 -11.53125 14.316406 -11.460938 14.53125 -11.460938 C 14.71875 -11.460938 14.910156 -11.53125 15.050781 -11.671875 L 20.34375 -16.585938 C 20.4375 -16.679688 20.554688 -16.679688 20.695312 -16.632812 C 20.839844 -16.585938 20.910156 -16.492188 20.910156 -16.351562 L 20.910156 -2.054688 C 20.910156 -1.535156 20.722656 -1.0625 20.34375 -0.660156 L 20.296875 -0.589844 C 20.199219 -0.449219 20.199219 -0.332031 20.273438 -0.1875 C 20.320312 -0.046875 20.4375 0 20.601562 0 L 25.894531 0 C 26.035156 0 26.132812 -0.046875 26.203125 -0.1875 C 26.25 -0.332031 26.226562 -0.449219 26.132812 -0.589844 C 25.753906 -0.96875 25.585938 -1.441406 25.585938 -1.984375 Z M 25.585938 -1.984375 "/></g></g></g><g fill="#737373" fill-opacity="1"><g transform="translate(128.931691, 110.71067)"><g><path d="M 17.863281 -19.800781 C 16.964844 -20.980469 15.902344 -21.878906 14.71875 -22.515625 C 13.515625 -23.128906 12.261719 -23.460938 10.9375 -23.460938 C 9.617188 -23.460938 8.339844 -23.128906 7.136719 -22.515625 C 5.929688 -21.878906 4.890625 -20.980469 3.992188 -19.800781 C 3.140625 -18.6875 2.503906 -17.4375 2.078125 -16.066406 C 1.628906 -14.695312 1.417969 -13.230469 1.417969 -11.71875 C 1.417969 -10.207031 1.628906 -8.742188 2.078125 -7.371094 C 2.503906 -5.976562 3.140625 -4.75 3.992188 -3.664062 C 4.890625 -2.480469 5.929688 -1.558594 7.136719 -0.945312 C 8.339844 -0.308594 9.617188 0 10.9375 0 C 12.261719 0 13.515625 -0.308594 14.71875 -0.945312 C 15.902344 -1.558594 16.964844 -2.480469 17.863281 -3.664062 C 18.710938 -4.75 19.351562 -5.976562 19.800781 -7.371094 C 20.222656 -8.742188 20.460938 -10.207031 20.460938 -11.71875 C 20.460938 -13.230469 20.222656 -14.695312 19.800781 -16.066406 C 19.351562 -17.4375 18.710938 -18.6875 17.863281 -19.800781 Z M 10.9375 -4.679688 C 10.277344 -4.679688 9.640625 -4.867188 9.074219 -5.246094 C 8.480469 -5.625 7.960938 -6.121094 7.535156 -6.757812 C 7.089844 -7.394531 6.734375 -8.152344 6.472656 -9 C 6.214844 -9.851562 6.097656 -10.75 6.097656 -11.71875 C 6.097656 -12.664062 6.214844 -13.585938 6.472656 -14.4375 C 6.734375 -15.285156 7.089844 -16.019531 7.535156 -16.679688 C 7.960938 -17.320312 8.480469 -17.839844 9.074219 -18.214844 C 9.640625 -18.59375 10.277344 -18.785156 10.9375 -18.785156 C 11.601562 -18.785156 12.214844 -18.59375 12.804688 -18.214844 C 13.371094 -17.839844 13.894531 -17.320312 14.316406 -16.679688 C 14.742188 -16.019531 15.097656 -15.285156 15.359375 -14.4375 C 15.617188 -13.585938 15.757812 -12.664062 15.757812 -11.71875 C 15.757812 -10.75 15.617188 -9.851562 15.359375 -9 C 15.097656 -8.152344 14.742188 -7.394531 14.316406 -6.757812 C 13.894531 -6.121094 13.371094 -5.625 12.804688 -5.246094 C 12.214844 -4.867188 11.601562 -4.679688 10.9375 -4.679688 Z M 10.9375 -4.679688 "/></g></g></g><g fill="#737373" fill-opacity="1"><g transform="translate(150.80994, 110.71067)"><g><path d="M 18.191406 -19.304688 C 17.4375 -20.648438 16.515625 -21.6875 15.429688 -22.398438 C 14.339844 -23.105469 13.113281 -23.484375 11.789062 -23.484375 L 3.191406 -23.484375 C 3.023438 -23.484375 2.90625 -23.414062 2.859375 -23.273438 C 2.789062 -23.128906 2.8125 -22.988281 2.929688 -22.894531 C 3.355469 -22.421875 3.589844 -21.855469 3.589844 -21.21875 L 3.589844 -2.246094 C 3.589844 -1.605469 3.355469 -1.039062 2.929688 -0.566406 C 2.8125 -0.449219 2.789062 -0.332031 2.859375 -0.1875 C 2.90625 -0.046875 3.023438 0 3.191406 0 L 11.789062 0 C 13.113281 0 14.339844 -0.355469 15.429688 -1.0625 C 16.515625 -1.773438 17.4375 -2.789062 18.191406 -4.132812 C 18.734375 -5.152344 19.160156 -6.308594 19.46875 -7.609375 C 19.777344 -8.90625 19.941406 -10.277344 19.941406 -11.71875 C 19.941406 -13.136719 19.777344 -14.507812 19.46875 -15.804688 C 19.160156 -17.105469 18.734375 -18.261719 18.191406 -19.304688 Z M 14.082031 -6.402344 C 13.84375 -5.976562 13.609375 -5.648438 13.371094 -5.410156 C 13.136719 -5.175781 12.898438 -4.984375 12.710938 -4.890625 C 12.5 -4.773438 12.308594 -4.703125 12.144531 -4.703125 C 11.980469 -4.679688 11.859375 -4.679688 11.789062 -4.679688 L 9.144531 -4.679688 C 8.90625 -4.679688 8.695312 -4.75 8.527344 -4.9375 C 8.339844 -5.101562 8.269531 -5.316406 8.269531 -5.550781 L 8.269531 -17.625 C 8.269531 -17.933594 8.363281 -18.191406 8.601562 -18.429688 C 8.835938 -18.664062 9.121094 -18.785156 9.449219 -18.785156 L 11.789062 -18.785156 C 12.308594 -18.785156 12.804688 -18.570312 13.230469 -18.167969 C 13.65625 -17.742188 14.035156 -17.199219 14.339844 -16.539062 C 14.625 -15.878906 14.859375 -15.121094 15.027344 -14.269531 C 15.167969 -13.421875 15.261719 -12.570312 15.261719 -11.71875 C 15.261719 -10.679688 15.144531 -9.6875 14.957031 -8.765625 C 14.742188 -7.84375 14.460938 -7.0625 14.082031 -6.402344 Z M 14.082031 -6.402344 "/></g></g></g><g fill="#737373" fill-opacity="1"><g transform="translate(172.640938, 110.71067)"><g><path d="M 17.199219 -23.652344 C 16.796875 -23.273438 16.324219 -23.105469 15.804688 -23.105469 L 3.214844 -23.105469 C 3.046875 -23.105469 2.929688 -23.035156 2.882812 -22.894531 C 2.8125 -22.753906 2.8125 -22.632812 2.90625 -22.515625 L 2.976562 -22.445312 C 3.355469 -22.019531 3.542969 -21.523438 3.542969 -20.957031 L 3.542969 -1.773438 C 3.542969 -1.488281 3.496094 -1.230469 3.402344 -0.96875 C 3.308594 -0.707031 3.164062 -0.472656 2.976562 -0.285156 L 2.90625 -0.210938 C 2.8125 -0.0703125 2.8125 0.046875 2.882812 0.1875 C 2.929688 0.332031 3.046875 0.378906 3.214844 0.378906 L 15.804688 0.378906 C 16.324219 0.378906 16.796875 0.566406 17.199219 0.921875 C 17.320312 1.039062 17.460938 1.0625 17.601562 0.992188 C 17.742188 0.945312 17.839844 0.828125 17.839844 0.636719 L 17.839844 -4.632812 C 17.839844 -4.773438 17.765625 -4.890625 17.625 -4.960938 C 17.484375 -5.007812 17.34375 -4.984375 17.246094 -4.890625 C 16.824219 -4.488281 16.324219 -4.300781 15.757812 -4.300781 L 8.8125 -4.300781 C 8.648438 -4.300781 8.503906 -4.347656 8.386719 -4.464844 C 8.269531 -4.558594 8.222656 -4.703125 8.222656 -4.890625 L 8.222656 -8.433594 C 8.222656 -8.601562 8.269531 -8.742188 8.386719 -8.859375 C 8.503906 -8.953125 8.648438 -9.027344 8.8125 -9.027344 L 10.890625 -9.027344 C 11.460938 -9.027344 11.957031 -8.8125 12.378906 -8.433594 C 12.5 -8.339844 12.617188 -8.339844 12.757812 -8.410156 C 12.898438 -8.480469 12.972656 -8.601562 12.972656 -8.742188 L 12.972656 -13.988281 C 12.972656 -14.128906 12.898438 -14.222656 12.757812 -14.292969 C 12.617188 -14.363281 12.5 -14.363281 12.378906 -14.292969 C 11.957031 -13.894531 11.460938 -13.703125 10.890625 -13.703125 L 8.8125 -13.703125 C 8.648438 -13.703125 8.503906 -13.75 8.386719 -13.867188 C 8.269531 -13.964844 8.222656 -14.105469 8.222656 -14.292969 L 8.222656 -17.839844 C 8.222656 -18.003906 8.269531 -18.144531 8.386719 -18.261719 C 8.503906 -18.359375 8.648438 -18.429688 8.8125 -18.429688 L 15.757812 -18.429688 C 16.324219 -18.429688 16.824219 -18.214844 17.246094 -17.839844 C 17.34375 -17.71875 17.484375 -17.695312 17.625 -17.765625 C 17.765625 -17.816406 17.839844 -17.933594 17.839844 -18.097656 L 17.839844 -23.390625 C 17.839844 -23.53125 17.742188 -23.652344 17.601562 -23.722656 C 17.460938 -23.769531 17.320312 -23.746094 17.199219 -23.652344 Z M 17.199219 -23.652344 "/></g></g></g><g fill="#737373" fill-opacity="1"><g transform="translate(193.314231, 110.71067)"><g><path d="M 17.175781 -5.222656 L 16.894531 -4.984375 C 16.632812 -4.75 16.351562 -4.65625 16.042969 -4.65625 L 8.71875 -4.65625 C 8.554688 -4.65625 8.410156 -4.703125 8.316406 -4.796875 C 8.199219 -4.890625 8.152344 -5.03125 8.152344 -5.222656 L 8.152344 -21.382812 C 8.152344 -21.925781 8.339844 -22.421875 8.71875 -22.847656 L 8.742188 -22.871094 C 8.8125 -22.988281 8.8125 -23.105469 8.765625 -23.25 C 8.695312 -23.367188 8.578125 -23.4375 8.433594 -23.4375 L 3.214844 -23.4375 C 3.046875 -23.4375 2.929688 -23.367188 2.882812 -23.25 C 2.8125 -23.105469 2.8125 -22.988281 2.90625 -22.871094 C 3.285156 -22.445312 3.472656 -21.949219 3.472656 -21.40625 L 3.472656 -0.519531 C 3.472656 -0.355469 3.519531 -0.210938 3.636719 -0.117188 C 3.734375 0 3.875 0.046875 4.039062 0.046875 L 16.042969 0.046875 C 16.351562 0.046875 16.632812 0.164062 16.894531 0.378906 L 17.175781 0.613281 C 17.292969 0.707031 17.414062 0.707031 17.554688 0.636719 C 17.671875 0.589844 17.742188 0.472656 17.742188 0.308594 L 17.742188 -4.914062 C 17.742188 -5.054688 17.671875 -5.175781 17.554688 -5.246094 C 17.414062 -5.292969 17.292969 -5.292969 17.175781 -5.222656 Z M 17.175781 -5.222656 "/></g></g></g></svg>