<svg xmlns="http://www.w3.org/2000/svg" xmlns:xlink="http://www.w3.org/1999/xlink" width="300" zoomAndPan="magnify" viewBox="0 0 224.87999 168.749997" height="225" preserveAspectRatio="xMidYMid meet" version="1.0"><defs><g/><clipPath id="9b2277e709"><path d="M 9.898438 20 L 56.332031 20 L 56.332031 142 L 9.898438 142 Z M 9.898438 20 " clip-rule="nonzero"/></clipPath></defs><g clip-path="url(#9b2277e709)"><path fill="#c2e6f9" d="M 43.078125 97.742188 L 43.078125 29.910156 C 43.078125 24.441406 38.660156 20.019531 33.214844 20.019531 C 27.757812 20.019531 23.339844 24.441406 23.339844 29.910156 L 23.339844 97.644531 C 15.40625 101.332031 9.898438 109.386719 9.898438 118.71875 C 9.898438 131.550781 20.285156 141.953125 33.097656 141.953125 C 45.90625 141.953125 56.292969 131.550781 56.292969 118.71875 C 56.292969 109.472656 50.894531 101.488281 43.078125 97.742188 Z M 43.078125 97.742188 " fill-opacity="1" fill-rule="nonzero"/></g><path fill="#ffc05a" d="M 38.671875 117.539062 C 39.042969 118.050781 39.152344 118.71875 38.964844 119.316406 L 36.050781 128.621094 C 35.785156 129.457031 35.019531 130.015625 34.144531 130.015625 C 33.949219 130.015625 33.742188 129.988281 33.558594 129.929688 C 33.046875 129.769531 32.625 129.417969 32.378906 128.945312 C 32.132812 128.472656 32.085938 127.929688 32.25 127.429688 L 34.351562 120.714844 L 29.128906 120.714844 C 28.511719 120.714844 27.914062 120.417969 27.539062 119.925781 C 27.167969 119.425781 27.039062 118.777344 27.214844 118.175781 L 29.886719 108.65625 C 30.132812 107.800781 30.917969 107.203125 31.808594 107.203125 C 31.988281 107.203125 32.171875 107.230469 32.339844 107.28125 C 33.398438 107.574219 34.019531 108.6875 33.722656 109.738281 L 31.761719 116.722656 L 37.0625 116.722656 C 37.699219 116.722656 38.296875 117.027344 38.671875 117.539062 Z M 38.671875 117.539062 " fill-opacity="1" fill-rule="nonzero"/><path fill="#ae2c36" d="M 37.691406 102.953125 C 44.511719 104.949219 49.5 111.242188 49.5 118.71875 C 49.5 127.792969 42.15625 135.148438 33.097656 135.148438 C 24.035156 135.148438 16.691406 127.792969 16.691406 118.71875 C 16.691406 111.242188 21.679688 104.949219 28.503906 102.953125 L 28.503906 47.730469 C 28.503906 45.183594 30.5625 43.125 33.097656 43.125 C 35.628906 43.125 37.691406 45.183594 37.691406 47.730469 Z M 38.964844 119.316406 C 39.152344 118.71875 39.042969 118.050781 38.671875 117.539062 C 38.296875 117.027344 37.699219 116.722656 37.0625 116.722656 L 31.761719 116.722656 L 33.722656 109.738281 C 34.019531 108.6875 33.398438 107.574219 32.339844 107.28125 C 32.171875 107.230469 31.988281 107.203125 31.808594 107.203125 C 30.917969 107.203125 30.132812 107.800781 29.886719 108.65625 L 27.214844 118.175781 C 27.039062 118.777344 27.167969 119.425781 27.539062 119.925781 C 27.914062 120.417969 28.511719 120.714844 29.128906 120.714844 L 34.351562 120.714844 L 32.25 127.429688 C 32.085938 127.929688 32.132812 128.472656 32.378906 128.945312 C 32.625 129.417969 33.046875 129.769531 33.558594 129.929688 C 33.742188 129.988281 33.949219 130.015625 34.144531 130.015625 C 35.019531 130.015625 35.785156 129.457031 36.050781 128.621094 Z M 38.964844 119.316406 " fill-opacity="1" fill-rule="nonzero"/><g fill="#ffc1b2" fill-opacity="0.302"><g transform="translate(56.391377, 74.016447)"><g><path d="M 18.5 -24.074219 L 18.476562 -24.050781 C 18.050781 -23.675781 17.578125 -23.484375 17.035156 -23.484375 L 4.890625 -23.484375 C 4.324219 -23.484375 3.851562 -23.675781 3.425781 -24.050781 L 3.425781 -24.074219 C 3.285156 -24.148438 3.164062 -24.148438 3.023438 -24.074219 C 2.882812 -24.003906 2.835938 -23.910156 2.835938 -23.769531 L 2.835938 -18.523438 C 2.835938 -18.359375 2.882812 -18.238281 3.023438 -18.191406 C 3.164062 -18.121094 3.285156 -18.121094 3.425781 -18.214844 C 3.851562 -18.59375 4.324219 -18.808594 4.890625 -18.808594 L 8.152344 -18.808594 C 8.269531 -18.808594 8.386719 -18.757812 8.480469 -18.664062 C 8.578125 -18.570312 8.625 -18.453125 8.625 -18.335938 L 8.625 -2.078125 C 8.625 -1.511719 8.433594 -1.015625 8.058594 -0.613281 L 8.03125 -0.589844 C 7.9375 -0.449219 7.9375 -0.332031 8.007812 -0.1875 C 8.058594 -0.046875 8.175781 0 8.339844 0 L 13.585938 0 C 13.726562 0 13.820312 -0.046875 13.894531 -0.1875 C 13.964844 -0.332031 13.964844 -0.449219 13.894531 -0.589844 C 13.492188 -1.015625 13.300781 -1.488281 13.300781 -2.054688 L 13.300781 -18.335938 C 13.300781 -18.453125 13.347656 -18.570312 13.445312 -18.664062 C 13.539062 -18.757812 13.632812 -18.808594 13.773438 -18.808594 L 17.035156 -18.808594 C 17.601562 -18.808594 18.074219 -18.59375 18.476562 -18.214844 L 18.5 -18.214844 C 18.617188 -18.121094 18.734375 -18.121094 18.878906 -18.191406 C 19.019531 -18.238281 19.089844 -18.359375 19.089844 -18.523438 L 19.089844 -23.769531 C 19.089844 -23.910156 19.019531 -24.003906 18.878906 -24.074219 C 18.734375 -24.148438 18.617188 -24.148438 18.5 -24.074219 Z M 18.5 -24.074219 "/></g></g></g><g fill="#ffc1b2" fill-opacity="0.302"><g transform="translate(78.316882, 74.016447)"><g><path d="M 20.53125 -0.589844 L 20.484375 -0.613281 C 20.105469 -1.015625 19.941406 -1.488281 19.941406 -2.054688 L 19.941406 -21.429688 C 19.941406 -21.972656 20.105469 -22.445312 20.484375 -22.871094 L 20.53125 -22.894531 C 20.601562 -23.011719 20.601562 -23.128906 20.53125 -23.273438 C 20.460938 -23.414062 20.367188 -23.484375 20.222656 -23.484375 L 14.980469 -23.484375 C 14.835938 -23.484375 14.71875 -23.414062 14.648438 -23.273438 C 14.578125 -23.128906 14.578125 -23.011719 14.671875 -22.894531 L 14.695312 -22.894531 C 15.074219 -22.46875 15.261719 -21.972656 15.261719 -21.453125 L 15.261719 -14.859375 C 15.261719 -14.625 15.167969 -14.4375 15.027344 -14.292969 C 14.859375 -14.152344 14.671875 -14.082031 14.460938 -14.082031 L 8.976562 -14.082031 C 8.742188 -14.082031 8.554688 -14.152344 8.410156 -14.292969 C 8.246094 -14.4375 8.175781 -14.625 8.175781 -14.859375 L 8.175781 -21.476562 C 8.175781 -21.996094 8.363281 -22.46875 8.742188 -22.894531 C 8.8125 -23.011719 8.8125 -23.128906 8.765625 -23.273438 C 8.695312 -23.414062 8.578125 -23.484375 8.433594 -23.484375 L 3.214844 -23.484375 C 3.046875 -23.484375 2.929688 -23.414062 2.882812 -23.273438 C 2.8125 -23.128906 2.8125 -23.011719 2.90625 -22.894531 L 2.953125 -22.847656 C 3.308594 -22.445312 3.496094 -21.972656 3.496094 -21.429688 L 3.496094 -2.078125 C 3.496094 -1.511719 3.308594 -1.015625 2.953125 -0.636719 L 2.90625 -0.589844 C 2.8125 -0.449219 2.8125 -0.332031 2.882812 -0.1875 C 2.929688 -0.046875 3.046875 0 3.214844 0 L 8.433594 0 C 8.578125 0 8.695312 -0.046875 8.765625 -0.1875 C 8.8125 -0.332031 8.8125 -0.449219 8.742188 -0.589844 C 8.363281 -1.015625 8.175781 -1.488281 8.175781 -2.03125 L 8.175781 -8.625 C 8.175781 -8.835938 8.246094 -9.027344 8.410156 -9.167969 C 8.554688 -9.308594 8.742188 -9.402344 8.976562 -9.402344 L 14.460938 -9.402344 C 14.671875 -9.402344 14.859375 -9.308594 15.027344 -9.167969 C 15.167969 -9.027344 15.261719 -8.835938 15.261719 -8.625 L 15.261719 -2.03125 C 15.261719 -1.488281 15.074219 -1.015625 14.695312 -0.613281 L 14.671875 -0.589844 C 14.578125 -0.449219 14.578125 -0.332031 14.648438 -0.1875 C 14.71875 -0.046875 14.835938 0 14.980469 0 L 20.222656 0 C 20.367188 0 20.460938 -0.046875 20.53125 -0.1875 C 20.601562 -0.332031 20.601562 -0.449219 20.53125 -0.589844 Z M 20.53125 -0.589844 "/></g></g></g><g fill="#ffc1b2" fill-opacity="0.302"><g transform="translate(101.75449, 74.016447)"><g><path d="M 17.199219 -23.652344 C 16.796875 -23.273438 16.324219 -23.105469 15.804688 -23.105469 L 3.214844 -23.105469 C 3.046875 -23.105469 2.929688 -23.035156 2.882812 -22.894531 C 2.8125 -22.753906 2.8125 -22.632812 2.90625 -22.515625 L 2.976562 -22.445312 C 3.355469 -22.019531 3.542969 -21.523438 3.542969 -20.957031 L 3.542969 -1.773438 C 3.542969 -1.488281 3.496094 -1.230469 3.402344 -0.96875 C 3.308594 -0.707031 3.164062 -0.472656 2.976562 -0.285156 L 2.90625 -0.210938 C 2.8125 -0.0703125 2.8125 0.046875 2.882812 0.1875 C 2.929688 0.332031 3.046875 0.378906 3.214844 0.378906 L 15.804688 0.378906 C 16.324219 0.378906 16.796875 0.566406 17.199219 0.921875 C 17.320312 1.039062 17.460938 1.0625 17.601562 0.992188 C 17.742188 0.945312 17.839844 0.828125 17.839844 0.636719 L 17.839844 -4.632812 C 17.839844 -4.773438 17.765625 -4.890625 17.625 -4.960938 C 17.484375 -5.007812 17.34375 -4.984375 17.246094 -4.890625 C 16.824219 -4.488281 16.324219 -4.300781 15.757812 -4.300781 L 8.8125 -4.300781 C 8.648438 -4.300781 8.503906 -4.347656 8.386719 -4.464844 C 8.269531 -4.558594 8.222656 -4.703125 8.222656 -4.890625 L 8.222656 -8.433594 C 8.222656 -8.601562 8.269531 -8.742188 8.386719 -8.859375 C 8.503906 -8.953125 8.648438 -9.027344 8.8125 -9.027344 L 10.890625 -9.027344 C 11.460938 -9.027344 11.957031 -8.8125 12.378906 -8.433594 C 12.5 -8.339844 12.617188 -8.339844 12.757812 -8.410156 C 12.898438 -8.480469 12.972656 -8.601562 12.972656 -8.742188 L 12.972656 -13.988281 C 12.972656 -14.128906 12.898438 -14.222656 12.757812 -14.292969 C 12.617188 -14.363281 12.5 -14.363281 12.378906 -14.292969 C 11.957031 -13.894531 11.460938 -13.703125 10.890625 -13.703125 L 8.8125 -13.703125 C 8.648438 -13.703125 8.503906 -13.75 8.386719 -13.867188 C 8.269531 -13.964844 8.222656 -14.105469 8.222656 -14.292969 L 8.222656 -17.839844 C 8.222656 -18.003906 8.269531 -18.144531 8.386719 -18.261719 C 8.503906 -18.359375 8.648438 -18.429688 8.8125 -18.429688 L 15.757812 -18.429688 C 16.324219 -18.429688 16.824219 -18.214844 17.246094 -17.839844 C 17.34375 -17.71875 17.484375 -17.695312 17.625 -17.765625 C 17.765625 -17.816406 17.839844 -17.933594 17.839844 -18.097656 L 17.839844 -23.390625 C 17.839844 -23.53125 17.742188 -23.652344 17.601562 -23.722656 C 17.460938 -23.769531 17.320312 -23.746094 17.199219 -23.652344 Z M 17.199219 -23.652344 "/></g></g></g><g fill="#ffc1b2" fill-opacity="0.302"><g transform="translate(122.427783, 74.016447)"><g><path d="M 19.328125 -0.589844 L 18.972656 -0.875 C 18.59375 -1.179688 18.261719 -1.558594 18.003906 -1.984375 L 15.074219 -6.664062 C 14.980469 -6.804688 14.933594 -6.96875 14.980469 -7.160156 C 15.027344 -7.324219 15.121094 -7.464844 15.285156 -7.585938 C 15.878906 -8.007812 16.398438 -8.480469 16.824219 -9.027344 C 17.460938 -9.804688 17.957031 -10.703125 18.289062 -11.695312 C 18.617188 -12.6875 18.808594 -13.726562 18.808594 -14.8125 C 18.808594 -15.902344 18.617188 -16.964844 18.289062 -17.957031 C 17.957031 -18.949219 17.460938 -19.847656 16.824219 -20.648438 C 16.066406 -21.546875 15.144531 -22.257812 14.105469 -22.753906 C 13.042969 -23.226562 11.882812 -23.484375 10.65625 -23.484375 L 3.191406 -23.484375 C 3.023438 -23.484375 2.90625 -23.414062 2.859375 -23.273438 C 2.789062 -23.128906 2.8125 -23.011719 2.929688 -22.894531 C 3.308594 -22.46875 3.519531 -21.972656 3.519531 -21.40625 L 3.519531 -2.03125 C 3.519531 -1.488281 3.332031 -1.015625 2.976562 -0.613281 C 2.835938 -0.472656 2.8125 -0.355469 2.882812 -0.210938 C 2.929688 -0.0703125 3.046875 0 3.238281 0 L 8.527344 0 C 8.671875 0 8.789062 -0.046875 8.835938 -0.1875 C 8.882812 -0.332031 8.882812 -0.449219 8.789062 -0.589844 C 8.386719 -1.015625 8.199219 -1.488281 8.199219 -2.054688 L 8.199219 -5.503906 C 8.199219 -5.695312 8.246094 -5.859375 8.386719 -6 C 8.527344 -6.144531 8.695312 -6.214844 8.882812 -6.214844 L 9.449219 -6.214844 C 9.6875 -6.214844 9.898438 -6.097656 10.042969 -5.882812 L 12.949219 -1.203125 C 13.066406 -0.992188 13.042969 -0.804688 12.898438 -0.613281 L 12.875 -0.589844 C 12.78125 -0.449219 12.78125 -0.332031 12.851562 -0.1875 C 12.898438 -0.046875 13.019531 0 13.183594 0 L 19.160156 0 C 19.328125 0 19.421875 -0.0703125 19.46875 -0.210938 C 19.515625 -0.355469 19.46875 -0.472656 19.328125 -0.589844 Z M 13.207031 -12.003906 C 12.617188 -11.246094 11.765625 -10.890625 10.65625 -10.890625 L 8.882812 -10.890625 C 8.695312 -10.890625 8.527344 -10.9375 8.386719 -11.082031 C 8.246094 -11.222656 8.199219 -11.386719 8.199219 -11.578125 L 8.199219 -18.097656 C 8.199219 -18.289062 8.246094 -18.453125 8.386719 -18.59375 C 8.527344 -18.734375 8.695312 -18.808594 8.882812 -18.808594 L 10.65625 -18.808594 C 11.507812 -18.808594 12.144531 -18.617188 12.617188 -18.238281 C 13.089844 -17.863281 13.421875 -17.4375 13.65625 -16.964844 C 13.867188 -16.492188 14.011719 -16.042969 14.058594 -15.617188 C 14.105469 -15.191406 14.128906 -14.910156 14.128906 -14.8125 C 14.128906 -14.246094 14.035156 -13.726562 13.894531 -13.253906 C 13.726562 -12.78125 13.492188 -12.355469 13.207031 -12.003906 Z M 13.207031 -12.003906 "/></g></g></g><g fill="#ffc1b2" fill-opacity="0.302"><g transform="translate(144.754941, 74.016447)"><g><path d="M 25.585938 -1.984375 L 25.585938 -21.5 C 25.585938 -22.019531 25.753906 -22.492188 26.132812 -22.894531 C 26.226562 -23.011719 26.25 -23.128906 26.203125 -23.273438 C 26.132812 -23.414062 26.035156 -23.484375 25.894531 -23.484375 L 20.910156 -23.484375 L 20.886719 -23.460938 L 20.886719 -23.484375 L 20.25 -23.484375 C 20.082031 -23.484375 19.964844 -23.414062 19.917969 -23.273438 C 19.847656 -23.128906 19.847656 -23.011719 19.941406 -22.894531 C 20.035156 -22.753906 20.011719 -22.65625 19.917969 -22.585938 L 15.050781 -18.097656 C 14.886719 -17.957031 14.695312 -17.910156 14.507812 -17.910156 C 14.316406 -17.910156 14.152344 -17.957031 14.011719 -18.097656 L 9.074219 -22.632812 C 8.976562 -22.707031 8.976562 -22.777344 9.074219 -22.871094 C 9.167969 -22.988281 9.191406 -23.128906 9.144531 -23.273438 C 9.074219 -23.414062 8.953125 -23.484375 8.789062 -23.484375 L 3.214844 -23.484375 C 3.046875 -23.484375 2.929688 -23.414062 2.882812 -23.273438 C 2.8125 -23.128906 2.8125 -23.011719 2.90625 -22.894531 L 2.929688 -22.871094 C 3.285156 -22.46875 3.472656 -21.996094 3.472656 -21.476562 L 3.472656 -2.007812 C 3.472656 -1.464844 3.285156 -0.992188 2.929688 -0.613281 L 2.90625 -0.589844 C 2.8125 -0.449219 2.8125 -0.332031 2.882812 -0.1875 C 2.929688 -0.046875 3.046875 0 3.214844 0 L 8.433594 0 C 8.578125 0 8.695312 -0.046875 8.765625 -0.1875 C 8.8125 -0.332031 8.8125 -0.449219 8.742188 -0.589844 L 8.695312 -0.636719 C 8.316406 -1.015625 8.152344 -1.488281 8.152344 -2.03125 L 8.152344 -16.351562 C 8.152344 -16.492188 8.199219 -16.585938 8.339844 -16.632812 C 8.480469 -16.679688 8.601562 -16.679688 8.71875 -16.585938 L 14.011719 -11.671875 C 14.152344 -11.53125 14.316406 -11.460938 14.53125 -11.460938 C 14.71875 -11.460938 14.910156 -11.53125 15.050781 -11.671875 L 20.34375 -16.585938 C 20.4375 -16.679688 20.554688 -16.679688 20.695312 -16.632812 C 20.839844 -16.585938 20.910156 -16.492188 20.910156 -16.351562 L 20.910156 -2.054688 C 20.910156 -1.535156 20.722656 -1.0625 20.34375 -0.660156 L 20.296875 -0.589844 C 20.199219 -0.449219 20.199219 -0.332031 20.273438 -0.1875 C 20.320312 -0.046875 20.4375 0 20.601562 0 L 25.894531 0 C 26.035156 0 26.132812 -0.046875 26.203125 -0.1875 C 26.25 -0.332031 26.226562 -0.449219 26.132812 -0.589844 C 25.753906 -0.96875 25.585938 -1.441406 25.585938 -1.984375 Z M 25.585938 -1.984375 "/></g></g></g><g fill="#ffc1b2" fill-opacity="0.302"><g transform="translate(173.815685, 74.016447)"><g><path d="M 21.5 -0.425781 C 21.5 -0.519531 21.453125 -0.589844 21.382812 -0.636719 C 20.839844 -1.085938 20.484375 -1.652344 20.296875 -2.363281 L 14.648438 -21.878906 C 14.53125 -22.257812 14.601562 -22.609375 14.886719 -22.894531 C 14.957031 -23.011719 14.957031 -23.128906 14.910156 -23.273438 C 14.835938 -23.414062 14.71875 -23.484375 14.578125 -23.484375 L 8.339844 -23.484375 C 8.199219 -23.484375 8.082031 -23.414062 8.007812 -23.273438 C 7.9375 -23.128906 7.9375 -23.011719 8.03125 -22.894531 C 8.316406 -22.609375 8.386719 -22.257812 8.269531 -21.878906 L 2.644531 -2.339844 C 2.457031 -1.675781 2.078125 -1.109375 1.535156 -0.636719 C 1.464844 -0.566406 1.417969 -0.496094 1.417969 -0.425781 C 1.394531 -0.308594 1.417969 -0.210938 1.488281 -0.117188 C 1.558594 -0.0234375 1.652344 0 1.796875 0 L 7.277344 0 C 7.417969 0 7.535156 -0.046875 7.585938 -0.1875 C 7.632812 -0.332031 7.632812 -0.449219 7.535156 -0.566406 C 7.253906 -0.851562 7.183594 -1.203125 7.277344 -1.582031 L 8.007812 -4.039062 C 8.082031 -4.300781 8.222656 -4.511719 8.433594 -4.65625 C 8.625 -4.796875 8.859375 -4.890625 9.144531 -4.890625 L 13.796875 -4.890625 C 14.058594 -4.890625 14.292969 -4.796875 14.507812 -4.65625 C 14.695312 -4.511719 14.835938 -4.300781 14.933594 -4.039062 L 15.640625 -1.582031 C 15.734375 -1.203125 15.640625 -0.875 15.40625 -0.589844 L 15.40625 -0.566406 C 15.308594 -0.425781 15.308594 -0.308594 15.382812 -0.1875 C 15.429688 -0.046875 15.546875 0 15.710938 0 L 21.144531 0 C 21.265625 0 21.359375 -0.0234375 21.429688 -0.117188 C 21.5 -0.210938 21.523438 -0.308594 21.5 -0.425781 Z M 12.996094 -9.570312 L 9.945312 -9.570312 C 9.851562 -9.570312 9.78125 -9.59375 9.734375 -9.664062 C 9.664062 -9.734375 9.640625 -9.828125 9.6875 -9.921875 L 11.222656 -15.191406 C 11.246094 -15.308594 11.316406 -15.382812 11.460938 -15.382812 C 11.601562 -15.382812 11.671875 -15.308594 11.71875 -15.191406 L 13.230469 -9.921875 C 13.253906 -9.828125 13.230469 -9.734375 13.183594 -9.664062 C 13.136719 -9.59375 13.066406 -9.570312 12.996094 -9.570312 Z M 12.996094 -9.570312 "/></g></g></g><g fill="#ffc1b2" fill-opacity="0.302"><g transform="translate(196.757134, 74.016447)"><g><path d="M 17.175781 -5.222656 L 16.894531 -4.984375 C 16.632812 -4.75 16.351562 -4.65625 16.042969 -4.65625 L 8.71875 -4.65625 C 8.554688 -4.65625 8.410156 -4.703125 8.316406 -4.796875 C 8.199219 -4.890625 8.152344 -5.03125 8.152344 -5.222656 L 8.152344 -21.382812 C 8.152344 -21.925781 8.339844 -22.421875 8.71875 -22.847656 L 8.742188 -22.871094 C 8.8125 -22.988281 8.8125 -23.105469 8.765625 -23.25 C 8.695312 -23.367188 8.578125 -23.4375 8.433594 -23.4375 L 3.214844 -23.4375 C 3.046875 -23.4375 2.929688 -23.367188 2.882812 -23.25 C 2.8125 -23.105469 2.8125 -22.988281 2.90625 -22.871094 C 3.285156 -22.445312 3.472656 -21.949219 3.472656 -21.40625 L 3.472656 -0.519531 C 3.472656 -0.355469 3.519531 -0.210938 3.636719 -0.117188 C 3.734375 0 3.875 0.046875 4.039062 0.046875 L 16.042969 0.046875 C 16.351562 0.046875 16.632812 0.164062 16.894531 0.378906 L 17.175781 0.613281 C 17.292969 0.707031 17.414062 0.707031 17.554688 0.636719 C 17.671875 0.589844 17.742188 0.472656 17.742188 0.308594 L 17.742188 -4.914062 C 17.742188 -5.054688 17.671875 -5.175781 17.554688 -5.246094 C 17.414062 -5.292969 17.292969 -5.292969 17.175781 -5.222656 Z M 17.175781 -5.222656 "/></g></g></g><g fill="#ffc1b2" fill-opacity="0.502"><g transform="translate(57.016688, 74.281876)"><g><path d="M 18.5 -24.074219 L 18.476562 -24.050781 C 18.050781 -23.675781 17.578125 -23.484375 17.035156 -23.484375 L 4.890625 -23.484375 C 4.324219 -23.484375 3.851562 -23.675781 3.425781 -24.050781 L 3.425781 -24.074219 C 3.285156 -24.148438 3.164062 -24.148438 3.023438 -24.074219 C 2.882812 -24.003906 2.835938 -23.910156 2.835938 -23.769531 L 2.835938 -18.523438 C 2.835938 -18.359375 2.882812 -18.238281 3.023438 -18.191406 C 3.164062 -18.121094 3.285156 -18.121094 3.425781 -18.214844 C 3.851562 -18.59375 4.324219 -18.808594 4.890625 -18.808594 L 8.152344 -18.808594 C 8.269531 -18.808594 8.386719 -18.757812 8.480469 -18.664062 C 8.578125 -18.570312 8.625 -18.453125 8.625 -18.335938 L 8.625 -2.078125 C 8.625 -1.511719 8.433594 -1.015625 8.058594 -0.613281 L 8.03125 -0.589844 C 7.9375 -0.449219 7.9375 -0.332031 8.007812 -0.1875 C 8.058594 -0.046875 8.175781 0 8.339844 0 L 13.585938 0 C 13.726562 0 13.820312 -0.046875 13.894531 -0.1875 C 13.964844 -0.332031 13.964844 -0.449219 13.894531 -0.589844 C 13.492188 -1.015625 13.300781 -1.488281 13.300781 -2.054688 L 13.300781 -18.335938 C 13.300781 -18.453125 13.347656 -18.570312 13.445312 -18.664062 C 13.539062 -18.757812 13.632812 -18.808594 13.773438 -18.808594 L 17.035156 -18.808594 C 17.601562 -18.808594 18.074219 -18.59375 18.476562 -18.214844 L 18.5 -18.214844 C 18.617188 -18.121094 18.734375 -18.121094 18.878906 -18.191406 C 19.019531 -18.238281 19.089844 -18.359375 19.089844 -18.523438 L 19.089844 -23.769531 C 19.089844 -23.910156 19.019531 -24.003906 18.878906 -24.074219 C 18.734375 -24.148438 18.617188 -24.148438 18.5 -24.074219 Z M 18.5 -24.074219 "/></g></g></g><g fill="#ffc1b2" fill-opacity="0.502"><g transform="translate(78.942192, 74.281876)"><g><path d="M 20.53125 -0.589844 L 20.484375 -0.613281 C 20.105469 -1.015625 19.941406 -1.488281 19.941406 -2.054688 L 19.941406 -21.429688 C 19.941406 -21.972656 20.105469 -22.445312 20.484375 -22.871094 L 20.53125 -22.894531 C 20.601562 -23.011719 20.601562 -23.128906 20.53125 -23.273438 C 20.460938 -23.414062 20.367188 -23.484375 20.222656 -23.484375 L 14.980469 -23.484375 C 14.835938 -23.484375 14.71875 -23.414062 14.648438 -23.273438 C 14.578125 -23.128906 14.578125 -23.011719 14.671875 -22.894531 L 14.695312 -22.894531 C 15.074219 -22.46875 15.261719 -21.972656 15.261719 -21.453125 L 15.261719 -14.859375 C 15.261719 -14.625 15.167969 -14.4375 15.027344 -14.292969 C 14.859375 -14.152344 14.671875 -14.082031 14.460938 -14.082031 L 8.976562 -14.082031 C 8.742188 -14.082031 8.554688 -14.152344 8.410156 -14.292969 C 8.246094 -14.4375 8.175781 -14.625 8.175781 -14.859375 L 8.175781 -21.476562 C 8.175781 -21.996094 8.363281 -22.46875 8.742188 -22.894531 C 8.8125 -23.011719 8.8125 -23.128906 8.765625 -23.273438 C 8.695312 -23.414062 8.578125 -23.484375 8.433594 -23.484375 L 3.214844 -23.484375 C 3.046875 -23.484375 2.929688 -23.414062 2.882812 -23.273438 C 2.8125 -23.128906 2.8125 -23.011719 2.90625 -22.894531 L 2.953125 -22.847656 C 3.308594 -22.445312 3.496094 -21.972656 3.496094 -21.429688 L 3.496094 -2.078125 C 3.496094 -1.511719 3.308594 -1.015625 2.953125 -0.636719 L 2.90625 -0.589844 C 2.8125 -0.449219 2.8125 -0.332031 2.882812 -0.1875 C 2.929688 -0.046875 3.046875 0 3.214844 0 L 8.433594 0 C 8.578125 0 8.695312 -0.046875 8.765625 -0.1875 C 8.8125 -0.332031 8.8125 -0.449219 8.742188 -0.589844 C 8.363281 -1.015625 8.175781 -1.488281 8.175781 -2.03125 L 8.175781 -8.625 C 8.175781 -8.835938 8.246094 -9.027344 8.410156 -9.167969 C 8.554688 -9.308594 8.742188 -9.402344 8.976562 -9.402344 L 14.460938 -9.402344 C 14.671875 -9.402344 14.859375 -9.308594 15.027344 -9.167969 C 15.167969 -9.027344 15.261719 -8.835938 15.261719 -8.625 L 15.261719 -2.03125 C 15.261719 -1.488281 15.074219 -1.015625 14.695312 -0.613281 L 14.671875 -0.589844 C 14.578125 -0.449219 14.578125 -0.332031 14.648438 -0.1875 C 14.71875 -0.046875 14.835938 0 14.980469 0 L 20.222656 0 C 20.367188 0 20.460938 -0.046875 20.53125 -0.1875 C 20.601562 -0.332031 20.601562 -0.449219 20.53125 -0.589844 Z M 20.53125 -0.589844 "/></g></g></g><g fill="#ffc1b2" fill-opacity="0.502"><g transform="translate(102.3798, 74.281876)"><g><path d="M 17.199219 -23.652344 C 16.796875 -23.273438 16.324219 -23.105469 15.804688 -23.105469 L 3.214844 -23.105469 C 3.046875 -23.105469 2.929688 -23.035156 2.882812 -22.894531 C 2.8125 -22.753906 2.8125 -22.632812 2.90625 -22.515625 L 2.976562 -22.445312 C 3.355469 -22.019531 3.542969 -21.523438 3.542969 -20.957031 L 3.542969 -1.773438 C 3.542969 -1.488281 3.496094 -1.230469 3.402344 -0.96875 C 3.308594 -0.707031 3.164062 -0.472656 2.976562 -0.285156 L 2.90625 -0.210938 C 2.8125 -0.0703125 2.8125 0.046875 2.882812 0.1875 C 2.929688 0.332031 3.046875 0.378906 3.214844 0.378906 L 15.804688 0.378906 C 16.324219 0.378906 16.796875 0.566406 17.199219 0.921875 C 17.320312 1.039062 17.460938 1.0625 17.601562 0.992188 C 17.742188 0.945312 17.839844 0.828125 17.839844 0.636719 L 17.839844 -4.632812 C 17.839844 -4.773438 17.765625 -4.890625 17.625 -4.960938 C 17.484375 -5.007812 17.34375 -4.984375 17.246094 -4.890625 C 16.824219 -4.488281 16.324219 -4.300781 15.757812 -4.300781 L 8.8125 -4.300781 C 8.648438 -4.300781 8.503906 -4.347656 8.386719 -4.464844 C 8.269531 -4.558594 8.222656 -4.703125 8.222656 -4.890625 L 8.222656 -8.433594 C 8.222656 -8.601562 8.269531 -8.742188 8.386719 -8.859375 C 8.503906 -8.953125 8.648438 -9.027344 8.8125 -9.027344 L 10.890625 -9.027344 C 11.460938 -9.027344 11.957031 -8.8125 12.378906 -8.433594 C 12.5 -8.339844 12.617188 -8.339844 12.757812 -8.410156 C 12.898438 -8.480469 12.972656 -8.601562 12.972656 -8.742188 L 12.972656 -13.988281 C 12.972656 -14.128906 12.898438 -14.222656 12.757812 -14.292969 C 12.617188 -14.363281 12.5 -14.363281 12.378906 -14.292969 C 11.957031 -13.894531 11.460938 -13.703125 10.890625 -13.703125 L 8.8125 -13.703125 C 8.648438 -13.703125 8.503906 -13.75 8.386719 -13.867188 C 8.269531 -13.964844 8.222656 -14.105469 8.222656 -14.292969 L 8.222656 -17.839844 C 8.222656 -18.003906 8.269531 -18.144531 8.386719 -18.261719 C 8.503906 -18.359375 8.648438 -18.429688 8.8125 -18.429688 L 15.757812 -18.429688 C 16.324219 -18.429688 16.824219 -18.214844 17.246094 -17.839844 C 17.34375 -17.71875 17.484375 -17.695312 17.625 -17.765625 C 17.765625 -17.816406 17.839844 -17.933594 17.839844 -18.097656 L 17.839844 -23.390625 C 17.839844 -23.53125 17.742188 -23.652344 17.601562 -23.722656 C 17.460938 -23.769531 17.320312 -23.746094 17.199219 -23.652344 Z M 17.199219 -23.652344 "/></g></g></g><g fill="#ffc1b2" fill-opacity="0.502"><g transform="translate(123.053093, 74.281876)"><g><path d="M 19.328125 -0.589844 L 18.972656 -0.875 C 18.59375 -1.179688 18.261719 -1.558594 18.003906 -1.984375 L 15.074219 -6.664062 C 14.980469 -6.804688 14.933594 -6.96875 14.980469 -7.160156 C 15.027344 -7.324219 15.121094 -7.464844 15.285156 -7.585938 C 15.878906 -8.007812 16.398438 -8.480469 16.824219 -9.027344 C 17.460938 -9.804688 17.957031 -10.703125 18.289062 -11.695312 C 18.617188 -12.6875 18.808594 -13.726562 18.808594 -14.8125 C 18.808594 -15.902344 18.617188 -16.964844 18.289062 -17.957031 C 17.957031 -18.949219 17.460938 -19.847656 16.824219 -20.648438 C 16.066406 -21.546875 15.144531 -22.257812 14.105469 -22.753906 C 13.042969 -23.226562 11.882812 -23.484375 10.65625 -23.484375 L 3.191406 -23.484375 C 3.023438 -23.484375 2.90625 -23.414062 2.859375 -23.273438 C 2.789062 -23.128906 2.8125 -23.011719 2.929688 -22.894531 C 3.308594 -22.46875 3.519531 -21.972656 3.519531 -21.40625 L 3.519531 -2.03125 C 3.519531 -1.488281 3.332031 -1.015625 2.976562 -0.613281 C 2.835938 -0.472656 2.8125 -0.355469 2.882812 -0.210938 C 2.929688 -0.0703125 3.046875 0 3.238281 0 L 8.527344 0 C 8.671875 0 8.789062 -0.046875 8.835938 -0.1875 C 8.882812 -0.332031 8.882812 -0.449219 8.789062 -0.589844 C 8.386719 -1.015625 8.199219 -1.488281 8.199219 -2.054688 L 8.199219 -5.503906 C 8.199219 -5.695312 8.246094 -5.859375 8.386719 -6 C 8.527344 -6.144531 8.695312 -6.214844 8.882812 -6.214844 L 9.449219 -6.214844 C 9.6875 -6.214844 9.898438 -6.097656 10.042969 -5.882812 L 12.949219 -1.203125 C 13.066406 -0.992188 13.042969 -0.804688 12.898438 -0.613281 L 12.875 -0.589844 C 12.78125 -0.449219 12.78125 -0.332031 12.851562 -0.1875 C 12.898438 -0.046875 13.019531 0 13.183594 0 L 19.160156 0 C 19.328125 0 19.421875 -0.0703125 19.46875 -0.210938 C 19.515625 -0.355469 19.46875 -0.472656 19.328125 -0.589844 Z M 13.207031 -12.003906 C 12.617188 -11.246094 11.765625 -10.890625 10.65625 -10.890625 L 8.882812 -10.890625 C 8.695312 -10.890625 8.527344 -10.9375 8.386719 -11.082031 C 8.246094 -11.222656 8.199219 -11.386719 8.199219 -11.578125 L 8.199219 -18.097656 C 8.199219 -18.289062 8.246094 -18.453125 8.386719 -18.59375 C 8.527344 -18.734375 8.695312 -18.808594 8.882812 -18.808594 L 10.65625 -18.808594 C 11.507812 -18.808594 12.144531 -18.617188 12.617188 -18.238281 C 13.089844 -17.863281 13.421875 -17.4375 13.65625 -16.964844 C 13.867188 -16.492188 14.011719 -16.042969 14.058594 -15.617188 C 14.105469 -15.191406 14.128906 -14.910156 14.128906 -14.8125 C 14.128906 -14.246094 14.035156 -13.726562 13.894531 -13.253906 C 13.726562 -12.78125 13.492188 -12.355469 13.207031 -12.003906 Z M 13.207031 -12.003906 "/></g></g></g><g fill="#ffc1b2" fill-opacity="0.502"><g transform="translate(145.380251, 74.281876)"><g><path d="M 25.585938 -1.984375 L 25.585938 -21.5 C 25.585938 -22.019531 25.753906 -22.492188 26.132812 -22.894531 C 26.226562 -23.011719 26.25 -23.128906 26.203125 -23.273438 C 26.132812 -23.414062 26.035156 -23.484375 25.894531 -23.484375 L 20.910156 -23.484375 L 20.886719 -23.460938 L 20.886719 -23.484375 L 20.25 -23.484375 C 20.082031 -23.484375 19.964844 -23.414062 19.917969 -23.273438 C 19.847656 -23.128906 19.847656 -23.011719 19.941406 -22.894531 C 20.035156 -22.753906 20.011719 -22.65625 19.917969 -22.585938 L 15.050781 -18.097656 C 14.886719 -17.957031 14.695312 -17.910156 14.507812 -17.910156 C 14.316406 -17.910156 14.152344 -17.957031 14.011719 -18.097656 L 9.074219 -22.632812 C 8.976562 -22.707031 8.976562 -22.777344 9.074219 -22.871094 C 9.167969 -22.988281 9.191406 -23.128906 9.144531 -23.273438 C 9.074219 -23.414062 8.953125 -23.484375 8.789062 -23.484375 L 3.214844 -23.484375 C 3.046875 -23.484375 2.929688 -23.414062 2.882812 -23.273438 C 2.8125 -23.128906 2.8125 -23.011719 2.90625 -22.894531 L 2.929688 -22.871094 C 3.285156 -22.46875 3.472656 -21.996094 3.472656 -21.476562 L 3.472656 -2.007812 C 3.472656 -1.464844 3.285156 -0.992188 2.929688 -0.613281 L 2.90625 -0.589844 C 2.8125 -0.449219 2.8125 -0.332031 2.882812 -0.1875 C 2.929688 -0.046875 3.046875 0 3.214844 0 L 8.433594 0 C 8.578125 0 8.695312 -0.046875 8.765625 -0.1875 C 8.8125 -0.332031 8.8125 -0.449219 8.742188 -0.589844 L 8.695312 -0.636719 C 8.316406 -1.015625 8.152344 -1.488281 8.152344 -2.03125 L 8.152344 -16.351562 C 8.152344 -16.492188 8.199219 -16.585938 8.339844 -16.632812 C 8.480469 -16.679688 8.601562 -16.679688 8.71875 -16.585938 L 14.011719 -11.671875 C 14.152344 -11.53125 14.316406 -11.460938 14.53125 -11.460938 C 14.71875 -11.460938 14.910156 -11.53125 15.050781 -11.671875 L 20.34375 -16.585938 C 20.4375 -16.679688 20.554688 -16.679688 20.695312 -16.632812 C 20.839844 -16.585938 20.910156 -16.492188 20.910156 -16.351562 L 20.910156 -2.054688 C 20.910156 -1.535156 20.722656 -1.0625 20.34375 -0.660156 L 20.296875 -0.589844 C 20.199219 -0.449219 20.199219 -0.332031 20.273438 -0.1875 C 20.320312 -0.046875 20.4375 0 20.601562 0 L 25.894531 0 C 26.035156 0 26.132812 -0.046875 26.203125 -0.1875 C 26.25 -0.332031 26.226562 -0.449219 26.132812 -0.589844 C 25.753906 -0.96875 25.585938 -1.441406 25.585938 -1.984375 Z M 25.585938 -1.984375 "/></g></g></g><g fill="#ffc1b2" fill-opacity="0.502"><g transform="translate(174.440996, 74.281876)"><g><path d="M 21.5 -0.425781 C 21.5 -0.519531 21.453125 -0.589844 21.382812 -0.636719 C 20.839844 -1.085938 20.484375 -1.652344 20.296875 -2.363281 L 14.648438 -21.878906 C 14.53125 -22.257812 14.601562 -22.609375 14.886719 -22.894531 C 14.957031 -23.011719 14.957031 -23.128906 14.910156 -23.273438 C 14.835938 -23.414062 14.71875 -23.484375 14.578125 -23.484375 L 8.339844 -23.484375 C 8.199219 -23.484375 8.082031 -23.414062 8.007812 -23.273438 C 7.9375 -23.128906 7.9375 -23.011719 8.03125 -22.894531 C 8.316406 -22.609375 8.386719 -22.257812 8.269531 -21.878906 L 2.644531 -2.339844 C 2.457031 -1.675781 2.078125 -1.109375 1.535156 -0.636719 C 1.464844 -0.566406 1.417969 -0.496094 1.417969 -0.425781 C 1.394531 -0.308594 1.417969 -0.210938 1.488281 -0.117188 C 1.558594 -0.0234375 1.652344 0 1.796875 0 L 7.277344 0 C 7.417969 0 7.535156 -0.046875 7.585938 -0.1875 C 7.632812 -0.332031 7.632812 -0.449219 7.535156 -0.566406 C 7.253906 -0.851562 7.183594 -1.203125 7.277344 -1.582031 L 8.007812 -4.039062 C 8.082031 -4.300781 8.222656 -4.511719 8.433594 -4.65625 C 8.625 -4.796875 8.859375 -4.890625 9.144531 -4.890625 L 13.796875 -4.890625 C 14.058594 -4.890625 14.292969 -4.796875 14.507812 -4.65625 C 14.695312 -4.511719 14.835938 -4.300781 14.933594 -4.039062 L 15.640625 -1.582031 C 15.734375 -1.203125 15.640625 -0.875 15.40625 -0.589844 L 15.40625 -0.566406 C 15.308594 -0.425781 15.308594 -0.308594 15.382812 -0.1875 C 15.429688 -0.046875 15.546875 0 15.710938 0 L 21.144531 0 C 21.265625 0 21.359375 -0.0234375 21.429688 -0.117188 C 21.5 -0.210938 21.523438 -0.308594 21.5 -0.425781 Z M 12.996094 -9.570312 L 9.945312 -9.570312 C 9.851562 -9.570312 9.78125 -9.59375 9.734375 -9.664062 C 9.664062 -9.734375 9.640625 -9.828125 9.6875 -9.921875 L 11.222656 -15.191406 C 11.246094 -15.308594 11.316406 -15.382812 11.460938 -15.382812 C 11.601562 -15.382812 11.671875 -15.308594 11.71875 -15.191406 L 13.230469 -9.921875 C 13.253906 -9.828125 13.230469 -9.734375 13.183594 -9.664062 C 13.136719 -9.59375 13.066406 -9.570312 12.996094 -9.570312 Z M 12.996094 -9.570312 "/></g></g></g><g fill="#ffc1b2" fill-opacity="0.502"><g transform="translate(197.382444, 74.281876)"><g><path d="M 17.175781 -5.222656 L 16.894531 -4.984375 C 16.632812 -4.75 16.351562 -4.65625 16.042969 -4.65625 L 8.71875 -4.65625 C 8.554688 -4.65625 8.410156 -4.703125 8.316406 -4.796875 C 8.199219 -4.890625 8.152344 -5.03125 8.152344 -5.222656 L 8.152344 -21.382812 C 8.152344 -21.925781 8.339844 -22.421875 8.71875 -22.847656 L 8.742188 -22.871094 C 8.8125 -22.988281 8.8125 -23.105469 8.765625 -23.25 C 8.695312 -23.367188 8.578125 -23.4375 8.433594 -23.4375 L 3.214844 -23.4375 C 3.046875 -23.4375 2.929688 -23.367188 2.882812 -23.25 C 2.8125 -23.105469 2.8125 -22.988281 2.90625 -22.871094 C 3.285156 -22.445312 3.472656 -21.949219 3.472656 -21.40625 L 3.472656 -0.519531 C 3.472656 -0.355469 3.519531 -0.210938 3.636719 -0.117188 C 3.734375 0 3.875 0.046875 4.039062 0.046875 L 16.042969 0.046875 C 16.351562 0.046875 16.632812 0.164062 16.894531 0.378906 L 17.175781 0.613281 C 17.292969 0.707031 17.414062 0.707031 17.554688 0.636719 C 17.671875 0.589844 17.742188 0.472656 17.742188 0.308594 L 17.742188 -4.914062 C 17.742188 -5.054688 17.671875 -5.175781 17.554688 -5.246094 C 17.414062 -5.292969 17.292969 -5.292969 17.175781 -5.222656 Z M 17.175781 -5.222656 "/></g></g></g><g fill="#737373" fill-opacity="1"><g transform="translate(57.641998, 74.547304)"><g><path d="M 18.5 -24.074219 L 18.476562 -24.050781 C 18.050781 -23.675781 17.578125 -23.484375 17.035156 -23.484375 L 4.890625 -23.484375 C 4.324219 -23.484375 3.851562 -23.675781 3.425781 -24.050781 L 3.425781 -24.074219 C 3.285156 -24.148438 3.164062 -24.148438 3.023438 -24.074219 C 2.882812 -24.003906 2.835938 -23.910156 2.835938 -23.769531 L 2.835938 -18.523438 C 2.835938 -18.359375 2.882812 -18.238281 3.023438 -18.191406 C 3.164062 -18.121094 3.285156 -18.121094 3.425781 -18.214844 C 3.851562 -18.59375 4.324219 -18.808594 4.890625 -18.808594 L 8.152344 -18.808594 C 8.269531 -18.808594 8.386719 -18.757812 8.480469 -18.664062 C 8.578125 -18.570312 8.625 -18.453125 8.625 -18.335938 L 8.625 -2.078125 C 8.625 -1.511719 8.433594 -1.015625 8.058594 -0.613281 L 8.03125 -0.589844 C 7.9375 -0.449219 7.9375 -0.332031 8.007812 -0.1875 C 8.058594 -0.046875 8.175781 0 8.339844 0 L 13.585938 0 C 13.726562 0 13.820312 -0.046875 13.894531 -0.1875 C 13.964844 -0.332031 13.964844 -0.449219 13.894531 -0.589844 C 13.492188 -1.015625 13.300781 -1.488281 13.300781 -2.054688 L 13.300781 -18.335938 C 13.300781 -18.453125 13.347656 -18.570312 13.445312 -18.664062 C 13.539062 -18.757812 13.632812 -18.808594 13.773438 -18.808594 L 17.035156 -18.808594 C 17.601562 -18.808594 18.074219 -18.59375 18.476562 -18.214844 L 18.5 -18.214844 C 18.617188 -18.121094 18.734375 -18.121094 18.878906 -18.191406 C 19.019531 -18.238281 19.089844 -18.359375 19.089844 -18.523438 L 19.089844 -23.769531 C 19.089844 -23.910156 19.019531 -24.003906 18.878906 -24.074219 C 18.734375 -24.148438 18.617188 -24.148438 18.5 -24.074219 Z M 18.5 -24.074219 "/></g></g></g><g fill="#737373" fill-opacity="1"><g transform="translate(79.567503, 74.547304)"><g><path d="M 20.53125 -0.589844 L 20.484375 -0.613281 C 20.105469 -1.015625 19.941406 -1.488281 19.941406 -2.054688 L 19.941406 -21.429688 C 19.941406 -21.972656 20.105469 -22.445312 20.484375 -22.871094 L 20.53125 -22.894531 C 20.601562 -23.011719 20.601562 -23.128906 20.53125 -23.273438 C 20.460938 -23.414062 20.367188 -23.484375 20.222656 -23.484375 L 14.980469 -23.484375 C 14.835938 -23.484375 14.71875 -23.414062 14.648438 -23.273438 C 14.578125 -23.128906 14.578125 -23.011719 14.671875 -22.894531 L 14.695312 -22.894531 C 15.074219 -22.46875 15.261719 -21.972656 15.261719 -21.453125 L 15.261719 -14.859375 C 15.261719 -14.625 15.167969 -14.4375 15.027344 -14.292969 C 14.859375 -14.152344 14.671875 -14.082031 14.460938 -14.082031 L 8.976562 -14.082031 C 8.742188 -14.082031 8.554688 -14.152344 8.410156 -14.292969 C 8.246094 -14.4375 8.175781 -14.625 8.175781 -14.859375 L 8.175781 -21.476562 C 8.175781 -21.996094 8.363281 -22.46875 8.742188 -22.894531 C 8.8125 -23.011719 8.8125 -23.128906 8.765625 -23.273438 C 8.695312 -23.414062 8.578125 -23.484375 8.433594 -23.484375 L 3.214844 -23.484375 C 3.046875 -23.484375 2.929688 -23.414062 2.882812 -23.273438 C 2.8125 -23.128906 2.8125 -23.011719 2.90625 -22.894531 L 2.953125 -22.847656 C 3.308594 -22.445312 3.496094 -21.972656 3.496094 -21.429688 L 3.496094 -2.078125 C 3.496094 -1.511719 3.308594 -1.015625 2.953125 -0.636719 L 2.90625 -0.589844 C 2.8125 -0.449219 2.8125 -0.332031 2.882812 -0.1875 C 2.929688 -0.046875 3.046875 0 3.214844 0 L 8.433594 0 C 8.578125 0 8.695312 -0.046875 8.765625 -0.1875 C 8.8125 -0.332031 8.8125 -0.449219 8.742188 -0.589844 C 8.363281 -1.015625 8.175781 -1.488281 8.175781 -2.03125 L 8.175781 -8.625 C 8.175781 -8.835938 8.246094 -9.027344 8.410156 -9.167969 C 8.554688 -9.308594 8.742188 -9.402344 8.976562 -9.402344 L 14.460938 -9.402344 C 14.671875 -9.402344 14.859375 -9.308594 15.027344 -9.167969 C 15.167969 -9.027344 15.261719 -8.835938 15.261719 -8.625 L 15.261719 -2.03125 C 15.261719 -1.488281 15.074219 -1.015625 14.695312 -0.613281 L 14.671875 -0.589844 C 14.578125 -0.449219 14.578125 -0.332031 14.648438 -0.1875 C 14.71875 -0.046875 14.835938 0 14.980469 0 L 20.222656 0 C 20.367188 0 20.460938 -0.046875 20.53125 -0.1875 C 20.601562 -0.332031 20.601562 -0.449219 20.53125 -0.589844 Z M 20.53125 -0.589844 "/></g></g></g><g fill="#737373" fill-opacity="1"><g transform="translate(103.005111, 74.547304)"><g><path d="M 17.199219 -23.652344 C 16.796875 -23.273438 16.324219 -23.105469 15.804688 -23.105469 L 3.214844 -23.105469 C 3.046875 -23.105469 2.929688 -23.035156 2.882812 -22.894531 C 2.8125 -22.753906 2.8125 -22.632812 2.90625 -22.515625 L 2.976562 -22.445312 C 3.355469 -22.019531 3.542969 -21.523438 3.542969 -20.957031 L 3.542969 -1.773438 C 3.542969 -1.488281 3.496094 -1.230469 3.402344 -0.96875 C 3.308594 -0.707031 3.164062 -0.472656 2.976562 -0.285156 L 2.90625 -0.210938 C 2.8125 -0.0703125 2.8125 0.046875 2.882812 0.1875 C 2.929688 0.332031 3.046875 0.378906 3.214844 0.378906 L 15.804688 0.378906 C 16.324219 0.378906 16.796875 0.566406 17.199219 0.921875 C 17.320312 1.039062 17.460938 1.0625 17.601562 0.992188 C 17.742188 0.945312 17.839844 0.828125 17.839844 0.636719 L 17.839844 -4.632812 C 17.839844 -4.773438 17.765625 -4.890625 17.625 -4.960938 C 17.484375 -5.007812 17.34375 -4.984375 17.246094 -4.890625 C 16.824219 -4.488281 16.324219 -4.300781 15.757812 -4.300781 L 8.8125 -4.300781 C 8.648438 -4.300781 8.503906 -4.347656 8.386719 -4.464844 C 8.269531 -4.558594 8.222656 -4.703125 8.222656 -4.890625 L 8.222656 -8.433594 C 8.222656 -8.601562 8.269531 -8.742188 8.386719 -8.859375 C 8.503906 -8.953125 8.648438 -9.027344 8.8125 -9.027344 L 10.890625 -9.027344 C 11.460938 -9.027344 11.957031 -8.8125 12.378906 -8.433594 C 12.5 -8.339844 12.617188 -8.339844 12.757812 -8.410156 C 12.898438 -8.480469 12.972656 -8.601562 12.972656 -8.742188 L 12.972656 -13.988281 C 12.972656 -14.128906 12.898438 -14.222656 12.757812 -14.292969 C 12.617188 -14.363281 12.5 -14.363281 12.378906 -14.292969 C 11.957031 -13.894531 11.460938 -13.703125 10.890625 -13.703125 L 8.8125 -13.703125 C 8.648438 -13.703125 8.503906 -13.75 8.386719 -13.867188 C 8.269531 -13.964844 8.222656 -14.105469 8.222656 -14.292969 L 8.222656 -17.839844 C 8.222656 -18.003906 8.269531 -18.144531 8.386719 -18.261719 C 8.503906 -18.359375 8.648438 -18.429688 8.8125 -18.429688 L 15.757812 -18.429688 C 16.324219 -18.429688 16.824219 -18.214844 17.246094 -17.839844 C 17.34375 -17.71875 17.484375 -17.695312 17.625 -17.765625 C 17.765625 -17.816406 17.839844 -17.933594 17.839844 -18.097656 L 17.839844 -23.390625 C 17.839844 -23.53125 17.742188 -23.652344 17.601562 -23.722656 C 17.460938 -23.769531 17.320312 -23.746094 17.199219 -23.652344 Z M 17.199219 -23.652344 "/></g></g></g><g fill="#737373" fill-opacity="1"><g transform="translate(123.678404, 74.547304)"><g><path d="M 19.328125 -0.589844 L 18.972656 -0.875 C 18.59375 -1.179688 18.261719 -1.558594 18.003906 -1.984375 L 15.074219 -6.664062 C 14.980469 -6.804688 14.933594 -6.96875 14.980469 -7.160156 C 15.027344 -7.324219 15.121094 -7.464844 15.285156 -7.585938 C 15.878906 -8.007812 16.398438 -8.480469 16.824219 -9.027344 C 17.460938 -9.804688 17.957031 -10.703125 18.289062 -11.695312 C 18.617188 -12.6875 18.808594 -13.726562 18.808594 -14.8125 C 18.808594 -15.902344 18.617188 -16.964844 18.289062 -17.957031 C 17.957031 -18.949219 17.460938 -19.847656 16.824219 -20.648438 C 16.066406 -21.546875 15.144531 -22.257812 14.105469 -22.753906 C 13.042969 -23.226562 11.882812 -23.484375 10.65625 -23.484375 L 3.191406 -23.484375 C 3.023438 -23.484375 2.90625 -23.414062 2.859375 -23.273438 C 2.789062 -23.128906 2.8125 -23.011719 2.929688 -22.894531 C 3.308594 -22.46875 3.519531 -21.972656 3.519531 -21.40625 L 3.519531 -2.03125 C 3.519531 -1.488281 3.332031 -1.015625 2.976562 -0.613281 C 2.835938 -0.472656 2.8125 -0.355469 2.882812 -0.210938 C 2.929688 -0.0703125 3.046875 0 3.238281 0 L 8.527344 0 C 8.671875 0 8.789062 -0.046875 8.835938 -0.1875 C 8.882812 -0.332031 8.882812 -0.449219 8.789062 -0.589844 C 8.386719 -1.015625 8.199219 -1.488281 8.199219 -2.054688 L 8.199219 -5.503906 C 8.199219 -5.695312 8.246094 -5.859375 8.386719 -6 C 8.527344 -6.144531 8.695312 -6.214844 8.882812 -6.214844 L 9.449219 -6.214844 C 9.6875 -6.214844 9.898438 -6.097656 10.042969 -5.882812 L 12.949219 -1.203125 C 13.066406 -0.992188 13.042969 -0.804688 12.898438 -0.613281 L 12.875 -0.589844 C 12.78125 -0.449219 12.78125 -0.332031 12.851562 -0.1875 C 12.898438 -0.046875 13.019531 0 13.183594 0 L 19.160156 0 C 19.328125 0 19.421875 -0.0703125 19.46875 -0.210938 C 19.515625 -0.355469 19.46875 -0.472656 19.328125 -0.589844 Z M 13.207031 -12.003906 C 12.617188 -11.246094 11.765625 -10.890625 10.65625 -10.890625 L 8.882812 -10.890625 C 8.695312 -10.890625 8.527344 -10.9375 8.386719 -11.082031 C 8.246094 -11.222656 8.199219 -11.386719 8.199219 -11.578125 L 8.199219 -18.097656 C 8.199219 -18.289062 8.246094 -18.453125 8.386719 -18.59375 C 8.527344 -18.734375 8.695312 -18.808594 8.882812 -18.808594 L 10.65625 -18.808594 C 11.507812 -18.808594 12.144531 -18.617188 12.617188 -18.238281 C 13.089844 -17.863281 13.421875 -17.4375 13.65625 -16.964844 C 13.867188 -16.492188 14.011719 -16.042969 14.058594 -15.617188 C 14.105469 -15.191406 14.128906 -14.910156 14.128906 -14.8125 C 14.128906 -14.246094 14.035156 -13.726562 13.894531 -13.253906 C 13.726562 -12.78125 13.492188 -12.355469 13.207031 -12.003906 Z M 13.207031 -12.003906 "/></g></g></g><g fill="#737373" fill-opacity="1"><g transform="translate(146.005562, 74.547304)"><g><path d="M 25.585938 -1.984375 L 25.585938 -21.5 C 25.585938 -22.019531 25.753906 -22.492188 26.132812 -22.894531 C 26.226562 -23.011719 26.25 -23.128906 26.203125 -23.273438 C 26.132812 -23.414062 26.035156 -23.484375 25.894531 -23.484375 L 20.910156 -23.484375 L 20.886719 -23.460938 L 20.886719 -23.484375 L 20.25 -23.484375 C 20.082031 -23.484375 19.964844 -23.414062 19.917969 -23.273438 C 19.847656 -23.128906 19.847656 -23.011719 19.941406 -22.894531 C 20.035156 -22.753906 20.011719 -22.65625 19.917969 -22.585938 L 15.050781 -18.097656 C 14.886719 -17.957031 14.695312 -17.910156 14.507812 -17.910156 C 14.316406 -17.910156 14.152344 -17.957031 14.011719 -18.097656 L 9.074219 -22.632812 C 8.976562 -22.707031 8.976562 -22.777344 9.074219 -22.871094 C 9.167969 -22.988281 9.191406 -23.128906 9.144531 -23.273438 C 9.074219 -23.414062 8.953125 -23.484375 8.789062 -23.484375 L 3.214844 -23.484375 C 3.046875 -23.484375 2.929688 -23.414062 2.882812 -23.273438 C 2.8125 -23.128906 2.8125 -23.011719 2.90625 -22.894531 L 2.929688 -22.871094 C 3.285156 -22.46875 3.472656 -21.996094 3.472656 -21.476562 L 3.472656 -2.007812 C 3.472656 -1.464844 3.285156 -0.992188 2.929688 -0.613281 L 2.90625 -0.589844 C 2.8125 -0.449219 2.8125 -0.332031 2.882812 -0.1875 C 2.929688 -0.046875 3.046875 0 3.214844 0 L 8.433594 0 C 8.578125 0 8.695312 -0.046875 8.765625 -0.1875 C 8.8125 -0.332031 8.8125 -0.449219 8.742188 -0.589844 L 8.695312 -0.636719 C 8.316406 -1.015625 8.152344 -1.488281 8.152344 -2.03125 L 8.152344 -16.351562 C 8.152344 -16.492188 8.199219 -16.585938 8.339844 -16.632812 C 8.480469 -16.679688 8.601562 -16.679688 8.71875 -16.585938 L 14.011719 -11.671875 C 14.152344 -11.53125 14.316406 -11.460938 14.53125 -11.460938 C 14.71875 -11.460938 14.910156 -11.53125 15.050781 -11.671875 L 20.34375 -16.585938 C 20.4375 -16.679688 20.554688 -16.679688 20.695312 -16.632812 C 20.839844 -16.585938 20.910156 -16.492188 20.910156 -16.351562 L 20.910156 -2.054688 C 20.910156 -1.535156 20.722656 -1.0625 20.34375 -0.660156 L 20.296875 -0.589844 C 20.199219 -0.449219 20.199219 -0.332031 20.273438 -0.1875 C 20.320312 -0.046875 20.4375 0 20.601562 0 L 25.894531 0 C 26.035156 0 26.132812 -0.046875 26.203125 -0.1875 C 26.25 -0.332031 26.226562 -0.449219 26.132812 -0.589844 C 25.753906 -0.96875 25.585938 -1.441406 25.585938 -1.984375 Z M 25.585938 -1.984375 "/></g></g></g><g fill="#737373" fill-opacity="1"><g transform="translate(175.066306, 74.547304)"><g><path d="M 21.5 -0.425781 C 21.5 -0.519531 21.453125 -0.589844 21.382812 -0.636719 C 20.839844 -1.085938 20.484375 -1.652344 20.296875 -2.363281 L 14.648438 -21.878906 C 14.53125 -22.257812 14.601562 -22.609375 14.886719 -22.894531 C 14.957031 -23.011719 14.957031 -23.128906 14.910156 -23.273438 C 14.835938 -23.414062 14.71875 -23.484375 14.578125 -23.484375 L 8.339844 -23.484375 C 8.199219 -23.484375 8.082031 -23.414062 8.007812 -23.273438 C 7.9375 -23.128906 7.9375 -23.011719 8.03125 -22.894531 C 8.316406 -22.609375 8.386719 -22.257812 8.269531 -21.878906 L 2.644531 -2.339844 C 2.457031 -1.675781 2.078125 -1.109375 1.535156 -0.636719 C 1.464844 -0.566406 1.417969 -0.496094 1.417969 -0.425781 C 1.394531 -0.308594 1.417969 -0.210938 1.488281 -0.117188 C 1.558594 -0.0234375 1.652344 0 1.796875 0 L 7.277344 0 C 7.417969 0 7.535156 -0.046875 7.585938 -0.1875 C 7.632812 -0.332031 7.632812 -0.449219 7.535156 -0.566406 C 7.253906 -0.851562 7.183594 -1.203125 7.277344 -1.582031 L 8.007812 -4.039062 C 8.082031 -4.300781 8.222656 -4.511719 8.433594 -4.65625 C 8.625 -4.796875 8.859375 -4.890625 9.144531 -4.890625 L 13.796875 -4.890625 C 14.058594 -4.890625 14.292969 -4.796875 14.507812 -4.65625 C 14.695312 -4.511719 14.835938 -4.300781 14.933594 -4.039062 L 15.640625 -1.582031 C 15.734375 -1.203125 15.640625 -0.875 15.40625 -0.589844 L 15.40625 -0.566406 C 15.308594 -0.425781 15.308594 -0.308594 15.382812 -0.1875 C 15.429688 -0.046875 15.546875 0 15.710938 0 L 21.144531 0 C 21.265625 0 21.359375 -0.0234375 21.429688 -0.117188 C 21.5 -0.210938 21.523438 -0.308594 21.5 -0.425781 Z M 12.996094 -9.570312 L 9.945312 -9.570312 C 9.851562 -9.570312 9.78125 -9.59375 9.734375 -9.664062 C 9.664062 -9.734375 9.640625 -9.828125 9.6875 -9.921875 L 11.222656 -15.191406 C 11.246094 -15.308594 11.316406 -15.382812 11.460938 -15.382812 C 11.601562 -15.382812 11.671875 -15.308594 11.71875 -15.191406 L 13.230469 -9.921875 C 13.253906 -9.828125 13.230469 -9.734375 13.183594 -9.664062 C 13.136719 -9.59375 13.066406 -9.570312 12.996094 -9.570312 Z M 12.996094 -9.570312 "/></g></g></g><g fill="#737373" fill-opacity="1"><g transform="translate(198.007755, 74.547304)"><g><path d="M 17.175781 -5.222656 L 16.894531 -4.984375 C 16.632812 -4.75 16.351562 -4.65625 16.042969 -4.65625 L 8.71875 -4.65625 C 8.554688 -4.65625 8.410156 -4.703125 8.316406 -4.796875 C 8.199219 -4.890625 8.152344 -5.03125 8.152344 -5.222656 L 8.152344 -21.382812 C 8.152344 -21.925781 8.339844 -22.421875 8.71875 -22.847656 L 8.742188 -22.871094 C 8.8125 -22.988281 8.8125 -23.105469 8.765625 -23.25 C 8.695312 -23.367188 8.578125 -23.4375 8.433594 -23.4375 L 3.214844 -23.4375 C 3.046875 -23.4375 2.929688 -23.367188 2.882812 -23.25 C 2.8125 -23.105469 2.8125 -22.988281 2.90625 -22.871094 C 3.285156 -22.445312 3.472656 -21.949219 3.472656 -21.40625 L 3.472656 -0.519531 C 3.472656 -0.355469 3.519531 -0.210938 3.636719 -0.117188 C 3.734375 0 3.875 0.046875 4.039062 0.046875 L 16.042969 0.046875 C 16.351562 0.046875 16.632812 0.164062 16.894531 0.378906 L 17.175781 0.613281 C 17.292969 0.707031 17.414062 0.707031 17.554688 0.636719 C 17.671875 0.589844 17.742188 0.472656 17.742188 0.308594 L 17.742188 -4.914062 C 17.742188 -5.054688 17.671875 -5.175781 17.554688 -5.246094 C 17.414062 -5.292969 17.292969 -5.292969 17.175781 -5.222656 Z M 17.175781 -5.222656 "/></g></g></g><g fill="#ffc1b2" fill-opacity="0.302"><g transform="translate(79.853557, 111.154145)"><g><path d="M 25.585938 -1.984375 L 25.585938 -21.5 C 25.585938 -22.019531 25.753906 -22.492188 26.132812 -22.894531 C 26.226562 -23.011719 26.25 -23.128906 26.203125 -23.273438 C 26.132812 -23.414062 26.035156 -23.484375 25.894531 -23.484375 L 20.910156 -23.484375 L 20.886719 -23.460938 L 20.886719 -23.484375 L 20.25 -23.484375 C 20.082031 -23.484375 19.964844 -23.414062 19.917969 -23.273438 C 19.847656 -23.128906 19.847656 -23.011719 19.941406 -22.894531 C 20.035156 -22.753906 20.011719 -22.65625 19.917969 -22.585938 L 15.050781 -18.097656 C 14.886719 -17.957031 14.695312 -17.910156 14.507812 -17.910156 C 14.316406 -17.910156 14.152344 -17.957031 14.011719 -18.097656 L 9.074219 -22.632812 C 8.976562 -22.707031 8.976562 -22.777344 9.074219 -22.871094 C 9.167969 -22.988281 9.191406 -23.128906 9.144531 -23.273438 C 9.074219 -23.414062 8.953125 -23.484375 8.789062 -23.484375 L 3.214844 -23.484375 C 3.046875 -23.484375 2.929688 -23.414062 2.882812 -23.273438 C 2.8125 -23.128906 2.8125 -23.011719 2.90625 -22.894531 L 2.929688 -22.871094 C 3.285156 -22.46875 3.472656 -21.996094 3.472656 -21.476562 L 3.472656 -2.007812 C 3.472656 -1.464844 3.285156 -0.992188 2.929688 -0.613281 L 2.90625 -0.589844 C 2.8125 -0.449219 2.8125 -0.332031 2.882812 -0.1875 C 2.929688 -0.046875 3.046875 0 3.214844 0 L 8.433594 0 C 8.578125 0 8.695312 -0.046875 8.765625 -0.1875 C 8.8125 -0.332031 8.8125 -0.449219 8.742188 -0.589844 L 8.695312 -0.636719 C 8.316406 -1.015625 8.152344 -1.488281 8.152344 -2.03125 L 8.152344 -16.351562 C 8.152344 -16.492188 8.199219 -16.585938 8.339844 -16.632812 C 8.480469 -16.679688 8.601562 -16.679688 8.71875 -16.585938 L 14.011719 -11.671875 C 14.152344 -11.53125 14.316406 -11.460938 14.53125 -11.460938 C 14.71875 -11.460938 14.910156 -11.53125 15.050781 -11.671875 L 20.34375 -16.585938 C 20.4375 -16.679688 20.554688 -16.679688 20.695312 -16.632812 C 20.839844 -16.585938 20.910156 -16.492188 20.910156 -16.351562 L 20.910156 -2.054688 C 20.910156 -1.535156 20.722656 -1.0625 20.34375 -0.660156 L 20.296875 -0.589844 C 20.199219 -0.449219 20.199219 -0.332031 20.273438 -0.1875 C 20.320312 -0.046875 20.4375 0 20.601562 0 L 25.894531 0 C 26.035156 0 26.132812 -0.046875 26.203125 -0.1875 C 26.25 -0.332031 26.226562 -0.449219 26.132812 -0.589844 C 25.753906 -0.96875 25.585938 -1.441406 25.585938 -1.984375 Z M 25.585938 -1.984375 "/></g></g></g><g fill="#ffc1b2" fill-opacity="0.302"><g transform="translate(108.914301, 111.154145)"><g><path d="M 17.863281 -19.800781 C 16.964844 -20.980469 15.902344 -21.878906 14.71875 -22.515625 C 13.515625 -23.128906 12.261719 -23.460938 10.9375 -23.460938 C 9.617188 -23.460938 8.339844 -23.128906 7.136719 -22.515625 C 5.929688 -21.878906 4.890625 -20.980469 3.992188 -19.800781 C 3.140625 -18.6875 2.503906 -17.4375 2.078125 -16.066406 C 1.628906 -14.695312 1.417969 -13.230469 1.417969 -11.71875 C 1.417969 -10.207031 1.628906 -8.742188 2.078125 -7.371094 C 2.503906 -5.976562 3.140625 -4.75 3.992188 -3.664062 C 4.890625 -2.480469 5.929688 -1.558594 7.136719 -0.945312 C 8.339844 -0.308594 9.617188 0 10.9375 0 C 12.261719 0 13.515625 -0.308594 14.71875 -0.945312 C 15.902344 -1.558594 16.964844 -2.480469 17.863281 -3.664062 C 18.710938 -4.75 19.351562 -5.976562 19.800781 -7.371094 C 20.222656 -8.742188 20.460938 -10.207031 20.460938 -11.71875 C 20.460938 -13.230469 20.222656 -14.695312 19.800781 -16.066406 C 19.351562 -17.4375 18.710938 -18.6875 17.863281 -19.800781 Z M 10.9375 -4.679688 C 10.277344 -4.679688 9.640625 -4.867188 9.074219 -5.246094 C 8.480469 -5.625 7.960938 -6.121094 7.535156 -6.757812 C 7.089844 -7.394531 6.734375 -8.152344 6.472656 -9 C 6.214844 -9.851562 6.097656 -10.75 6.097656 -11.71875 C 6.097656 -12.664062 6.214844 -13.585938 6.472656 -14.4375 C 6.734375 -15.285156 7.089844 -16.019531 7.535156 -16.679688 C 7.960938 -17.320312 8.480469 -17.839844 9.074219 -18.214844 C 9.640625 -18.59375 10.277344 -18.785156 10.9375 -18.785156 C 11.601562 -18.785156 12.214844 -18.59375 12.804688 -18.214844 C 13.371094 -17.839844 13.894531 -17.320312 14.316406 -16.679688 C 14.742188 -16.019531 15.097656 -15.285156 15.359375 -14.4375 C 15.617188 -13.585938 15.757812 -12.664062 15.757812 -11.71875 C 15.757812 -10.75 15.617188 -9.851562 15.359375 -9 C 15.097656 -8.152344 14.742188 -7.394531 14.316406 -6.757812 C 13.894531 -6.121094 13.371094 -5.625 12.804688 -5.246094 C 12.214844 -4.867188 11.601562 -4.679688 10.9375 -4.679688 Z M 10.9375 -4.679688 "/></g></g></g><g fill="#ffc1b2" fill-opacity="0.302"><g transform="translate(130.79255, 111.154145)"><g><path d="M 18.191406 -19.304688 C 17.4375 -20.648438 16.515625 -21.6875 15.429688 -22.398438 C 14.339844 -23.105469 13.113281 -23.484375 11.789062 -23.484375 L 3.191406 -23.484375 C 3.023438 -23.484375 2.90625 -23.414062 2.859375 -23.273438 C 2.789062 -23.128906 2.8125 -22.988281 2.929688 -22.894531 C 3.355469 -22.421875 3.589844 -21.855469 3.589844 -21.21875 L 3.589844 -2.246094 C 3.589844 -1.605469 3.355469 -1.039062 2.929688 -0.566406 C 2.8125 -0.449219 2.789062 -0.332031 2.859375 -0.1875 C 2.90625 -0.046875 3.023438 0 3.191406 0 L 11.789062 0 C 13.113281 0 14.339844 -0.355469 15.429688 -1.0625 C 16.515625 -1.773438 17.4375 -2.789062 18.191406 -4.132812 C 18.734375 -5.152344 19.160156 -6.308594 19.46875 -7.609375 C 19.777344 -8.90625 19.941406 -10.277344 19.941406 -11.71875 C 19.941406 -13.136719 19.777344 -14.507812 19.46875 -15.804688 C 19.160156 -17.105469 18.734375 -18.261719 18.191406 -19.304688 Z M 14.082031 -6.402344 C 13.84375 -5.976562 13.609375 -5.648438 13.371094 -5.410156 C 13.136719 -5.175781 12.898438 -4.984375 12.710938 -4.890625 C 12.5 -4.773438 12.308594 -4.703125 12.144531 -4.703125 C 11.980469 -4.679688 11.859375 -4.679688 11.789062 -4.679688 L 9.144531 -4.679688 C 8.90625 -4.679688 8.695312 -4.75 8.527344 -4.9375 C 8.339844 -5.101562 8.269531 -5.316406 8.269531 -5.550781 L 8.269531 -17.625 C 8.269531 -17.933594 8.363281 -18.191406 8.601562 -18.429688 C 8.835938 -18.664062 9.121094 -18.785156 9.449219 -18.785156 L 11.789062 -18.785156 C 12.308594 -18.785156 12.804688 -18.570312 13.230469 -18.167969 C 13.65625 -17.742188 14.035156 -17.199219 14.339844 -16.539062 C 14.625 -15.878906 14.859375 -15.121094 15.027344 -14.269531 C 15.167969 -13.421875 15.261719 -12.570312 15.261719 -11.71875 C 15.261719 -10.679688 15.144531 -9.6875 14.957031 -8.765625 C 14.742188 -7.84375 14.460938 -7.0625 14.082031 -6.402344 Z M 14.082031 -6.402344 "/></g></g></g><g fill="#ffc1b2" fill-opacity="0.302"><g transform="translate(152.623549, 111.154145)"><g><path d="M 17.199219 -23.652344 C 16.796875 -23.273438 16.324219 -23.105469 15.804688 -23.105469 L 3.214844 -23.105469 C 3.046875 -23.105469 2.929688 -23.035156 2.882812 -22.894531 C 2.8125 -22.753906 2.8125 -22.632812 2.90625 -22.515625 L 2.976562 -22.445312 C 3.355469 -22.019531 3.542969 -21.523438 3.542969 -20.957031 L 3.542969 -1.773438 C 3.542969 -1.488281 3.496094 -1.230469 3.402344 -0.96875 C 3.308594 -0.707031 3.164062 -0.472656 2.976562 -0.285156 L 2.90625 -0.210938 C 2.8125 -0.0703125 2.8125 0.046875 2.882812 0.1875 C 2.929688 0.332031 3.046875 0.378906 3.214844 0.378906 L 15.804688 0.378906 C 16.324219 0.378906 16.796875 0.566406 17.199219 0.921875 C 17.320312 1.039062 17.460938 1.0625 17.601562 0.992188 C 17.742188 0.945312 17.839844 0.828125 17.839844 0.636719 L 17.839844 -4.632812 C 17.839844 -4.773438 17.765625 -4.890625 17.625 -4.960938 C 17.484375 -5.007812 17.34375 -4.984375 17.246094 -4.890625 C 16.824219 -4.488281 16.324219 -4.300781 15.757812 -4.300781 L 8.8125 -4.300781 C 8.648438 -4.300781 8.503906 -4.347656 8.386719 -4.464844 C 8.269531 -4.558594 8.222656 -4.703125 8.222656 -4.890625 L 8.222656 -8.433594 C 8.222656 -8.601562 8.269531 -8.742188 8.386719 -8.859375 C 8.503906 -8.953125 8.648438 -9.027344 8.8125 -9.027344 L 10.890625 -9.027344 C 11.460938 -9.027344 11.957031 -8.8125 12.378906 -8.433594 C 12.5 -8.339844 12.617188 -8.339844 12.757812 -8.410156 C 12.898438 -8.480469 12.972656 -8.601562 12.972656 -8.742188 L 12.972656 -13.988281 C 12.972656 -14.128906 12.898438 -14.222656 12.757812 -14.292969 C 12.617188 -14.363281 12.5 -14.363281 12.378906 -14.292969 C 11.957031 -13.894531 11.460938 -13.703125 10.890625 -13.703125 L 8.8125 -13.703125 C 8.648438 -13.703125 8.503906 -13.75 8.386719 -13.867188 C 8.269531 -13.964844 8.222656 -14.105469 8.222656 -14.292969 L 8.222656 -17.839844 C 8.222656 -18.003906 8.269531 -18.144531 8.386719 -18.261719 C 8.503906 -18.359375 8.648438 -18.429688 8.8125 -18.429688 L 15.757812 -18.429688 C 16.324219 -18.429688 16.824219 -18.214844 17.246094 -17.839844 C 17.34375 -17.71875 17.484375 -17.695312 17.625 -17.765625 C 17.765625 -17.816406 17.839844 -17.933594 17.839844 -18.097656 L 17.839844 -23.390625 C 17.839844 -23.53125 17.742188 -23.652344 17.601562 -23.722656 C 17.460938 -23.769531 17.320312 -23.746094 17.199219 -23.652344 Z M 17.199219 -23.652344 "/></g></g></g><g fill="#ffc1b2" fill-opacity="0.302"><g transform="translate(173.296842, 111.154145)"><g><path d="M 17.175781 -5.222656 L 16.894531 -4.984375 C 16.632812 -4.75 16.351562 -4.65625 16.042969 -4.65625 L 8.71875 -4.65625 C 8.554688 -4.65625 8.410156 -4.703125 8.316406 -4.796875 C 8.199219 -4.890625 8.152344 -5.03125 8.152344 -5.222656 L 8.152344 -21.382812 C 8.152344 -21.925781 8.339844 -22.421875 8.71875 -22.847656 L 8.742188 -22.871094 C 8.8125 -22.988281 8.8125 -23.105469 8.765625 -23.25 C 8.695312 -23.367188 8.578125 -23.4375 8.433594 -23.4375 L 3.214844 -23.4375 C 3.046875 -23.4375 2.929688 -23.367188 2.882812 -23.25 C 2.8125 -23.105469 2.8125 -22.988281 2.90625 -22.871094 C 3.285156 -22.445312 3.472656 -21.949219 3.472656 -21.40625 L 3.472656 -0.519531 C 3.472656 -0.355469 3.519531 -0.210938 3.636719 -0.117188 C 3.734375 0 3.875 0.046875 4.039062 0.046875 L 16.042969 0.046875 C 16.351562 0.046875 16.632812 0.164062 16.894531 0.378906 L 17.175781 0.613281 C 17.292969 0.707031 17.414062 0.707031 17.554688 0.636719 C 17.671875 0.589844 17.742188 0.472656 17.742188 0.308594 L 17.742188 -4.914062 C 17.742188 -5.054688 17.671875 -5.175781 17.554688 -5.246094 C 17.414062 -5.292969 17.292969 -5.292969 17.175781 -5.222656 Z M 17.175781 -5.222656 "/></g></g></g><g fill="#ffc1b2" fill-opacity="0.502"><g transform="translate(80.478868, 111.419571)"><g><path d="M 25.585938 -1.984375 L 25.585938 -21.5 C 25.585938 -22.019531 25.753906 -22.492188 26.132812 -22.894531 C 26.226562 -23.011719 26.25 -23.128906 26.203125 -23.273438 C 26.132812 -23.414062 26.035156 -23.484375 25.894531 -23.484375 L 20.910156 -23.484375 L 20.886719 -23.460938 L 20.886719 -23.484375 L 20.25 -23.484375 C 20.082031 -23.484375 19.964844 -23.414062 19.917969 -23.273438 C 19.847656 -23.128906 19.847656 -23.011719 19.941406 -22.894531 C 20.035156 -22.753906 20.011719 -22.65625 19.917969 -22.585938 L 15.050781 -18.097656 C 14.886719 -17.957031 14.695312 -17.910156 14.507812 -17.910156 C 14.316406 -17.910156 14.152344 -17.957031 14.011719 -18.097656 L 9.074219 -22.632812 C 8.976562 -22.707031 8.976562 -22.777344 9.074219 -22.871094 C 9.167969 -22.988281 9.191406 -23.128906 9.144531 -23.273438 C 9.074219 -23.414062 8.953125 -23.484375 8.789062 -23.484375 L 3.214844 -23.484375 C 3.046875 -23.484375 2.929688 -23.414062 2.882812 -23.273438 C 2.8125 -23.128906 2.8125 -23.011719 2.90625 -22.894531 L 2.929688 -22.871094 C 3.285156 -22.46875 3.472656 -21.996094 3.472656 -21.476562 L 3.472656 -2.007812 C 3.472656 -1.464844 3.285156 -0.992188 2.929688 -0.613281 L 2.90625 -0.589844 C 2.8125 -0.449219 2.8125 -0.332031 2.882812 -0.1875 C 2.929688 -0.046875 3.046875 0 3.214844 0 L 8.433594 0 C 8.578125 0 8.695312 -0.046875 8.765625 -0.1875 C 8.8125 -0.332031 8.8125 -0.449219 8.742188 -0.589844 L 8.695312 -0.636719 C 8.316406 -1.015625 8.152344 -1.488281 8.152344 -2.03125 L 8.152344 -16.351562 C 8.152344 -16.492188 8.199219 -16.585938 8.339844 -16.632812 C 8.480469 -16.679688 8.601562 -16.679688 8.71875 -16.585938 L 14.011719 -11.671875 C 14.152344 -11.53125 14.316406 -11.460938 14.53125 -11.460938 C 14.71875 -11.460938 14.910156 -11.53125 15.050781 -11.671875 L 20.34375 -16.585938 C 20.4375 -16.679688 20.554688 -16.679688 20.695312 -16.632812 C 20.839844 -16.585938 20.910156 -16.492188 20.910156 -16.351562 L 20.910156 -2.054688 C 20.910156 -1.535156 20.722656 -1.0625 20.34375 -0.660156 L 20.296875 -0.589844 C 20.199219 -0.449219 20.199219 -0.332031 20.273438 -0.1875 C 20.320312 -0.046875 20.4375 0 20.601562 0 L 25.894531 0 C 26.035156 0 26.132812 -0.046875 26.203125 -0.1875 C 26.25 -0.332031 26.226562 -0.449219 26.132812 -0.589844 C 25.753906 -0.96875 25.585938 -1.441406 25.585938 -1.984375 Z M 25.585938 -1.984375 "/></g></g></g><g fill="#ffc1b2" fill-opacity="0.502"><g transform="translate(109.539612, 111.419571)"><g><path d="M 17.863281 -19.800781 C 16.964844 -20.980469 15.902344 -21.878906 14.71875 -22.515625 C 13.515625 -23.128906 12.261719 -23.460938 10.9375 -23.460938 C 9.617188 -23.460938 8.339844 -23.128906 7.136719 -22.515625 C 5.929688 -21.878906 4.890625 -20.980469 3.992188 -19.800781 C 3.140625 -18.6875 2.503906 -17.4375 2.078125 -16.066406 C 1.628906 -14.695312 1.417969 -13.230469 1.417969 -11.71875 C 1.417969 -10.207031 1.628906 -8.742188 2.078125 -7.371094 C 2.503906 -5.976562 3.140625 -4.75 3.992188 -3.664062 C 4.890625 -2.480469 5.929688 -1.558594 7.136719 -0.945312 C 8.339844 -0.308594 9.617188 0 10.9375 0 C 12.261719 0 13.515625 -0.308594 14.71875 -0.945312 C 15.902344 -1.558594 16.964844 -2.480469 17.863281 -3.664062 C 18.710938 -4.75 19.351562 -5.976562 19.800781 -7.371094 C 20.222656 -8.742188 20.460938 -10.207031 20.460938 -11.71875 C 20.460938 -13.230469 20.222656 -14.695312 19.800781 -16.066406 C 19.351562 -17.4375 18.710938 -18.6875 17.863281 -19.800781 Z M 10.9375 -4.679688 C 10.277344 -4.679688 9.640625 -4.867188 9.074219 -5.246094 C 8.480469 -5.625 7.960938 -6.121094 7.535156 -6.757812 C 7.089844 -7.394531 6.734375 -8.152344 6.472656 -9 C 6.214844 -9.851562 6.097656 -10.75 6.097656 -11.71875 C 6.097656 -12.664062 6.214844 -13.585938 6.472656 -14.4375 C 6.734375 -15.285156 7.089844 -16.019531 7.535156 -16.679688 C 7.960938 -17.320312 8.480469 -17.839844 9.074219 -18.214844 C 9.640625 -18.59375 10.277344 -18.785156 10.9375 -18.785156 C 11.601562 -18.785156 12.214844 -18.59375 12.804688 -18.214844 C 13.371094 -17.839844 13.894531 -17.320312 14.316406 -16.679688 C 14.742188 -16.019531 15.097656 -15.285156 15.359375 -14.4375 C 15.617188 -13.585938 15.757812 -12.664062 15.757812 -11.71875 C 15.757812 -10.75 15.617188 -9.851562 15.359375 -9 C 15.097656 -8.152344 14.742188 -7.394531 14.316406 -6.757812 C 13.894531 -6.121094 13.371094 -5.625 12.804688 -5.246094 C 12.214844 -4.867188 11.601562 -4.679688 10.9375 -4.679688 Z M 10.9375 -4.679688 "/></g></g></g><g fill="#ffc1b2" fill-opacity="0.502"><g transform="translate(131.41786, 111.419571)"><g><path d="M 18.191406 -19.304688 C 17.4375 -20.648438 16.515625 -21.6875 15.429688 -22.398438 C 14.339844 -23.105469 13.113281 -23.484375 11.789062 -23.484375 L 3.191406 -23.484375 C 3.023438 -23.484375 2.90625 -23.414062 2.859375 -23.273438 C 2.789062 -23.128906 2.8125 -22.988281 2.929688 -22.894531 C 3.355469 -22.421875 3.589844 -21.855469 3.589844 -21.21875 L 3.589844 -2.246094 C 3.589844 -1.605469 3.355469 -1.039062 2.929688 -0.566406 C 2.8125 -0.449219 2.789062 -0.332031 2.859375 -0.1875 C 2.90625 -0.046875 3.023438 0 3.191406 0 L 11.789062 0 C 13.113281 0 14.339844 -0.355469 15.429688 -1.0625 C 16.515625 -1.773438 17.4375 -2.789062 18.191406 -4.132812 C 18.734375 -5.152344 19.160156 -6.308594 19.46875 -7.609375 C 19.777344 -8.90625 19.941406 -10.277344 19.941406 -11.71875 C 19.941406 -13.136719 19.777344 -14.507812 19.46875 -15.804688 C 19.160156 -17.105469 18.734375 -18.261719 18.191406 -19.304688 Z M 14.082031 -6.402344 C 13.84375 -5.976562 13.609375 -5.648438 13.371094 -5.410156 C 13.136719 -5.175781 12.898438 -4.984375 12.710938 -4.890625 C 12.5 -4.773438 12.308594 -4.703125 12.144531 -4.703125 C 11.980469 -4.679688 11.859375 -4.679688 11.789062 -4.679688 L 9.144531 -4.679688 C 8.90625 -4.679688 8.695312 -4.75 8.527344 -4.9375 C 8.339844 -5.101562 8.269531 -5.316406 8.269531 -5.550781 L 8.269531 -17.625 C 8.269531 -17.933594 8.363281 -18.191406 8.601562 -18.429688 C 8.835938 -18.664062 9.121094 -18.785156 9.449219 -18.785156 L 11.789062 -18.785156 C 12.308594 -18.785156 12.804688 -18.570312 13.230469 -18.167969 C 13.65625 -17.742188 14.035156 -17.199219 14.339844 -16.539062 C 14.625 -15.878906 14.859375 -15.121094 15.027344 -14.269531 C 15.167969 -13.421875 15.261719 -12.570312 15.261719 -11.71875 C 15.261719 -10.679688 15.144531 -9.6875 14.957031 -8.765625 C 14.742188 -7.84375 14.460938 -7.0625 14.082031 -6.402344 Z M 14.082031 -6.402344 "/></g></g></g><g fill="#ffc1b2" fill-opacity="0.502"><g transform="translate(153.248859, 111.419571)"><g><path d="M 17.199219 -23.652344 C 16.796875 -23.273438 16.324219 -23.105469 15.804688 -23.105469 L 3.214844 -23.105469 C 3.046875 -23.105469 2.929688 -23.035156 2.882812 -22.894531 C 2.8125 -22.753906 2.8125 -22.632812 2.90625 -22.515625 L 2.976562 -22.445312 C 3.355469 -22.019531 3.542969 -21.523438 3.542969 -20.957031 L 3.542969 -1.773438 C 3.542969 -1.488281 3.496094 -1.230469 3.402344 -0.96875 C 3.308594 -0.707031 3.164062 -0.472656 2.976562 -0.285156 L 2.90625 -0.210938 C 2.8125 -0.0703125 2.8125 0.046875 2.882812 0.1875 C 2.929688 0.332031 3.046875 0.378906 3.214844 0.378906 L 15.804688 0.378906 C 16.324219 0.378906 16.796875 0.566406 17.199219 0.921875 C 17.320312 1.039062 17.460938 1.0625 17.601562 0.992188 C 17.742188 0.945312 17.839844 0.828125 17.839844 0.636719 L 17.839844 -4.632812 C 17.839844 -4.773438 17.765625 -4.890625 17.625 -4.960938 C 17.484375 -5.007812 17.34375 -4.984375 17.246094 -4.890625 C 16.824219 -4.488281 16.324219 -4.300781 15.757812 -4.300781 L 8.8125 -4.300781 C 8.648438 -4.300781 8.503906 -4.347656 8.386719 -4.464844 C 8.269531 -4.558594 8.222656 -4.703125 8.222656 -4.890625 L 8.222656 -8.433594 C 8.222656 -8.601562 8.269531 -8.742188 8.386719 -8.859375 C 8.503906 -8.953125 8.648438 -9.027344 8.8125 -9.027344 L 10.890625 -9.027344 C 11.460938 -9.027344 11.957031 -8.8125 12.378906 -8.433594 C 12.5 -8.339844 12.617188 -8.339844 12.757812 -8.410156 C 12.898438 -8.480469 12.972656 -8.601562 12.972656 -8.742188 L 12.972656 -13.988281 C 12.972656 -14.128906 12.898438 -14.222656 12.757812 -14.292969 C 12.617188 -14.363281 12.5 -14.363281 12.378906 -14.292969 C 11.957031 -13.894531 11.460938 -13.703125 10.890625 -13.703125 L 8.8125 -13.703125 C 8.648438 -13.703125 8.503906 -13.75 8.386719 -13.867188 C 8.269531 -13.964844 8.222656 -14.105469 8.222656 -14.292969 L 8.222656 -17.839844 C 8.222656 -18.003906 8.269531 -18.144531 8.386719 -18.261719 C 8.503906 -18.359375 8.648438 -18.429688 8.8125 -18.429688 L 15.757812 -18.429688 C 16.324219 -18.429688 16.824219 -18.214844 17.246094 -17.839844 C 17.34375 -17.71875 17.484375 -17.695312 17.625 -17.765625 C 17.765625 -17.816406 17.839844 -17.933594 17.839844 -18.097656 L 17.839844 -23.390625 C 17.839844 -23.53125 17.742188 -23.652344 17.601562 -23.722656 C 17.460938 -23.769531 17.320312 -23.746094 17.199219 -23.652344 Z M 17.199219 -23.652344 "/></g></g></g><g fill="#ffc1b2" fill-opacity="0.502"><g transform="translate(173.922152, 111.419571)"><g><path d="M 17.175781 -5.222656 L 16.894531 -4.984375 C 16.632812 -4.75 16.351562 -4.65625 16.042969 -4.65625 L 8.71875 -4.65625 C 8.554688 -4.65625 8.410156 -4.703125 8.316406 -4.796875 C 8.199219 -4.890625 8.152344 -5.03125 8.152344 -5.222656 L 8.152344 -21.382812 C 8.152344 -21.925781 8.339844 -22.421875 8.71875 -22.847656 L 8.742188 -22.871094 C 8.8125 -22.988281 8.8125 -23.105469 8.765625 -23.25 C 8.695312 -23.367188 8.578125 -23.4375 8.433594 -23.4375 L 3.214844 -23.4375 C 3.046875 -23.4375 2.929688 -23.367188 2.882812 -23.25 C 2.8125 -23.105469 2.8125 -22.988281 2.90625 -22.871094 C 3.285156 -22.445312 3.472656 -21.949219 3.472656 -21.40625 L 3.472656 -0.519531 C 3.472656 -0.355469 3.519531 -0.210938 3.636719 -0.117188 C 3.734375 0 3.875 0.046875 4.039062 0.046875 L 16.042969 0.046875 C 16.351562 0.046875 16.632812 0.164062 16.894531 0.378906 L 17.175781 0.613281 C 17.292969 0.707031 17.414062 0.707031 17.554688 0.636719 C 17.671875 0.589844 17.742188 0.472656 17.742188 0.308594 L 17.742188 -4.914062 C 17.742188 -5.054688 17.671875 -5.175781 17.554688 -5.246094 C 17.414062 -5.292969 17.292969 -5.292969 17.175781 -5.222656 Z M 17.175781 -5.222656 "/></g></g></g><g fill="#737373" fill-opacity="1"><g transform="translate(81.104178, 111.685001)"><g><path d="M 25.585938 -1.984375 L 25.585938 -21.5 C 25.585938 -22.019531 25.753906 -22.492188 26.132812 -22.894531 C 26.226562 -23.011719 26.25 -23.128906 26.203125 -23.273438 C 26.132812 -23.414062 26.035156 -23.484375 25.894531 -23.484375 L 20.910156 -23.484375 L 20.886719 -23.460938 L 20.886719 -23.484375 L 20.25 -23.484375 C 20.082031 -23.484375 19.964844 -23.414062 19.917969 -23.273438 C 19.847656 -23.128906 19.847656 -23.011719 19.941406 -22.894531 C 20.035156 -22.753906 20.011719 -22.65625 19.917969 -22.585938 L 15.050781 -18.097656 C 14.886719 -17.957031 14.695312 -17.910156 14.507812 -17.910156 C 14.316406 -17.910156 14.152344 -17.957031 14.011719 -18.097656 L 9.074219 -22.632812 C 8.976562 -22.707031 8.976562 -22.777344 9.074219 -22.871094 C 9.167969 -22.988281 9.191406 -23.128906 9.144531 -23.273438 C 9.074219 -23.414062 8.953125 -23.484375 8.789062 -23.484375 L 3.214844 -23.484375 C 3.046875 -23.484375 2.929688 -23.414062 2.882812 -23.273438 C 2.8125 -23.128906 2.8125 -23.011719 2.90625 -22.894531 L 2.929688 -22.871094 C 3.285156 -22.46875 3.472656 -21.996094 3.472656 -21.476562 L 3.472656 -2.007812 C 3.472656 -1.464844 3.285156 -0.992188 2.929688 -0.613281 L 2.90625 -0.589844 C 2.8125 -0.449219 2.8125 -0.332031 2.882812 -0.1875 C 2.929688 -0.046875 3.046875 0 3.214844 0 L 8.433594 0 C 8.578125 0 8.695312 -0.046875 8.765625 -0.1875 C 8.8125 -0.332031 8.8125 -0.449219 8.742188 -0.589844 L 8.695312 -0.636719 C 8.316406 -1.015625 8.152344 -1.488281 8.152344 -2.03125 L 8.152344 -16.351562 C 8.152344 -16.492188 8.199219 -16.585938 8.339844 -16.632812 C 8.480469 -16.679688 8.601562 -16.679688 8.71875 -16.585938 L 14.011719 -11.671875 C 14.152344 -11.53125 14.316406 -11.460938 14.53125 -11.460938 C 14.71875 -11.460938 14.910156 -11.53125 15.050781 -11.671875 L 20.34375 -16.585938 C 20.4375 -16.679688 20.554688 -16.679688 20.695312 -16.632812 C 20.839844 -16.585938 20.910156 -16.492188 20.910156 -16.351562 L 20.910156 -2.054688 C 20.910156 -1.535156 20.722656 -1.0625 20.34375 -0.660156 L 20.296875 -0.589844 C 20.199219 -0.449219 20.199219 -0.332031 20.273438 -0.1875 C 20.320312 -0.046875 20.4375 0 20.601562 0 L 25.894531 0 C 26.035156 0 26.132812 -0.046875 26.203125 -0.1875 C 26.25 -0.332031 26.226562 -0.449219 26.132812 -0.589844 C 25.753906 -0.96875 25.585938 -1.441406 25.585938 -1.984375 Z M 25.585938 -1.984375 "/></g></g></g><g fill="#737373" fill-opacity="1"><g transform="translate(110.164922, 111.685001)"><g><path d="M 17.863281 -19.800781 C 16.964844 -20.980469 15.902344 -21.878906 14.71875 -22.515625 C 13.515625 -23.128906 12.261719 -23.460938 10.9375 -23.460938 C 9.617188 -23.460938 8.339844 -23.128906 7.136719 -22.515625 C 5.929688 -21.878906 4.890625 -20.980469 3.992188 -19.800781 C 3.140625 -18.6875 2.503906 -17.4375 2.078125 -16.066406 C 1.628906 -14.695312 1.417969 -13.230469 1.417969 -11.71875 C 1.417969 -10.207031 1.628906 -8.742188 2.078125 -7.371094 C 2.503906 -5.976562 3.140625 -4.75 3.992188 -3.664062 C 4.890625 -2.480469 5.929688 -1.558594 7.136719 -0.945312 C 8.339844 -0.308594 9.617188 0 10.9375 0 C 12.261719 0 13.515625 -0.308594 14.71875 -0.945312 C 15.902344 -1.558594 16.964844 -2.480469 17.863281 -3.664062 C 18.710938 -4.75 19.351562 -5.976562 19.800781 -7.371094 C 20.222656 -8.742188 20.460938 -10.207031 20.460938 -11.71875 C 20.460938 -13.230469 20.222656 -14.695312 19.800781 -16.066406 C 19.351562 -17.4375 18.710938 -18.6875 17.863281 -19.800781 Z M 10.9375 -4.679688 C 10.277344 -4.679688 9.640625 -4.867188 9.074219 -5.246094 C 8.480469 -5.625 7.960938 -6.121094 7.535156 -6.757812 C 7.089844 -7.394531 6.734375 -8.152344 6.472656 -9 C 6.214844 -9.851562 6.097656 -10.75 6.097656 -11.71875 C 6.097656 -12.664062 6.214844 -13.585938 6.472656 -14.4375 C 6.734375 -15.285156 7.089844 -16.019531 7.535156 -16.679688 C 7.960938 -17.320312 8.480469 -17.839844 9.074219 -18.214844 C 9.640625 -18.59375 10.277344 -18.785156 10.9375 -18.785156 C 11.601562 -18.785156 12.214844 -18.59375 12.804688 -18.214844 C 13.371094 -17.839844 13.894531 -17.320312 14.316406 -16.679688 C 14.742188 -16.019531 15.097656 -15.285156 15.359375 -14.4375 C 15.617188 -13.585938 15.757812 -12.664062 15.757812 -11.71875 C 15.757812 -10.75 15.617188 -9.851562 15.359375 -9 C 15.097656 -8.152344 14.742188 -7.394531 14.316406 -6.757812 C 13.894531 -6.121094 13.371094 -5.625 12.804688 -5.246094 C 12.214844 -4.867188 11.601562 -4.679688 10.9375 -4.679688 Z M 10.9375 -4.679688 "/></g></g></g><g fill="#737373" fill-opacity="1"><g transform="translate(132.043171, 111.685001)"><g><path d="M 18.191406 -19.304688 C 17.4375 -20.648438 16.515625 -21.6875 15.429688 -22.398438 C 14.339844 -23.105469 13.113281 -23.484375 11.789062 -23.484375 L 3.191406 -23.484375 C 3.023438 -23.484375 2.90625 -23.414062 2.859375 -23.273438 C 2.789062 -23.128906 2.8125 -22.988281 2.929688 -22.894531 C 3.355469 -22.421875 3.589844 -21.855469 3.589844 -21.21875 L 3.589844 -2.246094 C 3.589844 -1.605469 3.355469 -1.039062 2.929688 -0.566406 C 2.8125 -0.449219 2.789062 -0.332031 2.859375 -0.1875 C 2.90625 -0.046875 3.023438 0 3.191406 0 L 11.789062 0 C 13.113281 0 14.339844 -0.355469 15.429688 -1.0625 C 16.515625 -1.773438 17.4375 -2.789062 18.191406 -4.132812 C 18.734375 -5.152344 19.160156 -6.308594 19.46875 -7.609375 C 19.777344 -8.90625 19.941406 -10.277344 19.941406 -11.71875 C 19.941406 -13.136719 19.777344 -14.507812 19.46875 -15.804688 C 19.160156 -17.105469 18.734375 -18.261719 18.191406 -19.304688 Z M 14.082031 -6.402344 C 13.84375 -5.976562 13.609375 -5.648438 13.371094 -5.410156 C 13.136719 -5.175781 12.898438 -4.984375 12.710938 -4.890625 C 12.5 -4.773438 12.308594 -4.703125 12.144531 -4.703125 C 11.980469 -4.679688 11.859375 -4.679688 11.789062 -4.679688 L 9.144531 -4.679688 C 8.90625 -4.679688 8.695312 -4.75 8.527344 -4.9375 C 8.339844 -5.101562 8.269531 -5.316406 8.269531 -5.550781 L 8.269531 -17.625 C 8.269531 -17.933594 8.363281 -18.191406 8.601562 -18.429688 C 8.835938 -18.664062 9.121094 -18.785156 9.449219 -18.785156 L 11.789062 -18.785156 C 12.308594 -18.785156 12.804688 -18.570312 13.230469 -18.167969 C 13.65625 -17.742188 14.035156 -17.199219 14.339844 -16.539062 C 14.625 -15.878906 14.859375 -15.121094 15.027344 -14.269531 C 15.167969 -13.421875 15.261719 -12.570312 15.261719 -11.71875 C 15.261719 -10.679688 15.144531 -9.6875 14.957031 -8.765625 C 14.742188 -7.84375 14.460938 -7.0625 14.082031 -6.402344 Z M 14.082031 -6.402344 "/></g></g></g><g fill="#737373" fill-opacity="1"><g transform="translate(153.874169, 111.685001)"><g><path d="M 17.199219 -23.652344 C 16.796875 -23.273438 16.324219 -23.105469 15.804688 -23.105469 L 3.214844 -23.105469 C 3.046875 -23.105469 2.929688 -23.035156 2.882812 -22.894531 C 2.8125 -22.753906 2.8125 -22.632812 2.90625 -22.515625 L 2.976562 -22.445312 C 3.355469 -22.019531 3.542969 -21.523438 3.542969 -20.957031 L 3.542969 -1.773438 C 3.542969 -1.488281 3.496094 -1.230469 3.402344 -0.96875 C 3.308594 -0.707031 3.164062 -0.472656 2.976562 -0.285156 L 2.90625 -0.210938 C 2.8125 -0.0703125 2.8125 0.046875 2.882812 0.1875 C 2.929688 0.332031 3.046875 0.378906 3.214844 0.378906 L 15.804688 0.378906 C 16.324219 0.378906 16.796875 0.566406 17.199219 0.921875 C 17.320312 1.039062 17.460938 1.0625 17.601562 0.992188 C 17.742188 0.945312 17.839844 0.828125 17.839844 0.636719 L 17.839844 -4.632812 C 17.839844 -4.773438 17.765625 -4.890625 17.625 -4.960938 C 17.484375 -5.007812 17.34375 -4.984375 17.246094 -4.890625 C 16.824219 -4.488281 16.324219 -4.300781 15.757812 -4.300781 L 8.8125 -4.300781 C 8.648438 -4.300781 8.503906 -4.347656 8.386719 -4.464844 C 8.269531 -4.558594 8.222656 -4.703125 8.222656 -4.890625 L 8.222656 -8.433594 C 8.222656 -8.601562 8.269531 -8.742188 8.386719 -8.859375 C 8.503906 -8.953125 8.648438 -9.027344 8.8125 -9.027344 L 10.890625 -9.027344 C 11.460938 -9.027344 11.957031 -8.8125 12.378906 -8.433594 C 12.5 -8.339844 12.617188 -8.339844 12.757812 -8.410156 C 12.898438 -8.480469 12.972656 -8.601562 12.972656 -8.742188 L 12.972656 -13.988281 C 12.972656 -14.128906 12.898438 -14.222656 12.757812 -14.292969 C 12.617188 -14.363281 12.5 -14.363281 12.378906 -14.292969 C 11.957031 -13.894531 11.460938 -13.703125 10.890625 -13.703125 L 8.8125 -13.703125 C 8.648438 -13.703125 8.503906 -13.75 8.386719 -13.867188 C 8.269531 -13.964844 8.222656 -14.105469 8.222656 -14.292969 L 8.222656 -17.839844 C 8.222656 -18.003906 8.269531 -18.144531 8.386719 -18.261719 C 8.503906 -18.359375 8.648438 -18.429688 8.8125 -18.429688 L 15.757812 -18.429688 C 16.324219 -18.429688 16.824219 -18.214844 17.246094 -17.839844 C 17.34375 -17.71875 17.484375 -17.695312 17.625 -17.765625 C 17.765625 -17.816406 17.839844 -17.933594 17.839844 -18.097656 L 17.839844 -23.390625 C 17.839844 -23.53125 17.742188 -23.652344 17.601562 -23.722656 C 17.460938 -23.769531 17.320312 -23.746094 17.199219 -23.652344 Z M 17.199219 -23.652344 "/></g></g></g><g fill="#737373" fill-opacity="1"><g transform="translate(174.547462, 111.685001)"><g><path d="M 17.175781 -5.222656 L 16.894531 -4.984375 C 16.632812 -4.75 16.351562 -4.65625 16.042969 -4.65625 L 8.71875 -4.65625 C 8.554688 -4.65625 8.410156 -4.703125 8.316406 -4.796875 C 8.199219 -4.890625 8.152344 -5.03125 8.152344 -5.222656 L 8.152344 -21.382812 C 8.152344 -21.925781 8.339844 -22.421875 8.71875 -22.847656 L 8.742188 -22.871094 C 8.8125 -22.988281 8.8125 -23.105469 8.765625 -23.25 C 8.695312 -23.367188 8.578125 -23.4375 8.433594 -23.4375 L 3.214844 -23.4375 C 3.046875 -23.4375 2.929688 -23.367188 2.882812 -23.25 C 2.8125 -23.105469 2.8125 -22.988281 2.90625 -22.871094 C 3.285156 -22.445312 3.472656 -21.949219 3.472656 -21.40625 L 3.472656 -0.519531 C 3.472656 -0.355469 3.519531 -0.210938 3.636719 -0.117188 C 3.734375 0 3.875 0.046875 4.039062 0.046875 L 16.042969 0.046875 C 16.351562 0.046875 16.632812 0.164062 16.894531 0.378906 L 17.175781 0.613281 C 17.292969 0.707031 17.414062 0.707031 17.554688 0.636719 C 17.671875 0.589844 17.742188 0.472656 17.742188 0.308594 L 17.742188 -4.914062 C 17.742188 -5.054688 17.671875 -5.175781 17.554688 -5.246094 C 17.414062 -5.292969 17.292969 -5.292969 17.175781 -5.222656 Z M 17.175781 -5.222656 "/></g></g></g></svg>